Playfair Display-Bold.ufo
<glyph name="exclam" format="1">
  <advance width="306"/>
  <unicode hex="0021"/>
  <outline>
    <contour>
      <point x="91" y="782"/>
      <point x="47" y="733"/>
      <point x="47" y="656" type="curve" smooth="yes"/>
      <point x="47" y="534"/>
      <point x="134" y="383"/>
      <point x="144" y="196" type="curve"/>
      <point x="162" y="196" type="line"/>
      <point x="162" y="196" type="line"/>
      <point x="172" y="383"/>
      <point x="259" y="534"/>
      <point x="259" y="656" type="curve" smooth="yes"/>
      <point x="259" y="733"/>
      <point x="208" y="782"/>
      <point x="153" y="782" type="curve" smooth="yes"/>
    </contour>
    <component base="period" xOffset="12"/>
  </outline>
</glyph>
<glyph name="dollar" format="1">
  <advance width="608"/>
  <unicode hex="0024"/>
  <outline>
    <contour>
      <point x="171" y="722"/>
      <point x="52" y="664"/>
      <point x="52" y="533" type="curve" smooth="yes"/>
      <point x="52" y="423"/>
      <point x="135" y="361"/>
      <point x="230" y="298" type="curve" smooth="yes"/>
      <point x="436" y="154"/>
      <point x="440" y="134"/>
      <point x="440" y="93" type="curve" smooth="yes"/>
      <point x="440" y="49"/>
      <point x="412" y="10"/>
      <point x="302" y="10" type="curve" smooth="yes"/>
      <point x="154" y="10"/>
      <point x="93" y="61"/>
      <point x="74" y="283" type="curve"/>
      <point x="51" y="283" type="line"/>
      <point x="51" y="112"/>
      <point x="50" y="44"/>
      <point x="47" y="-7" type="curve"/>
      <point x="70" y="-7" type="line"/>
      <point x="74" y="22"/>
      <point x="79" y="37"/>
      <point x="92" y="37" type="curve" smooth="yes"/>
      <point x="106" y="37"/>
      <point x="121" y="30"/>
      <point x="140" y="22" type="curve" smooth="yes"/>
      <point x="167" y="11"/>
      <point x="212" y="-14"/>
      <point x="303" y="-14" type="curve" smooth="yes"/>
      <point x="449" y="-14"/>
      <point x="575" y="49"/>
      <point x="575" y="184" type="curve" smooth="yes"/>
      <point x="575" y="293"/>
      <point x="504" y="351"/>
      <point x="413" y="410" type="curve" smooth="yes"/>
      <point x="202" y="547"/>
      <point x="203" y="578"/>
      <point x="203" y="619" type="curve" smooth="yes"/>
      <point x="203" y="663"/>
      <point x="235" y="698"/>
      <point x="321" y="698" type="curve" smooth="yes"/>
      <point x="450" y="698"/>
      <point x="492" y="612"/>
      <point x="513" y="468" type="curve"/>
      <point x="536" y="468" type="line"/>
      <point x="536" y="618"/>
      <point x="538" y="669"/>
      <point x="541" y="712" type="curve"/>
      <point x="518" y="712" type="line"/>
      <point x="514" y="683"/>
      <point x="509" y="668"/>
      <point x="496" y="668" type="curve" smooth="yes"/>
      <point x="487" y="668"/>
      <point x="478" y="673"/>
      <point x="462" y="682" type="curve" smooth="yes"/>
      <point x="428" y="701"/>
      <point x="386" y="722"/>
      <point x="300" y="722" type="curve" smooth="yes"/>
    </contour>
    <contour>
      <point x="252" y="840" type="line"/>
      <point x="252" y="-132" type="line"/>
      <point x="272" y="-132" type="line"/>
      <point x="272" y="840" type="line"/>
    </contour>
    <contour>
      <point x="358" y="840" type="line"/>
      <point x="358" y="-132" type="line"/>
      <point x="378" y="-132" type="line"/>
      <point x="378" y="840" type="line"/>
    </contour>
  </outline>
</glyph>
<glyph name="percent" format="1">
  <advance width="719"/>
  <unicode hex="0025"/>
  <outline>
    <contour>
      <point x="106" y="761"/>
      <point x="32" y="693"/>
      <point x="32" y="593" type="curve" smooth="yes"/>
      <point x="32" y="490"/>
      <point x="103" y="430"/>
      <point x="204" y="430" type="curve" smooth="yes"/>
      <point x="302" y="430"/>
      <point x="375" y="497"/>
      <point x="375" y="598" type="curve" smooth="yes"/>
      <point x="375" y="701"/>
      <point x="305" y="761"/>
      <point x="204" y="761" type="curve" smooth="yes"/>
    </contour>
    <contour>
      <point x="552" y="299"/>
      <point x="574" y="250"/>
      <point x="574" y="152" type="curve" smooth="yes"/>
      <point x="574" y="56"/>
      <point x="556" y="4"/>
      <point x="518" y="4" type="curve" smooth="yes"/>
      <point x="480" y="4"/>
      <point x="457" y="53"/>
      <point x="457" y="150" type="curve" smooth="yes"/>
      <point x="457" y="247"/>
      <point x="476" y="299"/>
      <point x="514" y="299" type="curve" smooth="yes"/>
    </contour>
    <contour>
      <point x="418" y="317"/>
      <point x="344" y="249"/>
      <point x="344" y="149" type="curve" smooth="yes"/>
      <point x="344" y="46"/>
      <point x="415" y="-14"/>
      <point x="516" y="-14" type="curve" smooth="yes"/>
      <point x="614" y="-14"/>
      <point x="687" y="53"/>
      <point x="687" y="154" type="curve" smooth="yes"/>
      <point x="687" y="257"/>
      <point x="617" y="317"/>
      <point x="516" y="317" type="curve" smooth="yes"/>
    </contour>
    <contour>
      <point x="240" y="743"/>
      <point x="262" y="694"/>
      <point x="262" y="596" type="curve" smooth="yes"/>
      <point x="262" y="500"/>
      <point x="244" y="448"/>
      <point x="206" y="448" type="curve" smooth="yes"/>
      <point x="168" y="448"/>
      <point x="145" y="497"/>
      <point x="145" y="594" type="curve" smooth="yes"/>
      <point x="145" y="691"/>
      <point x="164" y="743"/>
      <point x="202" y="743" type="curve" smooth="yes"/>
    </contour>
    <component base="fraction" xOffset="333"/>
  </outline>
</glyph>
<glyph name="ampersand" format="1">
  <advance width="938"/>
  <unicode hex="0026"/>
  <outline>
    <contour>
      <point x="253" y="715"/>
      <point x="127" y="682"/>
      <point x="127" y="582" type="curve" smooth="yes"/>
      <point x="127" y="513"/>
      <point x="187" y="480"/>
      <point x="248" y="458" type="curve"/>
      <point x="188" y="444"/>
      <point x="33" y="387"/>
      <point x="33" y="235" type="curve" smooth="yes"/>
      <point x="33" y="81"/>
      <point x="177" y="-14"/>
      <point x="430" y="-14" type="curve" smooth="yes"/>
      <point x="646" y="-14"/>
      <point x="802" y="83"/>
      <point x="802" y="235" type="curve" smooth="yes"/>
      <point x="802" y="318"/>
      <point x="763" y="385"/>
      <point x="708" y="402" type="curve"/>
      <point x="705" y="394" type="line"/>
      <point x="763" y="361"/>
      <point x="763" y="305"/>
      <point x="763" y="278" type="curve" smooth="yes"/>
      <point x="763" y="164"/>
      <point x="608" y="110"/>
      <point x="479" y="110" type="curve" smooth="yes"/>
      <point x="282" y="110"/>
      <point x="172" y="162"/>
      <point x="172" y="290" type="curve" smooth="yes"/>
      <point x="172" y="367"/>
      <point x="209" y="412"/>
      <point x="262" y="450" type="curve"/>
      <point x="275" y="439"/>
      <point x="298" y="422"/>
      <point x="320" y="422" type="curve" smooth="yes"/>
      <point x="335" y="422"/>
      <point x="348" y="430"/>
      <point x="348" y="444" type="curve" smooth="yes"/>
      <point x="348" y="461"/>
      <point x="337" y="473"/>
      <point x="313" y="473" type="curve" smooth="yes"/>
      <point x="298" y="473"/>
      <point x="283" y="470"/>
      <point x="261" y="464" type="curve"/>
      <point x="236" y="498"/>
      <point x="230" y="533"/>
      <point x="230" y="558" type="curve" smooth="yes"/>
      <point x="230" y="653"/>
      <point x="290" y="697"/>
      <point x="361" y="697" type="curve" smooth="yes"/>
      <point x="382" y="697"/>
      <point x="406" y="694"/>
      <point x="420" y="689" type="curve"/>
      <point x="377" y="678"/>
      <point x="349" y="643"/>
      <point x="349" y="606" type="curve" smooth="yes"/>
      <point x="349" y="558"/>
      <point x="387" y="536"/>
      <point x="435" y="536" type="curve" smooth="yes"/>
      <point x="485" y="536"/>
      <point x="526" y="566"/>
      <point x="526" y="612" type="curve" smooth="yes"/>
      <point x="526" y="664"/>
      <point x="483" y="690"/>
      <point x="450" y="701" type="curve" smooth="yes"/>
      <point x="424" y="710"/>
      <point x="398" y="715"/>
      <point x="346" y="715" type="curve" smooth="yes"/>
    </contour>
    <contour>
      <point x="664" y="722"/>
      <point x="623" y="682"/>
      <point x="623" y="628" type="curve" smooth="yes"/>
      <point x="623" y="581"/>
      <point x="659" y="551"/>
      <point x="718" y="551" type="curve" smooth="yes"/>
      <point x="773" y="551"/>
      <point x="813" y="576"/>
      <point x="813" y="625" type="curve" smooth="yes"/>
      <point x="813" y="654"/>
      <point x="792" y="685"/>
      <point x="751" y="700" type="curve"/>
      <point x="759" y="701"/>
      <point x="768" y="702"/>
      <point x="778" y="702" type="curve" smooth="yes"/>
      <point x="831" y="702"/>
      <point x="889" y="670"/>
      <point x="889" y="618" type="curve" smooth="yes"/>
      <point x="889" y="558"/>
      <point x="811" y="536"/>
      <point x="696" y="517" type="curve" smooth="yes"/>
      <point x="666" y="513"/>
      <point x="638" y="507"/>
      <point x="609" y="503" type="curve" smooth="yes"/>
      <point x="439" y="478"/>
      <point x="329" y="421"/>
      <point x="329" y="294" type="curve" smooth="yes"/>
      <point x="329" y="204"/>
      <point x="399" y="158"/>
      <point x="494" y="158" type="curve" smooth="yes"/>
      <point x="589" y="158"/>
      <point x="651" y="186"/>
      <point x="651" y="252" type="curve" smooth="yes"/>
      <point x="651" y="299"/>
      <point x="617" y="329"/>
      <point x="558" y="329" type="curve" smooth="yes"/>
      <point x="503" y="329"/>
      <point x="461" y="303"/>
      <point x="461" y="254" type="curve" smooth="yes"/>
      <point x="461" y="225"/>
      <point x="473" y="194"/>
      <point x="514" y="179" type="curve"/>
      <point x="506" y="178"/>
      <point x="497" y="177"/>
      <point x="487" y="177" type="curve" smooth="yes"/>
      <point x="428" y="177"/>
      <point x="368" y="209"/>
      <point x="368" y="258" type="curve" smooth="yes"/>
      <point x="368" y="313"/>
      <point x="440" y="336"/>
      <point x="579" y="361" type="curve" smooth="yes"/>
      <point x="602" y="365"/>
      <point x="626" y="369"/>
      <point x="651" y="373" type="curve" smooth="yes"/>
      <point x="823" y="399"/>
      <point x="926" y="451"/>
      <point x="926" y="577" type="curve" smooth="yes"/>
      <point x="926" y="669"/>
      <point x="859" y="722"/>
      <point x="758" y="722" type="curve" smooth="yes"/>
    </contour>
  </outline>
</glyph>
<glyph name="quotesingle" format="1">
  <advance width="222"/>
  <unicode hex="0027"/>
  <outline>
    <contour>
      <point x="65" y="730"/>
      <point x="30" y="698"/>
      <point x="30" y="649" type="curve" smooth="yes"/>
      <point x="30" y="592"/>
      <point x="69" y="557"/>
      <point x="104" y="468" type="curve"/>
      <point x="118" y="468" type="line"/>
      <point x="153" y="562"/>
      <point x="192" y="593"/>
      <point x="192" y="650" type="curve" smooth="yes"/>
      <point x="192" y="699"/>
      <point x="157" y="730"/>
      <point x="111" y="730" type="curve" smooth="yes"/>
    </contour>
  </outline>
</glyph>
<glyph name="parenright" format="1">
  <advance width="334"/>
  <unicode hex="0029"/>
  <outline>
    <contour>
      <point x="20" y="794" type="line"/>
      <point x="93" y="650"/>
      <point x="131" y="502"/>
      <point x="131" y="312" type="curve" smooth="yes"/>
      <point x="131" y="122"/>
      <point x="94" y="-21"/>
      <point x="20" y="-170" type="curve"/>
      <point x="35" y="-182" type="line"/>
      <point x="210" y="-69"/>
      <point x="305" y="85"/>
      <point x="305" y="312" type="curve" smooth="yes"/>
      <point x="305" y="539"/>
      <point x="210" y="693"/>
      <point x="35" y="806" type="curve"/>
    </contour>
  </outline>
</glyph>
<glyph name="asterisk" format="1">
  <advance width="473"/>
  <unicode hex="002A"/>
  <outline>
    <contour>
      <point x="312" y="627"/>
      <point x="284" y="579"/>
      <point x="236" y="520" type="curve"/>
      <point x="238" y="517" type="line"/>
      <point x="317" y="530"/>
      <point x="368" y="529"/>
      <point x="401" y="548" type="curve" smooth="yes"/>
      <point x="436" y="568"/>
      <point x="434" y="599"/>
      <point x="419" y="624" type="curve" smooth="yes"/>
      <point x="406" y="648"/>
      <point x="379" y="666"/>
      <point x="344" y="646" type="curve" smooth="yes"/>
    </contour>
    <contour>
      <point x="237" y="517" type="line"/>
      <point x="287" y="455"/>
      <point x="312" y="410"/>
      <point x="345" y="391" type="curve" smooth="yes"/>
      <point x="380" y="371"/>
      <point x="406" y="388"/>
      <point x="420" y="413" type="curve" smooth="yes"/>
      <point x="434" y="437"/>
      <point x="436" y="469"/>
      <point x="401" y="489" type="curve" smooth="yes"/>
      <point x="369" y="508"/>
      <point x="313" y="508"/>
      <point x="238" y="520" type="curve"/>
    </contour>
    <contour>
      <point x="236" y="517" type="line"/>
      <point x="207" y="443"/>
      <point x="181" y="399"/>
      <point x="181" y="361" type="curve" smooth="yes"/>
      <point x="181" y="321"/>
      <point x="209" y="307"/>
      <point x="238" y="307" type="curve" smooth="yes"/>
      <point x="265" y="307"/>
      <point x="294" y="321"/>
      <point x="294" y="361" type="curve" smooth="yes"/>
      <point x="294" y="399"/>
      <point x="266" y="447"/>
      <point x="239" y="518" type="curve"/>
    </contour>
    <contour>
      <point x="157" y="506"/>
      <point x="106" y="507"/>
      <point x="73" y="488" type="curve" smooth="yes"/>
      <point x="38" y="468"/>
      <point x="40" y="437"/>
      <point x="55" y="412" type="curve" smooth="yes"/>
      <point x="68" y="388"/>
      <point x="95" y="370"/>
      <point x="130" y="390" type="curve" smooth="yes"/>
      <point x="162" y="409"/>
      <point x="190" y="457"/>
      <point x="238" y="516" type="curve"/>
      <point x="236" y="518" type="line"/>
    </contour>
    <contour>
      <point x="94" y="665"/>
      <point x="68" y="648"/>
      <point x="54" y="623" type="curve" smooth="yes"/>
      <point x="40" y="599"/>
      <point x="38" y="567"/>
      <point x="73" y="547" type="curve" smooth="yes"/>
      <point x="105" y="528"/>
      <point x="161" y="528"/>
      <point x="236" y="516" type="curve"/>
      <point x="237" y="519" type="line"/>
      <point x="187" y="581"/>
      <point x="162" y="626"/>
      <point x="129" y="645" type="curve" smooth="yes"/>
    </contour>
    <contour>
      <point x="209" y="729"/>
      <point x="180" y="715"/>
      <point x="180" y="675" type="curve" smooth="yes"/>
      <point x="180" y="637"/>
      <point x="208" y="589"/>
      <point x="235" y="518" type="curve"/>
      <point x="238" y="518" type="line"/>
      <point x="266" y="593"/>
      <point x="293" y="637"/>
      <point x="293" y="675" type="curve" smooth="yes"/>
      <point x="293" y="715"/>
      <point x="265" y="729"/>
      <point x="237" y="729" type="curve" smooth="yes"/>
    </contour>
  </outline>
</glyph>
<glyph name="plus" format="1">
  <advance width="565"/>
  <unicode hex="002B"/>
  <outline>
    <contour>
      <point x="301" y="606" type="line"/>
      <point x="265" y="606" type="line"/>
      <point x="265" y="370" type="line"/>
      <point x="32" y="370" type="line"/>
      <point x="32" y="340" type="line"/>
      <point x="265" y="340" type="line"/>
      <point x="265" y="105" type="line"/>
      <point x="301" y="105" type="line"/>
      <point x="301" y="340" type="line"/>
      <point x="533" y="340" type="line"/>
      <point x="533" y="370" type="line"/>
      <point x="301" y="370" type="line"/>
    </contour>
  </outline>
</glyph>
<glyph name="comma" format="1">
  <advance width="278"/>
  <unicode hex="002C"/>
  <outline>
    <contour>
      <point x="79" y="158"/>
      <point x="41" y="124"/>
      <point x="41" y="72" type="curve" smooth="yes"/>
      <point x="41" y="17"/>
      <point x="76" y="-14"/>
      <point x="129" y="-14" type="curve" smooth="yes"/>
      <point x="160" y="-14"/>
      <point x="185" y="-3"/>
      <point x="202" y="17" type="curve"/>
      <point x="206" y="-1"/>
      <point x="205" y="-19"/>
      <point x="199" y="-38" type="curve" smooth="yes"/>
      <point x="189" y="-71"/>
      <point x="159" y="-104"/>
      <point x="124" y="-120" type="curve"/>
      <point x="133" y="-138" type="line"/>
      <point x="205" y="-105"/>
      <point x="239" y="-41"/>
      <point x="239" y="26" type="curve" smooth="yes"/>
      <point x="239" y="67"/>
      <point x="228" y="102"/>
      <point x="214" y="121" type="curve" smooth="yes"/>
      <point x="198" y="145"/>
      <point x="170" y="158"/>
      <point x="135" y="158" type="curve" smooth="yes"/>
    </contour>
  </outline>
</glyph>
<glyph name="hyphen" format="1">
  <advance width="469"/>
  <unicode hex="002D"/>
  <outline>
    <contour>
      <point x="54" y="321" type="line"/>
      <point x="54" y="222" type="line"/>
      <point x="415" y="222" type="line"/>
      <point x="415" y="321" type="line"/>
    </contour>
  </outline>
</glyph>
<glyph name="period" format="1">
  <advance width="282"/>
  <unicode hex="002E"/>
  <outline>
    <contour>
      <point x="77" y="158"/>
      <point x="42" y="129"/>
      <point x="42" y="72" type="curve" smooth="yes"/>
      <point x="42" y="15"/>
      <point x="77" y="-14"/>
      <point x="141" y="-14" type="curve" smooth="yes"/>
      <point x="204" y="-14"/>
      <point x="240" y="15"/>
      <point x="240" y="72" type="curve" smooth="yes"/>
      <point x="240" y="129"/>
      <point x="204" y="158"/>
      <point x="141" y="158" type="curve" smooth="yes"/>
    </contour>
  </outline>
</glyph>
<glyph name="slash" format="1">
  <advance width="366"/>
  <unicode hex="002F"/>
  <outline>
    <contour>
      <point x="336" y="722" type="line"/>
      <point x="303" y="722" type="line"/>
      <point x="31" y="-14" type="line"/>
      <point x="64" y="-14" type="line"/>
    </contour>
  </outline>
</glyph>
<glyph name="zero" format="1">
  <advance width="675"/>
  <unicode hex="0030"/>
  <outline>
    <contour>
      <point x="160" y="533"/>
      <point x="40" y="410"/>
      <point x="40" y="252" type="curve" smooth="yes"/>
      <point x="40" y="91"/>
      <point x="163" y="-14"/>
      <point x="332" y="-14" type="curve" smooth="yes"/>
      <point x="513" y="-14"/>
      <point x="635" y="108"/>
      <point x="635" y="268" type="curve" smooth="yes"/>
      <point x="635" y="427"/>
      <point x="514" y="533"/>
      <point x="343" y="533" type="curve" smooth="yes"/>
    </contour>
    <contour>
      <point x="395" y="515"/>
      <point x="448" y="444"/>
      <point x="448" y="265" type="curve" smooth="yes"/>
      <point x="448" y="102"/>
      <point x="403" y="4"/>
      <point x="341" y="4" type="curve" smooth="yes"/>
      <point x="280" y="4"/>
      <point x="227" y="75"/>
      <point x="227" y="255" type="curve" smooth="yes"/>
      <point x="227" y="418"/>
      <point x="272" y="515"/>
      <point x="334" y="515" type="curve" smooth="yes"/>
    </contour>
  </outline>
</glyph>
<glyph name="one" format="1">
  <advance width="392"/>
  <unicode hex="0031"/>
  <outline>
    <contour>
      <point x="239" y="494"/>
      <point x="162" y="481"/>
      <point x="36" y="479" type="curve"/>
      <point x="36" y="457" type="line"/>
      <point x="102" y="457"/>
      <point x="122" y="445"/>
      <point x="122" y="349" type="curve" smooth="yes"/>
      <point x="122" y="103" type="line" smooth="yes"/>
      <point x="122" y="38"/>
      <point x="90" y="21"/>
      <point x="36" y="21" type="curve"/>
      <point x="36" y="0" type="line"/>
      <point x="73" y="1"/>
      <point x="146" y="4"/>
      <point x="220" y="4" type="curve" smooth="yes"/>
      <point x="274" y="4"/>
      <point x="331" y="1"/>
      <point x="358" y="0" type="curve"/>
      <point x="358" y="21" type="line"/>
      <point x="317" y="21"/>
      <point x="302" y="37"/>
      <point x="302" y="93" type="curve" smooth="yes"/>
      <point x="302" y="530" type="line"/>
    </contour>
  </outline>
</glyph>
<glyph name="two" format="1">
  <advance width="553"/>
  <unicode hex="0032"/>
  <outline>
    <contour>
      <point x="157" y="533"/>
      <point x="84" y="478"/>
      <point x="37" y="408" type="curve"/>
      <point x="54" y="396" type="line"/>
      <point x="89" y="438"/>
      <point x="129" y="463"/>
      <point x="188" y="463" type="curve" smooth="yes"/>
      <point x="248" y="463"/>
      <point x="277" y="433"/>
      <point x="277" y="365" type="curve" smooth="yes"/>
      <point x="277" y="211"/>
      <point x="108" y="92"/>
      <point x="36" y="21" type="curve"/>
      <point x="36" y="0" type="line"/>
      <point x="365" y="0" type="line" smooth="yes"/>
      <point x="425" y="0"/>
      <point x="496" y="-1"/>
      <point x="514" y="-5" type="curve"/>
      <point x="511" y="38"/>
      <point x="510" y="87"/>
      <point x="510" y="188" type="curve"/>
      <point x="487" y="188" type="line"/>
      <point x="482" y="157"/>
      <point x="475" y="147"/>
      <point x="420" y="147" type="curve" smooth="yes"/>
      <point x="194" y="147" type="line"/>
      <point x="279" y="222"/>
      <point x="474" y="279"/>
      <point x="474" y="405" type="curve" smooth="yes"/>
      <point x="474" y="486"/>
      <point x="405" y="533"/>
      <point x="295" y="533" type="curve" smooth="yes"/>
    </contour>
  </outline>
</glyph>
<glyph name="five" format="1">
  <advance width="489"/>
  <unicode hex="0035"/>
  <outline>
    <contour>
      <point x="396" y="549" type="line"/>
      <point x="393" y="526"/>
      <point x="378" y="518"/>
      <point x="349" y="518" type="curve" smooth="yes"/>
      <point x="150" y="518" type="line" smooth="yes"/>
      <point x="131" y="518"/>
      <point x="111" y="519"/>
      <point x="96" y="522" type="curve"/>
      <point x="56" y="199" type="line"/>
      <point x="72" y="188" type="line"/>
      <point x="99" y="211"/>
      <point x="127" y="225"/>
      <point x="168" y="225" type="curve" smooth="yes"/>
      <point x="239" y="225"/>
      <point x="275" y="179"/>
      <point x="275" y="97" type="curve" smooth="yes"/>
      <point x="275" y="-46"/>
      <point x="147" y="-129"/>
      <point x="20" y="-130" type="curve"/>
      <point x="20" y="-148" type="line"/>
      <point x="231" y="-148"/>
      <point x="460" y="-54"/>
      <point x="460" y="101" type="curve" smooth="yes"/>
      <point x="460" y="189"/>
      <point x="395" y="261"/>
      <point x="253" y="261" type="curve" smooth="yes"/>
      <point x="173" y="261"/>
      <point x="114" y="241"/>
      <point x="79" y="215" type="curve"/>
      <point x="98" y="371" type="line"/>
      <point x="284" y="371" type="line" smooth="yes"/>
      <point x="340" y="371"/>
      <point x="406" y="370"/>
      <point x="423" y="366" type="curve"/>
      <point x="420" y="407"/>
      <point x="419" y="453"/>
      <point x="419" y="549" type="curve"/>
    </contour>
  </outline>
</glyph>
<glyph name="six" format="1">
  <advance width="591"/>
  <unicode hex="0036"/>
  <outline>
    <contour>
      <point x="306" y="697"/>
      <point x="42" y="571"/>
      <point x="42" y="271" type="curve" smooth="yes"/>
      <point x="42" y="90"/>
      <point x="138" y="-14"/>
      <point x="297" y="-14" type="curve" smooth="yes"/>
      <point x="441" y="-14"/>
      <point x="566" y="71"/>
      <point x="566" y="226" type="curve" smooth="yes"/>
      <point x="566" y="359"/>
      <point x="474" y="442"/>
      <point x="359" y="442" type="curve" smooth="yes"/>
      <point x="287" y="442"/>
      <point x="225" y="409"/>
      <point x="214" y="323" type="curve"/>
      <point x="223" y="313" type="line"/>
      <point x="236" y="386"/>
      <point x="282" y="413"/>
      <point x="309" y="413" type="curve" smooth="yes"/>
      <point x="348" y="413"/>
      <point x="379" y="360"/>
      <point x="379" y="217" type="curve" smooth="yes"/>
      <point x="379" y="65"/>
      <point x="344" y="6"/>
      <point x="308" y="6" type="curve" smooth="yes"/>
      <point x="271" y="6"/>
      <point x="229" y="70"/>
      <point x="229" y="261" type="curve" smooth="yes"/>
      <point x="229" y="597"/>
      <point x="358" y="663"/>
      <point x="485" y="703" type="curve"/>
      <point x="481" y="723" type="line"/>
    </contour>
  </outline>
</glyph>
<glyph name="nine" format="1">
  <advance width="582"/>
  <unicode hex="0039"/>
  <outline>
    <contour>
      <point x="148" y="533"/>
      <point x="23" y="448"/>
      <point x="23" y="293" type="curve" smooth="yes"/>
      <point x="23" y="160"/>
      <point x="115" y="77"/>
      <point x="230" y="77" type="curve" smooth="yes"/>
      <point x="302" y="77"/>
      <point x="364" y="110"/>
      <point x="375" y="196" type="curve"/>
      <point x="366" y="206" type="line"/>
      <point x="353" y="133"/>
      <point x="307" y="106"/>
      <point x="280" y="106" type="curve" smooth="yes"/>
      <point x="241" y="106"/>
      <point x="210" y="159"/>
      <point x="210" y="302" type="curve" smooth="yes"/>
      <point x="210" y="454"/>
      <point x="245" y="513"/>
      <point x="281" y="513" type="curve" smooth="yes"/>
      <point x="318" y="513"/>
      <point x="360" y="449"/>
      <point x="360" y="258" type="curve" smooth="yes"/>
      <point x="360" y="-38"/>
      <point x="236" y="-99"/>
      <point x="114" y="-134" type="curve"/>
      <point x="118" y="-154" type="line"/>
      <point x="289" y="-133"/>
      <point x="547" y="-17"/>
      <point x="547" y="248" type="curve" smooth="yes"/>
      <point x="547" y="429"/>
      <point x="451" y="533"/>
      <point x="292" y="533" type="curve" smooth="yes"/>
    </contour>
  </outline>
</glyph>
<glyph name="less" format="1">
  <advance width="598"/>
  <unicode hex="003C"/>
  <outline>
    <contour>
      <point x="27" y="355" type="line"/>
      <point x="514" y="128" type="line"/>
      <point x="531" y="164" type="line"/>
      <point x="122" y="355" type="line"/>
      <point x="531" y="546" type="line"/>
      <point x="514" y="582" type="line"/>
    </contour>
  </outline>
</glyph>
<glyph name="equal" format="1">
  <advance width="627"/>
  <unicode hex="003D"/>
  <outline>
    <contour>
      <point x="63" y="440" type="line"/>
      <point x="63" y="410" type="line"/>
      <point x="564" y="410" type="line"/>
      <point x="564" y="440" type="line"/>
    </contour>
    <contour>
      <point x="63" y="300" type="line"/>
      <point x="63" y="270" type="line"/>
      <point x="564" y="270" type="line"/>
      <point x="564" y="300" type="line"/>
    </contour>
  </outline>
</glyph>
<glyph name="question" format="1">
  <advance width="540"/>
  <unicode hex="003F"/>
  <outline>
    <contour>
      <point x="181" y="782"/>
      <point x="127" y="766"/>
      <point x="93" y="747" type="curve" smooth="yes"/>
      <point x="57" y="727"/>
      <point x="29" y="700"/>
      <point x="29" y="651" type="curve" smooth="yes"/>
      <point x="29" y="609"/>
      <point x="61" y="571"/>
      <point x="111" y="571" type="curve" smooth="yes"/>
      <point x="169" y="571"/>
      <point x="207" y="608"/>
      <point x="207" y="655" type="curve" smooth="yes"/>
      <point x="207" y="700"/>
      <point x="185" y="727"/>
      <point x="142" y="743" type="curve"/>
      <point x="154" y="754"/>
      <point x="182" y="762"/>
      <point x="221" y="762" type="curve" smooth="yes"/>
      <point x="286" y="762"/>
      <point x="332" y="709"/>
      <point x="332" y="583" type="curve" smooth="yes"/>
      <point x="332" y="505"/>
      <point x="315" y="438"/>
      <point x="216" y="389" type="curve"/>
      <point x="216" y="234" type="line"/>
      <point x="236" y="234" type="line"/>
      <point x="236" y="380" type="line"/>
      <point x="400" y="414"/>
      <point x="511" y="489"/>
      <point x="511" y="602" type="curve" smooth="yes"/>
      <point x="511" y="714"/>
      <point x="406" y="782"/>
      <point x="251" y="782" type="curve" smooth="yes"/>
    </contour>
    <component base="period" xOffset="87"/>
  </outline>
</glyph>
<glyph name="at" format="1">
  <advance width="888"/>
  <unicode hex="0040"/>
  <outline>
    <contour>
      <point x="260" y="668"/>
      <point x="42" y="412"/>
      <point x="42" y="143" type="curve" smooth="yes"/>
      <point x="42" y="-69"/>
      <point x="179" y="-161"/>
      <point x="371" y="-161" type="curve" smooth="yes"/>
      <point x="460" y="-161"/>
      <point x="535" y="-137"/>
      <point x="585" y="-102" type="curve"/>
      <point x="578" y="-89" type="line"/>
      <point x="513" y="-128"/>
      <point x="444" y="-143"/>
      <point x="372" y="-143" type="curve" smooth="yes"/>
      <point x="194" y="-143"/>
      <point x="62" y="-61"/>
      <point x="62" y="145" type="curve" smooth="yes"/>
      <point x="62" y="416"/>
      <point x="286" y="650"/>
      <point x="536" y="650" type="curve" smooth="yes"/>
      <point x="698" y="650"/>
      <point x="837" y="579"/>
      <point x="837" y="394" type="curve" smooth="yes"/>
      <point x="837" y="218"/>
      <point x="729" y="106"/>
      <point x="645" y="66" type="curve" smooth="yes"/>
      <point x="610" y="48"/>
      <point x="613" y="81"/>
      <point x="621" y="121" type="curve" smooth="yes"/>
      <point x="697" y="478" type="line"/>
      <point x="652" y="467"/>
      <point x="595" y="464"/>
      <point x="546" y="464" type="curve"/>
      <point x="486" y="167" type="line" smooth="yes"/>
      <point x="467" y="104"/>
      <point x="455" y="26"/>
      <point x="557" y="26" type="curve" smooth="yes"/>
      <point x="688" y="26"/>
      <point x="857" y="168"/>
      <point x="857" y="393" type="curve" smooth="yes"/>
      <point x="857" y="588"/>
      <point x="715" y="668"/>
      <point x="535" y="668" type="curve" smooth="yes"/>
    </contour>
    <contour>
      <point x="322" y="478"/>
      <point x="215" y="297"/>
      <point x="215" y="162" type="curve" smooth="yes"/>
      <point x="215" y="63"/>
      <point x="273" y="26"/>
      <point x="339" y="26" type="curve" smooth="yes"/>
      <point x="404" y="26"/>
      <point x="466" y="63"/>
      <point x="502" y="201" type="curve"/>
      <point x="498" y="218" type="line"/>
      <point x="470" y="132"/>
      <point x="444" y="86"/>
      <point x="406" y="86" type="curve" smooth="yes"/>
      <point x="385" y="86"/>
      <point x="372" y="101"/>
      <point x="372" y="160" type="curve" smooth="yes"/>
      <point x="372" y="298"/>
      <point x="443" y="435"/>
      <point x="493" y="435" type="curve" smooth="yes"/>
      <point x="525" y="435"/>
      <point x="533" y="379"/>
      <point x="525" y="356" type="curve"/>
      <point x="537" y="365" type="line"/>
      <point x="547" y="411"/>
      <point x="526" y="478"/>
      <point x="455" y="478" type="curve" smooth="yes"/>
    </contour>
  </outline>
</glyph>
<glyph name="A" format="1">
  <advance width="692"/>
  <unicode hex="0041"/>
  <outline>
    <contour>
      <point x="366" y="705"/>
      <point x="325" y="705"/>
      <point x="293" y="708" type="curve"/>
      <point x="71" y="137" type="line" smooth="yes"/>
      <point x="39" y="54"/>
      <point x="10" y="25"/>
      <point x="-21" y="20" type="curve"/>
      <point x="-21" y="0" type="line"/>
      <point x="-1" y="2"/>
      <point x="30" y="3"/>
      <point x="56" y="3" type="curve" smooth="yes"/>
      <point x="102" y="3"/>
      <point x="137" y="2"/>
      <point x="187" y="0" type="curve"/>
      <point x="187" y="20" type="line"/>
      <point x="107" y="23"/>
      <point x="62" y="50"/>
      <point x="129" y="223" type="curve" smooth="yes"/>
      <point x="267" y="582" type="line"/>
      <point x="247" y="547" type="line"/>
      <point x="407" y="104" type="line" smooth="yes"/>
      <point x="434" y="36"/>
      <point x="417" y="23"/>
      <point x="349" y="20" type="curve"/>
      <point x="349" y="0" type="line"/>
      <point x="385" y="2"/>
      <point x="449" y="3"/>
      <point x="517" y="3" type="curve" smooth="yes"/>
      <point x="583" y="3"/>
      <point x="651" y="2"/>
      <point x="699" y="0" type="curve"/>
      <point x="699" y="20" type="line"/>
      <point x="681" y="21"/>
      <point x="658" y="38"/>
      <point x="640" y="84" type="curve" smooth="yes"/>
      <point x="398" y="708" type="line"/>
    </contour>
    <contour>
      <point x="145" y="288" type="line"/>
      <point x="135" y="268" type="line"/>
      <point x="433" y="268" type="line"/>
      <point x="433" y="288" type="line"/>
    </contour>
    <contour>
      <point x="682" y="0" type="move" name="ogonek"/>
    </contour>
    <contour>
      <point x="347" y="708" type="move" name="top"/>
    </contour>
  </outline>
</glyph>
<glyph name="B" format="1">
  <advance width="704"/>
  <unicode hex="0042"/>
  <outline>
    <contour>
      <point x="28" y="688" type="line"/>
      <point x="88" y="685"/>
      <point x="99" y="675"/>
      <point x="99" y="602" type="curve" smooth="yes"/>
      <point x="99" y="106" type="line" smooth="yes"/>
      <point x="99" y="33"/>
      <point x="89" y="23"/>
      <point x="28" y="20" type="curve"/>
      <point x="28" y="0" type="line"/>
      <point x="66" y="2"/>
      <point x="135" y="3"/>
      <point x="202" y="3" type="curve" smooth="yes"/>
      <point x="289" y="3"/>
      <point x="352" y="0"/>
      <point x="384" y="0" type="curve" smooth="yes"/>
      <point x="570" y="0"/>
      <point x="684" y="60"/>
      <point x="684" y="194" type="curve" smooth="yes"/>
      <point x="684" y="275"/>
      <point x="607" y="361"/>
      <point x="401" y="371" type="curve"/>
      <point x="401" y="373" type="line"/>
      <point x="559" y="393"/>
      <point x="632" y="479"/>
      <point x="632" y="550" type="curve" smooth="yes"/>
      <point x="632" y="642"/>
      <point x="543" y="707"/>
      <point x="361" y="707" type="curve" smooth="yes"/>
      <point x="335" y="707"/>
      <point x="267" y="705"/>
      <point x="200" y="705" type="curve" smooth="yes"/>
      <point x="136" y="705"/>
      <point x="66" y="706"/>
      <point x="28" y="708" type="curve"/>
    </contour>
    <contour>
      <point x="407" y="688"/>
      <point x="426" y="637"/>
      <point x="426" y="539" type="curve" smooth="yes"/>
      <point x="426" y="452"/>
      <point x="407" y="376"/>
      <point x="329" y="376" type="curve" smooth="yes"/>
      <point x="243" y="376" type="line"/>
      <point x="243" y="376"/>
      <point x="243" y="359"/>
      <point x="243" y="359" type="curve"/>
      <point x="316" y="359" type="line" smooth="yes"/>
      <point x="429" y="359"/>
      <point x="474" y="300"/>
      <point x="474" y="198" type="curve" smooth="yes"/>
      <point x="474" y="86"/>
      <point x="442" y="23"/>
      <point x="367" y="23" type="curve" smooth="yes"/>
      <point x="313" y="23"/>
      <point x="302" y="36"/>
      <point x="302" y="106" type="curve" smooth="yes"/>
      <point x="302" y="602" type="line" smooth="yes"/>
      <point x="302" y="671"/>
      <point x="311" y="688"/>
      <point x="356" y="688" type="curve" smooth="yes"/>
    </contour>
  </outline>
</glyph>
<glyph name="D" format="1">
  <advance width="811"/>
  <unicode hex="0044"/>
  <outline>
    <contour>
      <point x="320" y="708"/>
      <point x="249" y="706"/>
      <point x="200" y="705" type="curve" smooth="yes"/>
      <point x="136" y="704"/>
      <point x="66" y="706"/>
      <point x="28" y="708" type="curve"/>
      <point x="28" y="688" type="line"/>
      <point x="88" y="685"/>
      <point x="99" y="675"/>
      <point x="99" y="602" type="curve" smooth="yes"/>
      <point x="99" y="106" type="line" smooth="yes"/>
      <point x="99" y="33"/>
      <point x="89" y="23"/>
      <point x="28" y="20" type="curve"/>
      <point x="28" y="0" type="line"/>
      <point x="66" y="2"/>
      <point x="135" y="3"/>
      <point x="202" y="3" type="curve" smooth="yes"/>
      <point x="248" y="3"/>
      <point x="320" y="0"/>
      <point x="352" y="0" type="curve" smooth="yes"/>
      <point x="618" y="0"/>
      <point x="774" y="144"/>
      <point x="774" y="362" type="curve" smooth="yes"/>
      <point x="774" y="585"/>
      <point x="641" y="708"/>
      <point x="361" y="708" type="curve" smooth="yes"/>
    </contour>
    <contour>
      <point x="507" y="690"/>
      <point x="564" y="582"/>
      <point x="564" y="358" type="curve" smooth="yes"/>
      <point x="564" y="140"/>
      <point x="513" y="18"/>
      <point x="377" y="18" type="curve" smooth="yes"/>
      <point x="315" y="18"/>
      <point x="302" y="34"/>
      <point x="302" y="104" type="curve" smooth="yes"/>
      <point x="302" y="604" type="line" smooth="yes"/>
      <point x="302" y="673"/>
      <point x="315" y="690"/>
      <point x="376" y="690" type="curve" smooth="yes"/>
    </contour>
    <contour>
      <point x="406" y="354" type="move" name="center"/>
    </contour>
    <contour>
      <point x="88" y="346" type="move" name="centre"/>
    </contour>
    <contour>
      <point x="361" y="708" type="move" name="top"/>
    </contour>
  </outline>
</glyph>
<glyph name="E" format="1">
  <advance width="650"/>
  <unicode hex="0045"/>
  <outline>
    <contour>
      <point x="525" y="705"/>
      <point x="439" y="705"/>
      <point x="378" y="705" type="curve" smooth="yes"/>
      <point x="306" y="705"/>
      <point x="144" y="705"/>
      <point x="28" y="708" type="curve"/>
      <point x="28" y="688" type="line"/>
      <point x="88" y="685"/>
      <point x="99" y="675"/>
      <point x="99" y="602" type="curve" smooth="yes"/>
      <point x="99" y="106" type="line" smooth="yes"/>
      <point x="99" y="33"/>
      <point x="89" y="23"/>
      <point x="28" y="20" type="curve"/>
      <point x="28" y="0" type="line"/>
      <point x="144" y="3"/>
      <point x="306" y="3"/>
      <point x="378" y="3" type="curve" smooth="yes"/>
      <point x="445" y="3"/>
      <point x="539" y="3"/>
      <point x="607" y="0" type="curve"/>
      <point x="600" y="66"/>
      <point x="600" y="135"/>
      <point x="600" y="168" type="curve" smooth="yes"/>
      <point x="600" y="204"/>
      <point x="601" y="236"/>
      <point x="603" y="260" type="curve"/>
      <point x="580" y="260" type="line"/>
      <point x="548" y="79"/>
      <point x="462" y="23"/>
      <point x="396" y="23" type="curve" smooth="yes"/>
      <point x="363" y="23" type="line" smooth="yes"/>
      <point x="311" y="23"/>
      <point x="302" y="31"/>
      <point x="302" y="86" type="curve" smooth="yes"/>
      <point x="302" y="622" type="line" smooth="yes"/>
      <point x="302" y="677"/>
      <point x="311" y="685"/>
      <point x="363" y="685" type="curve" smooth="yes"/>
      <point x="376" y="685" type="line" smooth="yes"/>
      <point x="458" y="685"/>
      <point x="535" y="634"/>
      <point x="560" y="468" type="curve"/>
      <point x="583" y="468" type="line"/>
      <point x="581" y="485"/>
      <point x="580" y="512"/>
      <point x="580" y="540" type="curve" smooth="yes"/>
      <point x="580" y="573"/>
      <point x="582" y="641"/>
      <point x="587" y="708" type="curve"/>
    </contour>
    <contour>
      <point x="272" y="366" type="line"/>
      <point x="272" y="366"/>
      <point x="272" y="346"/>
      <point x="272" y="346" type="curve"/>
      <point x="442" y="346" type="line"/>
      <point x="442" y="346"/>
      <point x="442" y="366"/>
      <point x="442" y="366" type="curve"/>
    </contour>
    <contour>
      <point x="448" y="498" type="line"/>
      <point x="436" y="440"/>
      <point x="387" y="366"/>
      <point x="312" y="366" type="curve"/>
      <point x="312" y="346" type="line"/>
      <point x="387" y="346"/>
      <point x="439" y="288"/>
      <point x="451" y="214" type="curve"/>
      <point x="474" y="214" type="line"/>
      <point x="469" y="290"/>
      <point x="468" y="323"/>
      <point x="468" y="356" type="curve" smooth="yes"/>
      <point x="468" y="389"/>
      <point x="466" y="422"/>
      <point x="471" y="498" type="curve"/>
    </contour>
    <contour>
      <point x="325" y="0" type="move" name="bottom"/>
    </contour>
    <contour>
      <point x="598" y="0" type="move" name="ogonek"/>
    </contour>
    <contour>
      <point x="320" y="708" type="move" name="top"/>
    </contour>
  </outline>
</glyph>
<glyph name="F" format="1">
  <advance width="608"/>
  <unicode hex="0046"/>
  <outline>
    <contour>
      <point x="525" y="705"/>
      <point x="439" y="705"/>
      <point x="378" y="705" type="curve" smooth="yes"/>
      <point x="306" y="705"/>
      <point x="144" y="705"/>
      <point x="28" y="708" type="curve"/>
      <point x="28" y="688" type="line"/>
      <point x="88" y="685"/>
      <point x="99" y="675"/>
      <point x="99" y="602" type="curve" smooth="yes"/>
      <point x="99" y="106" type="line" smooth="yes"/>
      <point x="99" y="33"/>
      <point x="89" y="23"/>
      <point x="28" y="20" type="curve"/>
      <point x="28" y="0" type="line"/>
      <point x="82" y="1"/>
      <point x="146" y="3"/>
      <point x="207" y="3" type="curve" smooth="yes"/>
      <point x="290" y="3"/>
      <point x="368" y="1"/>
      <point x="413" y="0" type="curve" smooth="yes"/>
      <point x="413" y="23" type="line"/>
      <point x="321" y="23"/>
      <point x="302" y="34"/>
      <point x="302" y="116" type="curve" smooth="yes"/>
      <point x="302" y="622" type="line" smooth="yes"/>
      <point x="302" y="677"/>
      <point x="311" y="685"/>
      <point x="363" y="685" type="curve" smooth="yes"/>
      <point x="376" y="685" type="line" smooth="yes"/>
      <point x="448" y="685"/>
      <point x="525" y="634"/>
      <point x="560" y="468" type="curve"/>
      <point x="583" y="468" type="line"/>
      <point x="581" y="485"/>
      <point x="580" y="512"/>
      <point x="580" y="540" type="curve" smooth="yes"/>
      <point x="580" y="573"/>
      <point x="582" y="641"/>
      <point x="587" y="708" type="curve"/>
    </contour>
    <contour>
      <point x="272" y="366" type="line"/>
      <point x="272" y="366"/>
      <point x="272" y="346"/>
      <point x="272" y="346" type="curve"/>
      <point x="442" y="346" type="line"/>
      <point x="442" y="346"/>
      <point x="442" y="366"/>
      <point x="442" y="366" type="curve"/>
    </contour>
    <contour>
      <point x="448" y="498" type="line"/>
      <point x="436" y="440"/>
      <point x="387" y="366"/>
      <point x="312" y="366" type="curve"/>
      <point x="312" y="346" type="line"/>
      <point x="387" y="346"/>
      <point x="439" y="288"/>
      <point x="451" y="214" type="curve"/>
      <point x="474" y="214" type="line"/>
      <point x="469" y="290"/>
      <point x="468" y="323"/>
      <point x="468" y="356" type="curve" smooth="yes"/>
      <point x="468" y="389"/>
      <point x="466" y="422"/>
      <point x="471" y="498" type="curve"/>
    </contour>
  </outline>
</glyph>
<glyph name="H" format="1">
  <advance width="829"/>
  <unicode hex="0048"/>
  <outline>
    <contour>
      <point x="765" y="706"/>
      <point x="701" y="705"/>
      <point x="633" y="705" type="curve" smooth="yes"/>
      <point x="567" y="705"/>
      <point x="497" y="706"/>
      <point x="456" y="708" type="curve"/>
      <point x="456" y="688" type="line"/>
      <point x="516" y="685"/>
      <point x="527" y="675"/>
      <point x="527" y="602" type="curve" smooth="yes"/>
      <point x="527" y="366" type="line"/>
      <point x="302" y="366" type="line"/>
      <point x="302" y="602" type="line" smooth="yes"/>
      <point x="302" y="675"/>
      <point x="312" y="685"/>
      <point x="373" y="688" type="curve"/>
      <point x="373" y="708" type="line"/>
      <point x="334" y="706"/>
      <point x="268" y="705"/>
      <point x="206" y="705" type="curve" smooth="yes"/>
      <point x="134" y="705"/>
      <point x="66" y="706"/>
      <point x="28" y="708" type="curve"/>
      <point x="28" y="688" type="line"/>
      <point x="88" y="685"/>
      <point x="99" y="675"/>
      <point x="99" y="602" type="curve" smooth="yes"/>
      <point x="99" y="106" type="line" smooth="yes"/>
      <point x="99" y="33"/>
      <point x="89" y="23"/>
      <point x="28" y="20" type="curve"/>
      <point x="28" y="0" type="line"/>
      <point x="66" y="2"/>
      <point x="134" y="3"/>
      <point x="206" y="3" type="curve" smooth="yes"/>
      <point x="268" y="3"/>
      <point x="334" y="2"/>
      <point x="373" y="0" type="curve"/>
      <point x="373" y="20" type="line"/>
      <point x="313" y="23"/>
      <point x="302" y="33"/>
      <point x="302" y="106" type="curve" smooth="yes"/>
      <point x="302" y="346" type="line"/>
      <point x="527" y="346" type="line"/>
      <point x="527" y="106" type="line" smooth="yes"/>
      <point x="527" y="33"/>
      <point x="517" y="23"/>
      <point x="456" y="20" type="curve"/>
      <point x="456" y="0" type="line"/>
      <point x="497" y="2"/>
      <point x="567" y="3"/>
      <point x="633" y="3" type="curve" smooth="yes"/>
      <point x="701" y="3"/>
      <point x="765" y="2"/>
      <point x="801" y="0" type="curve"/>
      <point x="801" y="20" type="line"/>
      <point x="741" y="23"/>
      <point x="730" y="33"/>
      <point x="730" y="106" type="curve" smooth="yes"/>
      <point x="730" y="602" type="line" smooth="yes"/>
      <point x="730" y="675"/>
      <point x="740" y="685"/>
      <point x="801" y="688" type="curve"/>
      <point x="801" y="708" type="line"/>
    </contour>
    <contour>
      <point x="415" y="354" type="move" name="center"/>
    </contour>
    <contour>
      <point x="417" y="708" type="move" name="top"/>
    </contour>
  </outline>
</glyph>
<glyph name="I" format="1">
  <advance width="401"/>
  <unicode hex="0049"/>
  <outline>
    <contour>
      <point x="334" y="706"/>
      <point x="268" y="705"/>
      <point x="206" y="705" type="curve" smooth="yes"/>
      <point x="134" y="705"/>
      <point x="66" y="706"/>
      <point x="28" y="708" type="curve"/>
      <point x="28" y="688" type="line"/>
      <point x="88" y="685"/>
      <point x="99" y="675"/>
      <point x="99" y="602" type="curve" smooth="yes"/>
      <point x="99" y="106" type="line" smooth="yes"/>
      <point x="99" y="33"/>
      <point x="89" y="23"/>
      <point x="28" y="20" type="curve"/>
      <point x="28" y="0" type="line"/>
      <point x="66" y="2"/>
      <point x="134" y="3"/>
      <point x="206" y="3" type="curve" smooth="yes"/>
      <point x="268" y="3"/>
      <point x="334" y="2"/>
      <point x="373" y="0" type="curve"/>
      <point x="373" y="20" type="line"/>
      <point x="313" y="23"/>
      <point x="302" y="33"/>
      <point x="302" y="106" type="curve" smooth="yes"/>
      <point x="302" y="602" type="line" smooth="yes"/>
      <point x="302" y="675"/>
      <point x="312" y="685"/>
      <point x="373" y="688" type="curve"/>
      <point x="373" y="708" type="line"/>
    </contour>
    <contour>
      <point x="206" y="0" type="move" name="bottom"/>
    </contour>
    <contour>
      <point x="349" y="0" type="move" name="ogonek"/>
    </contour>
    <contour>
      <point x="206" y="708" type="move" name="top"/>
    </contour>
  </outline>
</glyph>
<glyph name="J" format="1">
  <advance width="390"/>
  <unicode hex="004A"/>
  <outline>
    <contour>
      <point x="-25" y="-188" type="line"/>
      <point x="152" y="-188"/>
      <point x="250" y="-117"/>
      <point x="280" y="-25" type="curve" smooth="yes"/>
      <point x="302" y="44"/>
      <point x="297" y="153"/>
      <point x="297" y="236" type="curve" smooth="yes"/>
      <point x="297" y="602" type="line" smooth="yes"/>
      <point x="297" y="675"/>
      <point x="307" y="685"/>
      <point x="368" y="688" type="curve"/>
      <point x="368" y="708" type="line"/>
      <point x="327" y="706"/>
      <point x="257" y="705"/>
      <point x="190" y="705" type="curve" smooth="yes"/>
      <point x="123" y="705"/>
      <point x="59" y="706"/>
      <point x="23" y="708" type="curve"/>
      <point x="23" y="688" type="line"/>
      <point x="83" y="685"/>
      <point x="94" y="675"/>
      <point x="94" y="602" type="curve" smooth="yes"/>
      <point x="94" y="55" type="line" smooth="yes"/>
      <point x="94" y="-120"/>
      <point x="47" y="-157"/>
      <point x="-25" y="-167" type="curve"/>
    </contour>
    <contour>
      <point x="170" y="-181" type="move" name="bottom"/>
    </contour>
    <contour>
      <point x="191" y="708" type="move" name="top"/>
    </contour>
  </outline>
</glyph>
<glyph name="K" format="1">
  <advance width="754"/>
  <unicode hex="004B"/>
  <outline>
    <contour>
      <point x="712" y="706"/>
      <point x="681" y="705"/>
      <point x="638" y="705" type="curve" smooth="yes"/>
      <point x="563" y="705"/>
      <point x="525" y="706"/>
      <point x="469" y="708" type="curve"/>
      <point x="469" y="689" type="line"/>
      <point x="544" y="686"/>
      <point x="590" y="626"/>
      <point x="507" y="533" type="curve" smooth="yes"/>
      <point x="473" y="495" type="line" smooth="yes"/>
      <point x="399" y="412"/>
      <point x="354" y="378"/>
      <point x="296" y="376" type="curve"/>
      <point x="296" y="355" type="line"/>
      <point x="319" y="353"/>
      <point x="328" y="345"/>
      <point x="349" y="310" type="curve" smooth="yes"/>
      <point x="494" y="65" type="line" smooth="yes"/>
      <point x="514" y="31"/>
      <point x="509" y="23"/>
      <point x="447" y="20" type="curve"/>
      <point x="447" y="0" type="line"/>
      <point x="516" y="3"/>
      <point x="559" y="3"/>
      <point x="590" y="3" type="curve" smooth="yes"/>
      <point x="647" y="3"/>
      <point x="714" y="2"/>
      <point x="770" y="0" type="curve"/>
      <point x="770" y="20" type="line"/>
      <point x="740" y="36"/>
      <point x="726" y="53"/>
      <point x="709" y="81" type="curve" smooth="yes"/>
      <point x="472" y="476" type="line"/>
      <point x="391" y="370" type="line"/>
      <point x="575" y="579" type="line" smooth="yes"/>
      <point x="638" y="650"/>
      <point x="694" y="677"/>
      <point x="739" y="689" type="curve"/>
      <point x="739" y="708" type="line"/>
    </contour>
    <contour>
      <point x="334" y="706"/>
      <point x="268" y="705"/>
      <point x="206" y="705" type="curve" smooth="yes"/>
      <point x="134" y="705"/>
      <point x="66" y="706"/>
      <point x="28" y="708" type="curve"/>
      <point x="28" y="688" type="line"/>
      <point x="88" y="685"/>
      <point x="99" y="675"/>
      <point x="99" y="602" type="curve" smooth="yes"/>
      <point x="99" y="106" type="line" smooth="yes"/>
      <point x="99" y="33"/>
      <point x="89" y="23"/>
      <point x="28" y="20" type="curve"/>
      <point x="28" y="0" type="line"/>
      <point x="66" y="2"/>
      <point x="134" y="3"/>
      <point x="206" y="3" type="curve" smooth="yes"/>
      <point x="268" y="3"/>
      <point x="334" y="2"/>
      <point x="373" y="0" type="curve"/>
      <point x="373" y="20" type="line"/>
      <point x="313" y="23"/>
      <point x="302" y="33"/>
      <point x="302" y="106" type="curve" smooth="yes"/>
      <point x="302" y="602" type="line" smooth="yes"/>
      <point x="302" y="675"/>
      <point x="312" y="685"/>
      <point x="373" y="688" type="curve"/>
      <point x="373" y="708" type="line"/>
    </contour>
    <contour>
      <point x="432" y="0" type="move" name="bottom"/>
    </contour>
    <contour>
      <point x="431" y="708" type="move" name="top"/>
    </contour>
  </outline>
</glyph>
<glyph name="L" format="1">
  <advance width="626"/>
  <unicode hex="004C"/>
  <outline>
    <contour>
      <point x="342" y="706"/>
      <point x="272" y="705"/>
      <point x="206" y="705" type="curve" smooth="yes"/>
      <point x="134" y="705"/>
      <point x="66" y="706"/>
      <point x="28" y="708" type="curve"/>
      <point x="28" y="688" type="line"/>
      <point x="88" y="685"/>
      <point x="99" y="675"/>
      <point x="99" y="602" type="curve" smooth="yes"/>
      <point x="99" y="106" type="line" smooth="yes"/>
      <point x="99" y="33"/>
      <point x="89" y="23"/>
      <point x="28" y="20" type="curve"/>
      <point x="28" y="0" type="line"/>
      <point x="144" y="3"/>
      <point x="306" y="3"/>
      <point x="378" y="3" type="curve" smooth="yes"/>
      <point x="445" y="3"/>
      <point x="539" y="3"/>
      <point x="607" y="0" type="curve"/>
      <point x="600" y="70"/>
      <point x="600" y="143"/>
      <point x="600" y="178" type="curve" smooth="yes"/>
      <point x="600" y="214"/>
      <point x="601" y="246"/>
      <point x="603" y="270" type="curve"/>
      <point x="580" y="270" type="line"/>
      <point x="557" y="141"/>
      <point x="456" y="23"/>
      <point x="386" y="23" type="curve" smooth="yes"/>
      <point x="353" y="23" type="line" smooth="yes"/>
      <point x="310" y="23"/>
      <point x="302" y="31"/>
      <point x="302" y="86" type="curve" smooth="yes"/>
      <point x="302" y="602" type="line" smooth="yes"/>
      <point x="302" y="675"/>
      <point x="315" y="685"/>
      <point x="383" y="688" type="curve"/>
      <point x="383" y="708" type="line"/>
    </contour>
    <contour>
      <point x="368" y="0" type="move" name="bottom"/>
    </contour>
    <contour>
      <point x="333" y="708" type="move" name="right"/>
    </contour>
    <contour>
      <point x="206" y="708" type="move" name="top"/>
    </contour>
  </outline>
</glyph>
<glyph name="M" format="1">
  <advance width="965"/>
  <unicode hex="004D"/>
  <outline>
    <contour>
      <point x="896" y="706"/>
      <point x="826" y="705"/>
      <point x="760" y="705" type="curve" smooth="yes"/>
      <point x="732" y="705"/>
      <point x="700" y="705"/>
      <point x="673" y="705" type="curve"/>
      <point x="488" y="229" type="line"/>
      <point x="518" y="262" type="line"/>
      <point x="320" y="708" type="line"/>
      <point x="262" y="706"/>
      <point x="190" y="705"/>
      <point x="113" y="705" type="curve" smooth="yes"/>
      <point x="83" y="705"/>
      <point x="50" y="706"/>
      <point x="30" y="708" type="curve"/>
      <point x="30" y="688" type="line"/>
      <point x="90" y="685"/>
      <point x="101" y="675"/>
      <point x="101" y="602" type="curve" smooth="yes"/>
      <point x="101" y="176" type="line" smooth="yes"/>
      <point x="101" y="63"/>
      <point x="91" y="33"/>
      <point x="30" y="20" type="curve"/>
      <point x="30" y="0" type="line"/>
      <point x="50" y="2"/>
      <point x="83" y="3"/>
      <point x="113" y="3" type="curve" smooth="yes"/>
      <point x="150" y="3"/>
      <point x="198" y="2"/>
      <point x="225" y="0" type="curve"/>
      <point x="225" y="20" type="line"/>
      <point x="130" y="33"/>
      <point x="124" y="62"/>
      <point x="124" y="196" type="curve" smooth="yes"/>
      <point x="124" y="643" type="line"/>
      <point x="406" y="1" type="line"/>
      <point x="422" y="1" type="line"/>
      <point x="673" y="643" type="line"/>
      <point x="663" y="641" type="line"/>
      <point x="663" y="106" type="line" smooth="yes"/>
      <point x="663" y="33"/>
      <point x="650" y="23"/>
      <point x="582" y="20" type="curve"/>
      <point x="582" y="0" type="line"/>
      <point x="620" y="2"/>
      <point x="688" y="3"/>
      <point x="760" y="3" type="curve" smooth="yes"/>
      <point x="826" y="3"/>
      <point x="896" y="2"/>
      <point x="937" y="0" type="curve"/>
      <point x="937" y="20" type="line"/>
      <point x="877" y="23"/>
      <point x="866" y="33"/>
      <point x="866" y="106" type="curve" smooth="yes"/>
      <point x="866" y="602" type="line" smooth="yes"/>
      <point x="866" y="675"/>
      <point x="876" y="685"/>
      <point x="937" y="688" type="curve"/>
      <point x="937" y="708" type="line"/>
    </contour>
  </outline>
</glyph>
<glyph name="N" format="1">
  <advance width="732"/>
  <unicode hex="004E"/>
  <outline>
    <contour>
      <point x="688" y="706"/>
      <point x="655" y="705"/>
      <point x="625" y="705" type="curve" smooth="yes"/>
      <point x="588" y="705"/>
      <point x="540" y="706"/>
      <point x="513" y="708" type="curve"/>
      <point x="513" y="688" type="line"/>
      <point x="608" y="675"/>
      <point x="614" y="646"/>
      <point x="614" y="512" type="curve" smooth="yes"/>
      <point x="614" y="276" type="line"/>
      <point x="205" y="708" type="line"/>
      <point x="180" y="706"/>
      <point x="146" y="705"/>
      <point x="113" y="705" type="curve" smooth="yes"/>
      <point x="83" y="705"/>
      <point x="50" y="706"/>
      <point x="30" y="708" type="curve"/>
      <point x="30" y="688" type="line"/>
      <point x="90" y="685"/>
      <point x="101" y="675"/>
      <point x="101" y="602" type="curve" smooth="yes"/>
      <point x="101" y="176" type="line" smooth="yes"/>
      <point x="101" y="63"/>
      <point x="91" y="33"/>
      <point x="30" y="20" type="curve"/>
      <point x="30" y="0" type="line"/>
      <point x="50" y="2"/>
      <point x="83" y="3"/>
      <point x="113" y="3" type="curve" smooth="yes"/>
      <point x="150" y="3"/>
      <point x="198" y="2"/>
      <point x="225" y="0" type="curve"/>
      <point x="225" y="20" type="line"/>
      <point x="130" y="33"/>
      <point x="124" y="62"/>
      <point x="124" y="196" type="curve" smooth="yes"/>
      <point x="124" y="484" type="line"/>
      <point x="567" y="0" type="line"/>
      <point x="593" y="2"/>
      <point x="617" y="2"/>
      <point x="637" y="0" type="curve"/>
      <point x="637" y="532" type="line" smooth="yes"/>
      <point x="637" y="645"/>
      <point x="647" y="675"/>
      <point x="708" y="688" type="curve"/>
      <point x="708" y="708" type="line"/>
    </contour>
    <contour>
      <point x="382" y="708" type="move" name="top"/>
    </contour>
    <contour>
      <point x="375" y="0" type="move" name="bottom"/>
    </contour>
  </outline>
</glyph>
<glyph name="O" format="1">
  <advance width="827"/>
  <unicode hex="004F"/>
  <outline>
    <contour>
      <point x="192" y="722"/>
      <point x="36" y="572"/>
      <point x="36" y="348" type="curve" smooth="yes"/>
      <point x="36" y="119"/>
      <point x="187" y="-14"/>
      <point x="413" y="-14" type="curve" smooth="yes"/>
      <point x="635" y="-14"/>
      <point x="791" y="136"/>
      <point x="791" y="360" type="curve" smooth="yes"/>
      <point x="791" y="589"/>
      <point x="640" y="722"/>
      <point x="414" y="722" type="curve" smooth="yes"/>
    </contour>
    <contour>
      <point x="504" y="704"/>
      <point x="581" y="569"/>
      <point x="581" y="356" type="curve" smooth="yes"/>
      <point x="581" y="149"/>
      <point x="517" y="4"/>
      <point x="417" y="4" type="curve" smooth="yes"/>
      <point x="323" y="4"/>
      <point x="246" y="139"/>
      <point x="246" y="352" type="curve" smooth="yes"/>
      <point x="246" y="559"/>
      <point x="310" y="704"/>
      <point x="410" y="704" type="curve" smooth="yes"/>
    </contour>
    <contour>
      <point x="415" y="0" type="move" name="bottom"/>
    </contour>
    <contour>
      <point x="412" y="708" type="move" name="top"/>
    </contour>
  </outline>
</glyph>
<glyph name="P" format="1">
  <advance width="678"/>
  <unicode hex="0050"/>
  <outline>
    <contour>
      <point x="28" y="688" type="line"/>
      <point x="88" y="685"/>
      <point x="99" y="675"/>
      <point x="99" y="602" type="curve" smooth="yes"/>
      <point x="99" y="106" type="line" smooth="yes"/>
      <point x="99" y="33"/>
      <point x="89" y="23"/>
      <point x="28" y="20" type="curve"/>
      <point x="28" y="0" type="line"/>
      <point x="82" y="1"/>
      <point x="146" y="3"/>
      <point x="207" y="3" type="curve" smooth="yes"/>
      <point x="290" y="3"/>
      <point x="368" y="1"/>
      <point x="413" y="0" type="curve"/>
      <point x="413" y="23" type="line"/>
      <point x="321" y="23"/>
      <point x="302" y="34"/>
      <point x="302" y="116" type="curve" smooth="yes"/>
      <point x="302" y="602" type="line" smooth="yes"/>
      <point x="302" y="671"/>
      <point x="311" y="688"/>
      <point x="356" y="688" type="curve" smooth="yes"/>
      <point x="427" y="688"/>
      <point x="452" y="625"/>
      <point x="452" y="499" type="curve" smooth="yes"/>
      <point x="452" y="397"/>
      <point x="431" y="306"/>
      <point x="329" y="306" type="curve" smooth="yes"/>
      <point x="233" y="306" type="line"/>
      <point x="233" y="306"/>
      <point x="233" y="286"/>
      <point x="233" y="286" type="curve"/>
      <point x="339" y="286" type="line" smooth="yes"/>
      <point x="594" y="286"/>
      <point x="662" y="413"/>
      <point x="662" y="510" type="curve" smooth="yes"/>
      <point x="662" y="626"/>
      <point x="564" y="707"/>
      <point x="361" y="707" type="curve" smooth="yes"/>
      <point x="335" y="707"/>
      <point x="267" y="705"/>
      <point x="200" y="705" type="curve" smooth="yes"/>
      <point x="136" y="705"/>
      <point x="66" y="706"/>
      <point x="28" y="708" type="curve"/>
    </contour>
    <contour>
      <point x="206" y="0" type="move" name="bottom"/>
    </contour>
    <contour>
      <point x="355" y="708" type="move" name="top"/>
    </contour>
  </outline>
</glyph>
<glyph name="Q" format="1">
  <advance width="827"/>
  <unicode hex="0051"/>
  <outline>
    <contour>
      <point x="741" y="-15"/>
      <point x="703" y="-36"/>
      <point x="630" y="-52" type="curve" smooth="yes"/>
      <point x="539" y="-71"/>
      <point x="446" y="-67"/>
      <point x="275" y="-62" type="curve"/>
      <point x="338" y="-45"/>
      <point x="369" y="-20"/>
      <point x="433" y="-13" type="curve"/>
      <point x="432" y="3" type="line"/>
      <point x="349" y="-4"/>
      <point x="315" y="-38"/>
      <point x="240" y="-57" type="curve"/>
      <point x="215" y="-46"/>
      <point x="186" y="-39"/>
      <point x="164" y="-39" type="curve" smooth="yes"/>
      <point x="127" y="-39"/>
      <point x="109" y="-51"/>
      <point x="109" y="-70" type="curve" smooth="yes"/>
      <point x="109" y="-91"/>
      <point x="129" y="-100"/>
      <point x="156" y="-100" type="curve" smooth="yes"/>
      <point x="182" y="-100"/>
      <point x="214" y="-90"/>
      <point x="240" y="-75" type="curve"/>
      <point x="245" y="-75"/>
      <point x="256" y="-79"/>
      <point x="264" y="-82" type="curve" smooth="yes"/>
      <point x="379" y="-130"/>
      <point x="483" y="-188"/>
      <point x="596" y="-188" type="curve" smooth="yes"/>
      <point x="643" y="-188"/>
      <point x="691" y="-176"/>
      <point x="721" y="-153" type="curve" smooth="yes"/>
      <point x="763" y="-121"/>
      <point x="787" y="-55"/>
      <point x="794" y="31" type="curve"/>
      <point x="775" y="36" type="line"/>
    </contour>
    <component base="O"/>
    <contour>
      <point x="410" y="708" type="move" name="top"/>
    </contour>
  </outline>
</glyph>
<glyph name="R" format="1">
  <advance width="721"/>
  <unicode hex="0052"/>
  <outline>
    <contour>
      <point x="28" y="688" type="line"/>
      <point x="88" y="685"/>
      <point x="99" y="675"/>
      <point x="99" y="602" type="curve" smooth="yes"/>
      <point x="99" y="106" type="line" smooth="yes"/>
      <point x="99" y="33"/>
      <point x="89" y="23"/>
      <point x="28" y="20" type="curve"/>
      <point x="28" y="0" type="line"/>
      <point x="66" y="2"/>
      <point x="134" y="3"/>
      <point x="206" y="3" type="curve" smooth="yes"/>
      <point x="268" y="3"/>
      <point x="334" y="2"/>
      <point x="373" y="0" type="curve"/>
      <point x="373" y="20" type="line"/>
      <point x="313" y="23"/>
      <point x="302" y="33"/>
      <point x="302" y="106" type="curve" smooth="yes"/>
      <point x="302" y="602" type="line" smooth="yes"/>
      <point x="302" y="671"/>
      <point x="311" y="688"/>
      <point x="356" y="688" type="curve" smooth="yes"/>
      <point x="427" y="688"/>
      <point x="452" y="627"/>
      <point x="452" y="522" type="curve" smooth="yes"/>
      <point x="452" y="430"/>
      <point x="431" y="356"/>
      <point x="329" y="356" type="curve" smooth="yes"/>
      <point x="243" y="356" type="line"/>
      <point x="243" y="356"/>
      <point x="243" y="336"/>
      <point x="243" y="336" type="curve"/>
      <point x="339" y="336" type="line" smooth="yes"/>
      <point x="594" y="336"/>
      <point x="662" y="434"/>
      <point x="662" y="533" type="curve" smooth="yes"/>
      <point x="662" y="651"/>
      <point x="564" y="707"/>
      <point x="361" y="707" type="curve" smooth="yes"/>
      <point x="335" y="707"/>
      <point x="267" y="705"/>
      <point x="200" y="705" type="curve" smooth="yes"/>
      <point x="136" y="705"/>
      <point x="66" y="706"/>
      <point x="28" y="708" type="curve"/>
    </contour>
    <contour>
      <point x="239" y="336" type="line"/>
      <point x="347" y="336" type="line" smooth="yes"/>
      <point x="398" y="336"/>
      <point x="415" y="276"/>
      <point x="427" y="194" type="curve" smooth="yes"/>
      <point x="442" y="94" type="line" smooth="yes"/>
      <point x="454" y="12"/>
      <point x="509" y="-14"/>
      <point x="596" y="-14" type="curve" smooth="yes"/>
      <point x="657" y="-14"/>
      <point x="705" y="-1"/>
      <point x="746" y="40" type="curve"/>
      <point x="733" y="53" type="line"/>
      <point x="724" y="44"/>
      <point x="715" y="40"/>
      <point x="702" y="40" type="curve" smooth="yes"/>
      <point x="679" y="40"/>
      <point x="667" y="55"/>
      <point x="657" y="105" type="curve" smooth="yes"/>
      <point x="636" y="209" type="line" smooth="yes"/>
      <point x="620" y="292"/>
      <point x="552" y="333"/>
      <point x="410" y="340" type="curve" smooth="yes"/>
      <point x="371" y="342"/>
      <point x="308" y="350"/>
      <point x="237" y="353" type="curve"/>
    </contour>
    <contour>
      <point x="383" y="0" type="move" name="bottom"/>
    </contour>
    <contour>
      <point x="342" y="708" type="move" name="top"/>
    </contour>
  </outline>
</glyph>
<glyph name="S" format="1">
  <advance width="613"/>
  <unicode hex="0053"/>
  <outline>
    <contour>
      <point x="173" y="722"/>
      <point x="54" y="664"/>
      <point x="54" y="533" type="curve" smooth="yes"/>
      <point x="54" y="423"/>
      <point x="137" y="365"/>
      <point x="232" y="302" type="curve" smooth="yes"/>
      <point x="317" y="245"/>
      <point x="378" y="197"/>
      <point x="378" y="114" type="curve" smooth="yes"/>
      <point x="378" y="52"/>
      <point x="331" y="16"/>
      <point x="258" y="16" type="curve" smooth="yes"/>
      <point x="130" y="16"/>
      <point x="84" y="142"/>
      <point x="76" y="283" type="curve"/>
      <point x="53" y="283" type="line"/>
      <point x="53" y="112"/>
      <point x="52" y="44"/>
      <point x="49" y="-7" type="curve"/>
      <point x="72" y="-7" type="line"/>
      <point x="76" y="22"/>
      <point x="81" y="37"/>
      <point x="94" y="37" type="curve" smooth="yes"/>
      <point x="102" y="37"/>
      <point x="112" y="33"/>
      <point x="128" y="23" type="curve" smooth="yes"/>
      <point x="165" y="5"/>
      <point x="214" y="-14"/>
      <point x="305" y="-14" type="curve" smooth="yes"/>
      <point x="451" y="-14"/>
      <point x="577" y="49"/>
      <point x="577" y="184" type="curve" smooth="yes"/>
      <point x="577" y="293"/>
      <point x="504" y="348"/>
      <point x="415" y="410" type="curve" smooth="yes"/>
      <point x="289" y="498"/>
      <point x="239" y="528"/>
      <point x="239" y="602" type="curve" smooth="yes"/>
      <point x="239" y="662"/>
      <point x="282" y="695"/>
      <point x="341" y="695" type="curve" smooth="yes"/>
      <point x="445" y="695"/>
      <point x="508" y="578"/>
      <point x="515" y="468" type="curve"/>
      <point x="538" y="468" type="line"/>
      <point x="538" y="618"/>
      <point x="540" y="669"/>
      <point x="543" y="712" type="curve"/>
      <point x="520" y="712" type="line"/>
      <point x="516" y="683"/>
      <point x="511" y="668"/>
      <point x="498" y="668" type="curve" smooth="yes"/>
      <point x="489" y="668"/>
      <point x="480" y="673"/>
      <point x="464" y="682" type="curve" smooth="yes"/>
      <point x="430" y="701"/>
      <point x="388" y="722"/>
      <point x="302" y="722" type="curve" smooth="yes"/>
    </contour>
    <contour>
      <point x="312" y="0" type="move" name="bottom"/>
    </contour>
    <contour>
      <point x="313" y="708" type="move" name="top"/>
    </contour>
  </outline>
</glyph>
<glyph name="T" format="1">
  <advance width="699"/>
  <unicode hex="0054"/>
  <outline>
    <contour>
      <point x="581" y="705"/>
      <point x="444" y="705"/>
      <point x="350" y="705" type="curve" smooth="yes"/>
      <point x="256" y="705"/>
      <point x="118" y="705"/>
      <point x="23" y="708" type="curve"/>
      <point x="28" y="629"/>
      <point x="30" y="549"/>
      <point x="30" y="510" type="curve" smooth="yes"/>
      <point x="30" y="482"/>
      <point x="29" y="455"/>
      <point x="27" y="438" type="curve"/>
      <point x="50" y="438" type="line"/>
      <point x="97" y="627"/>
      <point x="174" y="685"/>
      <point x="247" y="685" type="curve" smooth="yes"/>
      <point x="248" y="685" type="line"/>
      <point x="248" y="113" type="line" smooth="yes"/>
      <point x="248" y="31"/>
      <point x="229" y="20"/>
      <point x="137" y="20" type="curve"/>
      <point x="137" y="0" type="line"/>
      <point x="182" y="1"/>
      <point x="260" y="3"/>
      <point x="343" y="3" type="curve" smooth="yes"/>
      <point x="430" y="3"/>
      <point x="515" y="1"/>
      <point x="562" y="0" type="curve"/>
      <point x="562" y="20" type="line"/>
      <point x="470" y="20"/>
      <point x="451" y="31"/>
      <point x="451" y="113" type="curve" smooth="yes"/>
      <point x="451" y="685" type="line"/>
      <point x="452" y="685" type="line" smooth="yes"/>
      <point x="524" y="685"/>
      <point x="602" y="626"/>
      <point x="649" y="438" type="curve"/>
      <point x="672" y="438" type="line"/>
      <point x="670" y="455"/>
      <point x="669" y="482"/>
      <point x="669" y="510" type="curve" smooth="yes"/>
      <point x="669" y="549"/>
      <point x="671" y="629"/>
      <point x="676" y="708" type="curve"/>
    </contour>
    <contour>
      <point x="346" y="0" type="move" name="bottom"/>
    </contour>
    <contour>
      <point x="350" y="354" type="move" name="center"/>
    </contour>
    <contour>
      <point x="350" y="708" type="move" name="top"/>
    </contour>
  </outline>
</glyph>
<glyph name="U" format="1">
  <advance width="693"/>
  <unicode hex="0055"/>
  <outline>
    <contour>
      <point x="661" y="706"/>
      <point x="628" y="705"/>
      <point x="598" y="705" type="curve" smooth="yes"/>
      <point x="561" y="705"/>
      <point x="513" y="706"/>
      <point x="486" y="708" type="curve"/>
      <point x="486" y="688" type="line"/>
      <point x="581" y="675"/>
      <point x="587" y="646"/>
      <point x="587" y="512" type="curve" smooth="yes"/>
      <point x="587" y="280" type="line" smooth="yes"/>
      <point x="587" y="126"/>
      <point x="546" y="21"/>
      <point x="412" y="21" type="curve" smooth="yes"/>
      <point x="329" y="21"/>
      <point x="287" y="62"/>
      <point x="287" y="194" type="curve" smooth="yes"/>
      <point x="287" y="602" type="line" smooth="yes"/>
      <point x="287" y="675"/>
      <point x="300" y="685"/>
      <point x="368" y="688" type="curve"/>
      <point x="368" y="708" type="line"/>
      <point x="327" y="706"/>
      <point x="258" y="705"/>
      <point x="189" y="705" type="curve" smooth="yes"/>
      <point x="120" y="705"/>
      <point x="51" y="706"/>
      <point x="13" y="708" type="curve"/>
      <point x="13" y="688" type="line"/>
      <point x="74" y="685"/>
      <point x="84" y="675"/>
      <point x="84" y="602" type="curve" smooth="yes"/>
      <point x="84" y="288" type="line" smooth="yes"/>
      <point x="84" y="165"/>
      <point x="97" y="84"/>
      <point x="166" y="34" type="curve" smooth="yes"/>
      <point x="219" y="-4"/>
      <point x="293" y="-14"/>
      <point x="354" y="-14" type="curve" smooth="yes"/>
      <point x="469" y="-14"/>
      <point x="534" y="21"/>
      <point x="569" y="79" type="curve" smooth="yes"/>
      <point x="601" y="132"/>
      <point x="610" y="208"/>
      <point x="610" y="291" type="curve" smooth="yes"/>
      <point x="610" y="532" type="line" smooth="yes"/>
      <point x="610" y="645"/>
      <point x="620" y="675"/>
      <point x="681" y="688" type="curve"/>
      <point x="681" y="708" type="line"/>
    </contour>
    <contour>
      <point x="396" y="0" type="move" name="bottom"/>
    </contour>
    <contour>
      <point x="467" y="0" type="move" name="ogonek"/>
    </contour>
    <contour>
      <point x="361" y="708" type="move" name="top"/>
    </contour>
  </outline>
</glyph>
<glyph name="V" format="1">
  <advance width="693"/>
  <unicode hex="0056"/>
  <outline>
    <contour>
      <point x="685" y="706"/>
      <point x="654" y="705"/>
      <point x="628" y="705" type="curve" smooth="yes"/>
      <point x="582" y="705"/>
      <point x="547" y="706"/>
      <point x="497" y="708" type="curve"/>
      <point x="497" y="688" type="line"/>
      <point x="577" y="685"/>
      <point x="608" y="625"/>
      <point x="546" y="450" type="curve" smooth="yes"/>
      <point x="432" y="130" type="line"/>
      <point x="456" y="161" type="line"/>
      <point x="276" y="604" type="line" smooth="yes"/>
      <point x="247" y="676"/>
      <point x="271" y="685"/>
      <point x="334" y="688" type="curve"/>
      <point x="334" y="708" type="line"/>
      <point x="298" y="706"/>
      <point x="234" y="705"/>
      <point x="166" y="705" type="curve" smooth="yes"/>
      <point x="100" y="705"/>
      <point x="32" y="706"/>
      <point x="-16" y="708" type="curve"/>
      <point x="-16" y="688" type="line"/>
      <point x="2" y="687"/>
      <point x="24" y="670"/>
      <point x="43" y="624" type="curve" smooth="yes"/>
      <point x="305" y="0" type="line"/>
      <point x="321" y="1"/>
      <point x="339" y="2"/>
      <point x="357" y="2" type="curve" smooth="yes"/>
      <point x="375" y="2"/>
      <point x="394" y="1"/>
      <point x="410" y="0" type="curve"/>
      <point x="605" y="548" type="line" smooth="yes"/>
      <point x="635" y="633"/>
      <point x="674" y="673"/>
      <point x="705" y="688" type="curve"/>
      <point x="705" y="708" type="line"/>
    </contour>
  </outline>
</glyph>
<glyph name="W" format="1">
  <advance width="1010"/>
  <unicode hex="0057"/>
  <outline>
    <contour>
      <point x="998" y="706"/>
      <point x="967" y="705"/>
      <point x="941" y="705" type="curve" smooth="yes"/>
      <point x="895" y="705"/>
      <point x="860" y="706"/>
      <point x="810" y="708" type="curve"/>
      <point x="810" y="688" type="line"/>
      <point x="890" y="685"/>
      <point x="925" y="627"/>
      <point x="870" y="450" type="curve" smooth="yes"/>
      <point x="769" y="127" type="line"/>
      <point x="798" y="188" type="line"/>
      <point x="661" y="604" type="line" smooth="yes"/>
      <point x="637" y="674"/>
      <point x="656" y="686"/>
      <point x="719" y="688" type="curve"/>
      <point x="719" y="708" type="line"/>
      <point x="685" y="706"/>
      <point x="627" y="705"/>
      <point x="564" y="705" type="curve" smooth="yes"/>
      <point x="501" y="705"/>
      <point x="436" y="706"/>
      <point x="391" y="708" type="curve"/>
      <point x="391" y="688" type="line"/>
      <point x="414" y="686"/>
      <point x="431" y="676"/>
      <point x="442" y="641" type="curve" smooth="yes"/>
      <point x="652" y="0" type="line"/>
      <point x="668" y="1"/>
      <point x="686" y="2"/>
      <point x="704" y="2" type="curve" smooth="yes"/>
      <point x="722" y="2"/>
      <point x="741" y="1"/>
      <point x="757" y="0" type="curve"/>
      <point x="925" y="548" type="line" smooth="yes"/>
      <point x="951" y="634"/>
      <point x="987" y="673"/>
      <point x="1018" y="688" type="curve"/>
      <point x="1018" y="708" type="line"/>
    </contour>
    <contour>
      <point x="267" y="706"/>
      <point x="221" y="705"/>
      <point x="162" y="705" type="curve" smooth="yes"/>
      <point x="103" y="705"/>
      <point x="33" y="706"/>
      <point x="-15" y="708" type="curve"/>
      <point x="-15" y="688" type="line"/>
      <point x="3" y="687"/>
      <point x="27" y="670"/>
      <point x="44" y="624" type="curve" smooth="yes"/>
      <point x="276" y="0" type="line"/>
      <point x="292" y="1"/>
      <point x="310" y="2"/>
      <point x="328" y="2" type="curve" smooth="yes"/>
      <point x="346" y="2"/>
      <point x="365" y="1"/>
      <point x="381" y="0" type="curve"/>
      <point x="534" y="432" type="line"/>
      <point x="520" y="461" type="line"/>
      <point x="400" y="136" type="line"/>
      <point x="428" y="179" type="line"/>
      <point x="277" y="604" type="line" smooth="yes"/>
      <point x="266" y="634"/>
      <point x="260" y="681"/>
      <point x="295" y="688" type="curve"/>
      <point x="295" y="708" type="line"/>
    </contour>
    <contour>
      <point x="525" y="708" type="move" name="top"/>
    </contour>
  </outline>
</glyph>
<glyph name="X" format="1">
  <advance width="729"/>
  <unicode hex="0058"/>
  <outline>
    <contour>
      <point x="305" y="708"/>
      <point x="237" y="705"/>
      <point x="175" y="705" type="curve" smooth="yes"/>
      <point x="105" y="705"/>
      <point x="29" y="708"/>
      <point x="-6" y="709" type="curve"/>
      <point x="-6" y="688" type="line"/>
      <point x="20" y="686"/>
      <point x="29" y="676"/>
      <point x="56" y="638" type="curve" smooth="yes"/>
      <point x="464" y="55" type="line" smooth="yes"/>
      <point x="483" y="28"/>
      <point x="465" y="21"/>
      <point x="409" y="21" type="curve"/>
      <point x="409" y="0" type="line"/>
      <point x="442" y="1"/>
      <point x="517" y="4"/>
      <point x="583" y="4" type="curve" smooth="yes"/>
      <point x="649" y="4"/>
      <point x="721" y="1"/>
      <point x="754" y="0" type="curve"/>
      <point x="754" y="21" type="line"/>
      <point x="728" y="23"/>
      <point x="719" y="33"/>
      <point x="692" y="71" type="curve" smooth="yes"/>
      <point x="281" y="654" type="line" smooth="yes"/>
      <point x="262" y="681"/>
      <point x="280" y="688"/>
      <point x="336" y="688" type="curve"/>
      <point x="336" y="709" type="line"/>
    </contour>
    <contour>
      <point x="164" y="162" type="line" smooth="yes"/>
      <point x="105" y="89"/>
      <point x="48" y="41"/>
      <point x="-2" y="20" type="curve"/>
      <point x="-2" y="0" type="line"/>
      <point x="20" y="2"/>
      <point x="54" y="3"/>
      <point x="95" y="3" type="curve" smooth="yes"/>
      <point x="127" y="3"/>
      <point x="230" y="2"/>
      <point x="268" y="0" type="curve"/>
      <point x="268" y="20" type="line"/>
      <point x="178" y="27"/>
      <point x="151" y="111"/>
      <point x="236" y="217" type="curve" smooth="yes"/>
      <point x="322" y="324" type="line"/>
      <point x="322" y="324"/>
      <point x="314" y="350"/>
      <point x="314" y="350" type="curve"/>
    </contour>
    <contour>
      <point x="671" y="706"/>
      <point x="637" y="705"/>
      <point x="596" y="705" type="curve" smooth="yes"/>
      <point x="564" y="705"/>
      <point x="501" y="706"/>
      <point x="463" y="708" type="curve"/>
      <point x="463" y="688" type="line"/>
      <point x="543" y="681"/>
      <point x="561" y="608"/>
      <point x="483" y="518" type="curve" smooth="yes"/>
      <point x="387" y="400" type="line"/>
      <point x="387" y="400"/>
      <point x="395" y="375"/>
      <point x="395" y="375" type="curve"/>
      <point x="558" y="575" type="line" smooth="yes"/>
      <point x="595" y="621"/>
      <point x="647" y="671"/>
      <point x="693" y="688" type="curve"/>
      <point x="693" y="708" type="line"/>
    </contour>
  </outline>
</glyph>
<glyph name="Y" format="1">
  <advance width="644"/>
  <unicode hex="0059"/>
  <outline>
    <contour>
      <point x="616" y="707"/>
      <point x="585" y="706"/>
      <point x="559" y="706" type="curve" smooth="yes"/>
      <point x="513" y="706"/>
      <point x="478" y="707"/>
      <point x="428" y="709" type="curve"/>
      <point x="428" y="689" type="line"/>
      <point x="508" y="686"/>
      <point x="544" y="632"/>
      <point x="461" y="466" type="curve" smooth="yes"/>
      <point x="377" y="298" type="line"/>
      <point x="424" y="360" type="line"/>
      <point x="273" y="650" type="line" smooth="yes"/>
      <point x="254" y="687"/>
      <point x="299" y="688"/>
      <point x="349" y="688" type="curve"/>
      <point x="349" y="709" type="line"/>
      <point x="282" y="706"/>
      <point x="197" y="703"/>
      <point x="129" y="703" type="curve" smooth="yes"/>
      <point x="75" y="703"/>
      <point x="32" y="705"/>
      <point x="-9" y="709" type="curve"/>
      <point x="-9" y="688" type="line"/>
      <point x="5" y="688"/>
      <point x="26" y="674"/>
      <point x="49" y="632" type="curve" smooth="yes"/>
      <point x="283" y="199" type="line"/>
      <point x="350" y="199" type="line"/>
      <point x="530" y="556" type="line" smooth="yes"/>
      <point x="571" y="637"/>
      <point x="605" y="674"/>
      <point x="636" y="689" type="curve"/>
      <point x="636" y="709" type="line"/>
    </contour>
    <contour>
      <point x="343" y="249" type="line"/>
      <point x="234" y="311" type="line"/>
      <point x="234" y="106" type="line" smooth="yes"/>
      <point x="234" y="33"/>
      <point x="224" y="23"/>
      <point x="163" y="20" type="curve"/>
      <point x="163" y="0" type="line"/>
      <point x="199" y="2"/>
      <point x="268" y="3"/>
      <point x="336" y="3" type="curve" smooth="yes"/>
      <point x="398" y="3"/>
      <point x="469" y="2"/>
      <point x="508" y="0" type="curve"/>
      <point x="508" y="20" type="line"/>
      <point x="448" y="23"/>
      <point x="437" y="33"/>
      <point x="437" y="106" type="curve" smooth="yes"/>
      <point x="437" y="393" type="line"/>
    </contour>
    <contour>
      <point x="348" y="708" type="move" name="top"/>
    </contour>
  </outline>
</glyph>
<glyph name="bracketleft" format="1">
  <advance width="340"/>
  <unicode hex="005B"/>
  <outline>
    <contour>
      <point x="299" y="772" type="line"/>
      <point x="78" y="772" type="line"/>
      <point x="78" y="-181" type="line"/>
      <point x="299" y="-181" type="line"/>
      <point x="299" y="-162" type="line"/>
      <point x="258" y="-162" type="line"/>
      <point x="258" y="753" type="line"/>
      <point x="299" y="753" type="line"/>
    </contour>
  </outline>
</glyph>
<glyph name="a" format="1">
  <advance width="531"/>
  <unicode hex="0061"/>
  <outline>
    <contour>
      <point x="156" y="-7" type="curve" smooth="yes"/>
      <point x="224" y="-7"/>
      <point x="263" y="25"/>
      <point x="291" y="69" type="curve"/>
      <point x="293" y="29"/>
      <point x="314" y="-7"/>
      <point x="401" y="-7" type="curve" smooth="yes"/>
      <point x="449" y="-7"/>
      <point x="494" y="4"/>
      <point x="524" y="30" type="curve"/>
      <point x="514" y="47" type="line"/>
      <point x="505" y="40"/>
      <point x="495" y="32"/>
      <point x="484" y="32" type="curve" smooth="yes"/>
      <point x="472" y="32"/>
      <point x="468" y="42"/>
      <point x="468" y="75" type="curve" smooth="yes"/>
      <point x="468" y="343" type="line" smooth="yes"/>
      <point x="468" y="412"/>
      <point x="463" y="454"/>
      <point x="435" y="483" type="curve" smooth="yes"/>
      <point x="395" y="524"/>
      <point x="337" y="533"/>
      <point x="272" y="533" type="curve" smooth="yes"/>
      <point x="210" y="533"/>
      <point x="152" y="524"/>
      <point x="112" y="501" type="curve" smooth="yes"/>
      <point x="70" y="477"/>
      <point x="50" y="450"/>
      <point x="50" y="409" type="curve" smooth="yes"/>
      <point x="50" y="360"/>
      <point x="80" y="322"/>
      <point x="134" y="322" type="curve" smooth="yes"/>
      <point x="184" y="322"/>
      <point x="228" y="354"/>
      <point x="228" y="408" type="curve" smooth="yes"/>
      <point x="228" y="445"/>
      <point x="208" y="479"/>
      <point x="161" y="496" type="curve"/>
      <point x="176" y="506"/>
      <point x="195" y="513"/>
      <point x="217" y="513" type="curve" smooth="yes"/>
      <point x="276" y="513"/>
      <point x="288" y="463"/>
      <point x="288" y="431" type="curve" smooth="yes"/>
      <point x="288" y="342" type="line" smooth="yes"/>
      <point x="288" y="248"/>
      <point x="22" y="286"/>
      <point x="22" y="119" type="curve" smooth="yes"/>
      <point x="22" y="55"/>
      <point x="61" y="-7"/>
    </contour>
    <contour>
      <point x="251" y="73" type="curve" smooth="yes"/>
      <point x="222" y="73"/>
      <point x="200" y="91"/>
      <point x="200" y="142" type="curve" smooth="yes"/>
      <point x="200" y="228"/>
      <point x="263" y="256"/>
      <point x="288" y="301" type="curve"/>
      <point x="288" y="90" type="line"/>
      <point x="276" y="77"/>
      <point x="265" y="73"/>
    </contour>
    <contour>
      <point x="266" y="0" type="move" name="bottom"/>
    </contour>
    <contour>
      <point x="471" y="0" type="move" name="ogonek"/>
    </contour>
    <contour>
      <point x="269" y="519" type="move" name="top"/>
    </contour>
  </outline>
</glyph>
<glyph name="b" format="1">
  <advance width="601"/>
  <unicode hex="0062"/>
  <outline>
    <contour>
      <point x="327" y="533"/>
      <point x="274" y="509"/>
      <point x="243" y="458" type="curve"/>
      <point x="243" y="409" type="line" smooth="yes"/>
      <point x="243" y="451"/>
      <point x="278" y="481"/>
      <point x="315" y="481" type="curve" smooth="yes"/>
      <point x="352" y="481"/>
      <point x="382" y="436"/>
      <point x="382" y="259" type="curve" smooth="yes"/>
      <point x="382" y="90"/>
      <point x="352" y="6"/>
      <point x="290" y="6" type="curve" smooth="yes"/>
      <point x="271" y="6"/>
      <point x="248" y="12"/>
      <point x="231" y="26" type="curve"/>
      <point x="220" y="10" type="line"/>
      <point x="254" y="-12"/>
      <point x="290" y="-14"/>
      <point x="336" y="-14" type="curve" smooth="yes"/>
      <point x="461" y="-14"/>
      <point x="569" y="55"/>
      <point x="569" y="282" type="curve" smooth="yes"/>
      <point x="569" y="452"/>
      <point x="494" y="533"/>
      <point x="395" y="533" type="curve" smooth="yes"/>
    </contour>
    <contour>
      <point x="193" y="772"/>
      <point x="136" y="768"/>
      <point x="69" y="768" type="curve" smooth="yes"/>
      <point x="49" y="768"/>
      <point x="28" y="769"/>
      <point x="7" y="771" type="curve"/>
      <point x="7" y="750" type="line"/>
      <point x="49" y="750"/>
      <point x="63" y="722"/>
      <point x="63" y="662" type="curve" smooth="yes"/>
      <point x="63" y="49" type="line" smooth="yes"/>
      <point x="63" y="30"/>
      <point x="62" y="12"/>
      <point x="56" y="-6" type="curve"/>
      <point x="70" y="-16" type="line"/>
      <point x="99" y="11"/>
      <point x="177" y="25"/>
      <point x="243" y="-2" type="curve"/>
      <point x="243" y="782" type="line"/>
    </contour>
  </outline>
</glyph>
<glyph name="c" format="1">
  <advance width="503"/>
  <unicode hex="0063"/>
  <outline>
    <contour>
      <point x="142" y="533"/>
      <point x="30" y="451"/>
      <point x="30" y="259" type="curve" smooth="yes"/>
      <point x="30" y="57"/>
      <point x="137" y="-14"/>
      <point x="271" y="-14" type="curve" smooth="yes"/>
      <point x="390" y="-14"/>
      <point x="455" y="75"/>
      <point x="480" y="156" type="curve"/>
      <point x="463" y="162" type="line"/>
      <point x="419" y="101"/>
      <point x="369" y="95"/>
      <point x="342" y="95" type="curve" smooth="yes"/>
      <point x="283" y="95"/>
      <point x="217" y="132"/>
      <point x="217" y="273" type="curve" smooth="yes"/>
      <point x="217" y="373"/>
      <point x="238" y="504"/>
      <point x="333" y="504" type="curve" smooth="yes"/>
      <point x="351" y="504"/>
      <point x="364" y="499"/>
      <point x="373" y="492" type="curve"/>
      <point x="329" y="480"/>
      <point x="291" y="442"/>
      <point x="291" y="392" type="curve" smooth="yes"/>
      <point x="291" y="339"/>
      <point x="324" y="302"/>
      <point x="383" y="302" type="curve" smooth="yes"/>
      <point x="439" y="302"/>
      <point x="479" y="344"/>
      <point x="479" y="399" type="curve" smooth="yes"/>
      <point x="479" y="445"/>
      <point x="455" y="482"/>
      <point x="419" y="503" type="curve" smooth="yes"/>
      <point x="392" y="519"/>
      <point x="345" y="533"/>
      <point x="287" y="533" type="curve" smooth="yes"/>
    </contour>
    <contour>
      <point x="275" y="0" type="move" name="bottom"/>
    </contour>
    <contour>
      <point x="271" y="514" type="move" name="top"/>
    </contour>
  </outline>
</glyph>
<glyph name="d" format="1">
  <advance width="609"/>
  <unicode hex="0064"/>
  <outline>
    <contour>
      <point x="487" y="772"/>
      <point x="430" y="768"/>
      <point x="363" y="768" type="curve" smooth="yes"/>
      <point x="343" y="768"/>
      <point x="322" y="769"/>
      <point x="301" y="771" type="curve"/>
      <point x="301" y="750" type="line"/>
      <point x="343" y="750"/>
      <point x="357" y="722"/>
      <point x="357" y="662" type="curve" smooth="yes"/>
      <point x="357" y="-10" type="line"/>
      <point x="407" y="0"/>
      <point x="464" y="4"/>
      <point x="531" y="4" type="curve" smooth="yes"/>
      <point x="551" y="4"/>
      <point x="572" y="3"/>
      <point x="593" y="1" type="curve"/>
      <point x="593" y="22" type="line"/>
      <point x="551" y="22"/>
      <point x="537" y="50"/>
      <point x="537" y="110" type="curve"/>
      <point x="537" y="782" type="line"/>
    </contour>
    <contour>
      <point x="119" y="533"/>
      <point x="31" y="444"/>
      <point x="31" y="263" type="curve" smooth="yes"/>
      <point x="31" y="67"/>
      <point x="120" y="-14"/>
      <point x="235" y="-14" type="curve" smooth="yes"/>
      <point x="294" y="-14"/>
      <point x="330" y="10"/>
      <point x="357" y="61" type="curve"/>
      <point x="357" y="110" type="line" smooth="yes"/>
      <point x="357" y="68"/>
      <point x="322" y="38"/>
      <point x="285" y="38" type="curve" smooth="yes"/>
      <point x="248" y="38"/>
      <point x="218" y="83"/>
      <point x="218" y="260" type="curve" smooth="yes"/>
      <point x="218" y="422"/>
      <point x="248" y="500"/>
      <point x="310" y="500" type="curve" smooth="yes"/>
      <point x="329" y="500"/>
      <point x="352" y="493"/>
      <point x="369" y="478" type="curve"/>
      <point x="380" y="489" type="line"/>
      <point x="349" y="520"/>
      <point x="311" y="533"/>
      <point x="253" y="533" type="curve" smooth="yes"/>
    </contour>
    <contour>
      <point x="575" y="608" type="move" name="bar-right"/>
    </contour>
    <contour>
      <point x="305" y="257" type="move" name="center"/>
    </contour>
  </outline>
</glyph>
<glyph name="e" format="1">
  <advance width="503"/>
  <unicode hex="0065"/>
  <outline>
    <contour>
      <point x="143" y="533"/>
      <point x="31" y="451"/>
      <point x="31" y="259" type="curve" smooth="yes"/>
      <point x="31" y="57"/>
      <point x="134" y="-14"/>
      <point x="262" y="-14" type="curve" smooth="yes"/>
      <point x="381" y="-14"/>
      <point x="446" y="75"/>
      <point x="471" y="156" type="curve"/>
      <point x="454" y="162" type="line"/>
      <point x="410" y="101"/>
      <point x="360" y="95"/>
      <point x="333" y="95" type="curve" smooth="yes"/>
      <point x="279" y="95"/>
      <point x="218" y="132"/>
      <point x="218" y="273" type="curve" smooth="yes"/>
      <point x="218" y="287"/>
      <point x="218" y="301"/>
      <point x="219" y="314" type="curve"/>
      <point x="215" y="322" type="line"/>
      <point x="221" y="459"/>
      <point x="245" y="510"/>
      <point x="281" y="510" type="curve" smooth="yes"/>
      <point x="318" y="510"/>
      <point x="332" y="426"/>
      <point x="331" y="328" type="curve"/>
      <point x="162" y="328" type="line"/>
      <point x="162" y="328"/>
      <point x="164" y="309"/>
      <point x="164" y="309" type="curve"/>
      <point x="477" y="309" type="line"/>
      <point x="477" y="470"/>
      <point x="405" y="533"/>
      <point x="288" y="533" type="curve" smooth="yes"/>
    </contour>
    <contour>
      <point x="262" y="0" type="move" name="bottom"/>
    </contour>
    <contour>
      <point x="341" y="0" type="move" name="ogonek"/>
    </contour>
    <contour>
      <point x="279" y="514" type="move" name="top"/>
    </contour>
  </outline>
</glyph>
<glyph name="f" format="1">
  <advance width="365"/>
  <unicode hex="0066"/>
  <outline>
    <contour>
      <point x="235" y="782"/>
      <point x="178" y="759"/>
      <point x="147" y="732" type="curve" smooth="yes"/>
      <point x="95" y="687"/>
      <point x="76" y="636"/>
      <point x="76" y="518" type="curve"/>
      <point x="16" y="518" type="line"/>
      <point x="16" y="498" type="line"/>
      <point x="76" y="498" type="line"/>
      <point x="76" y="93" type="line" smooth="yes"/>
      <point x="76" y="37"/>
      <point x="61" y="21"/>
      <point x="20" y="21" type="curve"/>
      <point x="20" y="0" type="line"/>
      <point x="47" y="1"/>
      <point x="104" y="4"/>
      <point x="158" y="4" type="curve" smooth="yes"/>
      <point x="232" y="4"/>
      <point x="305" y="1"/>
      <point x="342" y="0" type="curve"/>
      <point x="342" y="21" type="line"/>
      <point x="288" y="21"/>
      <point x="256" y="38"/>
      <point x="256" y="103" type="curve" smooth="yes"/>
      <point x="256" y="498" type="line"/>
      <point x="363" y="498" type="line"/>
      <point x="363" y="518" type="line"/>
      <point x="256" y="518" type="line"/>
      <point x="256" y="652" type="line" smooth="yes"/>
      <point x="256" y="705"/>
      <point x="263" y="728"/>
      <point x="275" y="743" type="curve" smooth="yes"/>
      <point x="285" y="755"/>
      <point x="299" y="762"/>
      <point x="322" y="762" type="curve" smooth="yes"/>
      <point x="336" y="762"/>
      <point x="345" y="758"/>
      <point x="349" y="753" type="curve"/>
      <point x="302" y="738"/>
      <point x="280" y="702"/>
      <point x="280" y="664" type="curve" smooth="yes"/>
      <point x="280" y="612"/>
      <point x="315" y="581"/>
      <point x="370" y="581" type="curve" smooth="yes"/>
      <point x="419" y="581"/>
      <point x="453" y="621"/>
      <point x="453" y="662" type="curve" smooth="yes"/>
      <point x="453" y="701"/>
      <point x="435" y="730"/>
      <point x="416" y="745" type="curve" smooth="yes"/>
      <point x="386" y="768"/>
      <point x="349" y="782"/>
      <point x="296" y="782" type="curve" smooth="yes"/>
    </contour>
  </outline>
</glyph>
<glyph name="g" format="1">
  <advance width="570"/>
  <unicode hex="0067"/>
  <outline>
    <contour>
      <point x="221" y="-188" type="curve" smooth="yes"/>
      <point x="438" y="-188"/>
      <point x="531" y="-102"/>
      <point x="531" y="-2" type="curve" smooth="yes"/>
      <point x="531" y="100"/>
      <point x="443" y="140"/>
      <point x="314" y="140" type="curve" smooth="yes"/>
      <point x="217" y="140" type="line" smooth="yes"/>
      <point x="195" y="140"/>
      <point x="181" y="150"/>
      <point x="181" y="172" type="curve" smooth="yes"/>
      <point x="181" y="197"/>
      <point x="199" y="209"/>
      <point x="213" y="218" type="curve"/>
      <point x="204" y="226" type="line"/>
      <point x="127" y="192"/>
      <point x="72" y="153"/>
      <point x="72" y="90" type="curve" smooth="yes"/>
      <point x="72" y="32"/>
      <point x="120" y="-6"/>
      <point x="212" y="-6" type="curve" smooth="yes"/>
      <point x="266" y="-6" type="line" smooth="yes"/>
      <point x="351" y="-6"/>
      <point x="372" y="-37"/>
      <point x="372" y="-74" type="curve" smooth="yes"/>
      <point x="372" y="-131"/>
      <point x="325" y="-171"/>
      <point x="235" y="-171" type="curve" smooth="yes"/>
      <point x="150" y="-171"/>
      <point x="100" y="-141"/>
      <point x="100" y="-89" type="curve" smooth="yes"/>
      <point x="100" y="-71"/>
      <point x="106" y="-51"/>
      <point x="127" y="-25" type="curve"/>
      <point x="117" y="-9" type="line"/>
      <point x="35" y="-28"/>
      <point x="0" y="-63"/>
      <point x="0" y="-100" type="curve" smooth="yes"/>
      <point x="0" y="-156"/>
      <point x="85" y="-188"/>
    </contour>
    <contour>
      <point x="235" y="213" type="curve" smooth="yes"/>
      <point x="359" y="213"/>
      <point x="450" y="263"/>
      <point x="450" y="373" type="curve" smooth="yes"/>
      <point x="450" y="483"/>
      <point x="359" y="533"/>
      <point x="235" y="533" type="curve" smooth="yes"/>
      <point x="111" y="533"/>
      <point x="20" y="483"/>
      <point x="20" y="373" type="curve" smooth="yes"/>
      <point x="20" y="263"/>
      <point x="111" y="213"/>
    </contour>
    <contour>
      <point x="235" y="231" type="curve" smooth="yes"/>
      <point x="210" y="231"/>
      <point x="194" y="266"/>
      <point x="194" y="373" type="curve" smooth="yes"/>
      <point x="194" y="480"/>
      <point x="210" y="515"/>
      <point x="235" y="515" type="curve" smooth="yes"/>
      <point x="260" y="515"/>
      <point x="276" y="480"/>
      <point x="276" y="373" type="curve" smooth="yes"/>
      <point x="276" y="266"/>
      <point x="260" y="231"/>
    </contour>
    <contour>
      <point x="398" y="445" type="line"/>
      <point x="417" y="489"/>
      <point x="440" y="512"/>
      <point x="487" y="529" type="curve"/>
      <point x="483" y="536" type="line"/>
      <point x="441" y="456"/>
      <point x="478" y="418"/>
      <point x="516" y="418" type="curve" smooth="yes"/>
      <point x="545" y="418"/>
      <point x="569" y="440"/>
      <point x="569" y="479" type="curve" smooth="yes"/>
      <point x="569" y="516"/>
      <point x="546" y="545"/>
      <point x="500" y="545" type="curve" smooth="yes"/>
      <point x="447" y="545"/>
      <point x="398" y="508"/>
      <point x="377" y="452" type="curve"/>
    </contour>
    <contour>
      <point x="280" y="-181" type="move" name="bottom"/>
    </contour>
    <contour>
      <point x="255" y="519" type="move" name="top"/>
    </contour>
  </outline>
</glyph>
<glyph name="h" format="1">
  <advance width="622"/>
  <unicode hex="0068"/>
  <outline>
    <contour>
      <point x="204" y="772"/>
      <point x="147" y="768"/>
      <point x="80" y="768" type="curve" smooth="yes"/>
      <point x="60" y="768"/>
      <point x="39" y="769"/>
      <point x="18" y="771" type="curve"/>
      <point x="18" y="750" type="line"/>
      <point x="60" y="750"/>
      <point x="74" y="722"/>
      <point x="74" y="662" type="curve" smooth="yes"/>
      <point x="74" y="93" type="line" smooth="yes"/>
      <point x="74" y="37"/>
      <point x="59" y="21"/>
      <point x="18" y="21" type="curve"/>
      <point x="18" y="0" type="line"/>
      <point x="47" y="1"/>
      <point x="112" y="4"/>
      <point x="168" y="4" type="curve" smooth="yes"/>
      <point x="220" y="4"/>
      <point x="275" y="1"/>
      <point x="300" y="0" type="curve"/>
      <point x="300" y="21" type="line"/>
      <point x="266" y="21"/>
      <point x="254" y="37"/>
      <point x="254" y="93" type="curve" smooth="yes"/>
      <point x="254" y="409" type="line" smooth="yes"/>
      <point x="254" y="451"/>
      <point x="289" y="481"/>
      <point x="326" y="481" type="curve" smooth="yes"/>
      <point x="361" y="481"/>
      <point x="375" y="460"/>
      <point x="375" y="418" type="curve" smooth="yes"/>
      <point x="375" y="93" type="line" smooth="yes"/>
      <point x="375" y="37"/>
      <point x="363" y="21"/>
      <point x="329" y="21" type="curve"/>
      <point x="329" y="0" type="line"/>
      <point x="356" y="1"/>
      <point x="415" y="4"/>
      <point x="471" y="4" type="curve" smooth="yes"/>
      <point x="523" y="4"/>
      <point x="584" y="1"/>
      <point x="611" y="0" type="curve"/>
      <point x="611" y="21" type="line"/>
      <point x="570" y="21"/>
      <point x="555" y="37"/>
      <point x="555" y="93" type="curve" smooth="yes"/>
      <point x="555" y="364" type="line" smooth="yes"/>
      <point x="555" y="432"/>
      <point x="546" y="469"/>
      <point x="526" y="493" type="curve" smooth="yes"/>
      <point x="507" y="516"/>
      <point x="474" y="533"/>
      <point x="413" y="533" type="curve" smooth="yes"/>
      <point x="341" y="533"/>
      <point x="286" y="511"/>
      <point x="254" y="458" type="curve"/>
      <point x="254" y="782" type="line"/>
    </contour>
    <contour>
      <point x="21" y="608" type="move" name="bar-left"/>
    </contour>
    <contour>
      <point x="311" y="257" type="move" name="center"/>
    </contour>
    <contour>
      <point x="149" y="772" type="move" name="top"/>
    </contour>
  </outline>
</glyph>
<glyph name="k" format="1">
  <advance width="609"/>
  <unicode hex="006B"/>
  <outline>
    <contour>
      <point x="204" y="772"/>
      <point x="147" y="768"/>
      <point x="80" y="768" type="curve" smooth="yes"/>
      <point x="60" y="768"/>
      <point x="39" y="769"/>
      <point x="18" y="771" type="curve"/>
      <point x="18" y="750" type="line"/>
      <point x="60" y="750"/>
      <point x="74" y="722"/>
      <point x="74" y="662" type="curve" smooth="yes"/>
      <point x="74" y="93" type="line" smooth="yes"/>
      <point x="74" y="37"/>
      <point x="59" y="21"/>
      <point x="18" y="21" type="curve"/>
      <point x="18" y="0" type="line"/>
      <point x="47" y="1"/>
      <point x="112" y="4"/>
      <point x="168" y="4" type="curve" smooth="yes"/>
      <point x="224" y="4"/>
      <point x="283" y="1"/>
      <point x="310" y="0" type="curve"/>
      <point x="310" y="21" type="line"/>
      <point x="269" y="21"/>
      <point x="254" y="37"/>
      <point x="254" y="93" type="curve" smooth="yes"/>
      <point x="254" y="782" type="line"/>
    </contour>
    <contour>
      <point x="560" y="517"/>
      <point x="490" y="516"/>
      <point x="449" y="516" type="curve" smooth="yes"/>
      <point x="417" y="516"/>
      <point x="367" y="517"/>
      <point x="329" y="519" type="curve"/>
      <point x="329" y="499" type="line"/>
      <point x="401" y="493"/>
      <point x="443" y="433"/>
      <point x="374" y="369" type="curve" smooth="yes"/>
      <point x="297" y="297" type="line" smooth="yes"/>
      <point x="284" y="284"/>
      <point x="267" y="282"/>
      <point x="249" y="282" type="curve"/>
      <point x="249" y="263" type="line"/>
      <point x="265" y="263"/>
      <point x="277" y="259"/>
      <point x="286" y="241" type="curve" smooth="yes"/>
      <point x="374" y="55" type="line" smooth="yes"/>
      <point x="384" y="34"/>
      <point x="376" y="21"/>
      <point x="349" y="21" type="curve"/>
      <point x="349" y="0" type="line"/>
      <point x="376" y="1"/>
      <point x="436" y="4"/>
      <point x="490" y="4" type="curve" smooth="yes"/>
      <point x="536" y="4"/>
      <point x="588" y="1"/>
      <point x="611" y="0" type="curve"/>
      <point x="611" y="21" type="line"/>
      <point x="592" y="31"/>
      <point x="582" y="53"/>
      <point x="571" y="73" type="curve" smooth="yes"/>
      <point x="410" y="379" type="line"/>
      <point x="403" y="366" type="line"/>
      <point x="438" y="401" type="line" smooth="yes"/>
      <point x="488" y="451"/>
      <point x="538" y="486"/>
      <point x="586" y="499" type="curve"/>
      <point x="586" y="519" type="line"/>
    </contour>
    <contour>
      <point x="349" y="0" type="move" name="bottom"/>
    </contour>
    <contour>
      <point x="215" y="782" type="move" name="top"/>
    </contour>
  </outline>
</glyph>
<glyph name="l" format="1">
  <advance width="328"/>
  <unicode hex="006C"/>
  <outline>
    <contour>
      <point x="204" y="772"/>
      <point x="147" y="768"/>
      <point x="80" y="768" type="curve" smooth="yes"/>
      <point x="60" y="768"/>
      <point x="39" y="769"/>
      <point x="18" y="771" type="curve"/>
      <point x="18" y="750" type="line"/>
      <point x="60" y="750"/>
      <point x="74" y="722"/>
      <point x="74" y="662" type="curve" smooth="yes"/>
      <point x="74" y="93" type="line" smooth="yes"/>
      <point x="74" y="37"/>
      <point x="59" y="21"/>
      <point x="18" y="21" type="curve"/>
      <point x="18" y="0" type="line"/>
      <point x="47" y="1"/>
      <point x="112" y="4"/>
      <point x="168" y="4" type="curve" smooth="yes"/>
      <point x="224" y="4"/>
      <point x="283" y="1"/>
      <point x="310" y="0" type="curve"/>
      <point x="310" y="21" type="line"/>
      <point x="269" y="21"/>
      <point x="254" y="37"/>
      <point x="254" y="93" type="curve" smooth="yes"/>
      <point x="254" y="782" type="line"/>
    </contour>
    <contour>
      <point x="162" y="0" type="move" name="bottom"/>
    </contour>
    <contour>
      <point x="268" y="515" type="move" name="right"/>
    </contour>
    <contour>
      <point x="162" y="772" type="move" name="top"/>
    </contour>
    <contour>
      <point x="308" y="514" type="move" name="topright"/>
    </contour>
  </outline>
</glyph>
<glyph name="m" format="1">
  <advance width="916"/>
  <unicode hex="006D"/>
  <outline>
    <contour>
      <point x="339" y="533"/>
      <point x="287" y="511"/>
      <point x="257" y="458" type="curve"/>
      <point x="257" y="530" type="line"/>
      <point x="207" y="520"/>
      <point x="150" y="516"/>
      <point x="83" y="516" type="curve" smooth="yes"/>
      <point x="63" y="516"/>
      <point x="42" y="517"/>
      <point x="21" y="519" type="curve"/>
      <point x="21" y="498" type="line"/>
      <point x="63" y="498"/>
      <point x="77" y="470"/>
      <point x="77" y="410" type="curve" smooth="yes"/>
      <point x="77" y="93" type="line" smooth="yes"/>
      <point x="77" y="37"/>
      <point x="62" y="21"/>
      <point x="21" y="21" type="curve"/>
      <point x="21" y="0" type="line"/>
      <point x="50" y="1"/>
      <point x="115" y="4"/>
      <point x="171" y="4" type="curve" smooth="yes"/>
      <point x="219" y="4"/>
      <point x="270" y="1"/>
      <point x="293" y="0" type="curve"/>
      <point x="293" y="21" type="line"/>
      <point x="266" y="21"/>
      <point x="257" y="37"/>
      <point x="257" y="93" type="curve" smooth="yes"/>
      <point x="257" y="409" type="line" smooth="yes"/>
      <point x="257" y="451"/>
      <point x="292" y="481"/>
      <point x="329" y="481" type="curve" smooth="yes"/>
      <point x="357" y="481"/>
      <point x="368" y="460"/>
      <point x="368" y="418" type="curve" smooth="yes"/>
      <point x="368" y="93" type="line" smooth="yes"/>
      <point x="368" y="37"/>
      <point x="358" y="21"/>
      <point x="332" y="21" type="curve"/>
      <point x="332" y="0" type="line"/>
      <point x="357" y="1"/>
      <point x="412" y="4"/>
      <point x="464" y="4" type="curve" smooth="yes"/>
      <point x="512" y="4"/>
      <point x="569" y="1"/>
      <point x="594" y="0" type="curve"/>
      <point x="594" y="21" type="line"/>
      <point x="559" y="21"/>
      <point x="548" y="37"/>
      <point x="548" y="93" type="curve" smooth="yes"/>
      <point x="548" y="364" type="line" smooth="yes"/>
      <point x="548" y="432"/>
      <point x="539" y="469"/>
      <point x="519" y="493" type="curve" smooth="yes"/>
      <point x="500" y="516"/>
      <point x="467" y="533"/>
      <point x="406" y="533" type="curve" smooth="yes"/>
    </contour>
    <contour>
      <point x="635" y="533"/>
      <point x="575" y="513"/>
      <point x="539" y="443" type="curve"/>
      <point x="546" y="403" type="line"/>
      <point x="549" y="444"/>
      <point x="584" y="481"/>
      <point x="620" y="481" type="curve" smooth="yes"/>
      <point x="655" y="481"/>
      <point x="669" y="460"/>
      <point x="669" y="418" type="curve" smooth="yes"/>
      <point x="669" y="93" type="line" smooth="yes"/>
      <point x="669" y="37"/>
      <point x="660" y="21"/>
      <point x="633" y="21" type="curve"/>
      <point x="633" y="0" type="line"/>
      <point x="658" y="1"/>
      <point x="713" y="4"/>
      <point x="765" y="4" type="curve" smooth="yes"/>
      <point x="817" y="4"/>
      <point x="878" y="1"/>
      <point x="905" y="0" type="curve"/>
      <point x="905" y="21" type="line"/>
      <point x="864" y="21"/>
      <point x="849" y="37"/>
      <point x="849" y="93" type="curve" smooth="yes"/>
      <point x="849" y="364" type="line" smooth="yes"/>
      <point x="849" y="432"/>
      <point x="840" y="469"/>
      <point x="820" y="493" type="curve" smooth="yes"/>
      <point x="801" y="516"/>
      <point x="768" y="533"/>
      <point x="707" y="533" type="curve" smooth="yes"/>
    </contour>
  </outline>
</glyph>
<glyph name="n" format="1">
  <advance width="625"/>
  <unicode hex="006E"/>
  <outline>
    <contour>
      <point x="344" y="533"/>
      <point x="289" y="511"/>
      <point x="257" y="458" type="curve"/>
      <point x="257" y="530" type="line"/>
      <point x="207" y="520"/>
      <point x="150" y="516"/>
      <point x="83" y="516" type="curve" smooth="yes"/>
      <point x="63" y="516"/>
      <point x="42" y="517"/>
      <point x="21" y="519" type="curve"/>
      <point x="21" y="498" type="line"/>
      <point x="63" y="498"/>
      <point x="77" y="470"/>
      <point x="77" y="410" type="curve" smooth="yes"/>
      <point x="77" y="93" type="line" smooth="yes"/>
      <point x="77" y="37"/>
      <point x="62" y="21"/>
      <point x="21" y="21" type="curve"/>
      <point x="21" y="0" type="line"/>
      <point x="50" y="1"/>
      <point x="115" y="4"/>
      <point x="171" y="4" type="curve" smooth="yes"/>
      <point x="223" y="4"/>
      <point x="278" y="1"/>
      <point x="303" y="0" type="curve"/>
      <point x="303" y="21" type="line"/>
      <point x="269" y="21"/>
      <point x="257" y="37"/>
      <point x="257" y="93" type="curve" smooth="yes"/>
      <point x="257" y="409" type="line" smooth="yes"/>
      <point x="257" y="451"/>
      <point x="292" y="481"/>
      <point x="329" y="481" type="curve" smooth="yes"/>
      <point x="364" y="481"/>
      <point x="378" y="460"/>
      <point x="378" y="418" type="curve" smooth="yes"/>
      <point x="378" y="93" type="line" smooth="yes"/>
      <point x="378" y="37"/>
      <point x="366" y="21"/>
      <point x="332" y="21" type="curve"/>
      <point x="332" y="0" type="line"/>
      <point x="359" y="1"/>
      <point x="418" y="4"/>
      <point x="474" y="4" type="curve" smooth="yes"/>
      <point x="526" y="4"/>
      <point x="587" y="1"/>
      <point x="614" y="0" type="curve"/>
      <point x="614" y="21" type="line"/>
      <point x="573" y="21"/>
      <point x="558" y="37"/>
      <point x="558" y="93" type="curve" smooth="yes"/>
      <point x="558" y="364" type="line" smooth="yes"/>
      <point x="558" y="432"/>
      <point x="549" y="469"/>
      <point x="529" y="493" type="curve" smooth="yes"/>
      <point x="510" y="516"/>
      <point x="477" y="533"/>
      <point x="416" y="533" type="curve" smooth="yes"/>
    </contour>
    <contour>
      <point x="328" y="0" type="move" name="bottom"/>
    </contour>
    <contour>
      <point x="318" y="514" type="move" name="top"/>
    </contour>
  </outline>
</glyph>
<glyph name="o" format="1">
  <advance width="576"/>
  <unicode hex="006F"/>
  <outline>
    <contour>
      <point x="133" y="533"/>
      <point x="31" y="461"/>
      <point x="31" y="259" type="curve" smooth="yes"/>
      <point x="31" y="57"/>
      <point x="133" y="-14"/>
      <point x="288" y="-14" type="curve" smooth="yes"/>
      <point x="443" y="-14"/>
      <point x="545" y="57"/>
      <point x="545" y="259" type="curve" smooth="yes"/>
      <point x="545" y="461"/>
      <point x="443" y="533"/>
      <point x="288" y="533" type="curve" smooth="yes"/>
    </contour>
    <contour>
      <point x="328" y="513"/>
      <point x="358" y="438"/>
      <point x="358" y="259" type="curve" smooth="yes"/>
      <point x="358" y="80"/>
      <point x="328" y="6"/>
      <point x="288" y="6" type="curve" smooth="yes"/>
      <point x="248" y="6"/>
      <point x="218" y="80"/>
      <point x="218" y="259" type="curve" smooth="yes"/>
      <point x="218" y="438"/>
      <point x="248" y="513"/>
      <point x="288" y="513" type="curve" smooth="yes"/>
    </contour>
    <contour>
      <point x="288" y="0" type="move" name="bottom"/>
    </contour>
    <contour>
      <point x="288" y="514" type="move" name="top"/>
    </contour>
  </outline>
</glyph>
<glyph name="p" format="1">
  <advance width="612"/>
  <unicode hex="0070"/>
  <outline>
    <contour>
      <point x="204" y="519"/>
      <point x="147" y="515"/>
      <point x="80" y="515" type="curve" smooth="yes"/>
      <point x="60" y="515"/>
      <point x="39" y="516"/>
      <point x="18" y="518" type="curve"/>
      <point x="18" y="497" type="line"/>
      <point x="60" y="497"/>
      <point x="74" y="469"/>
      <point x="74" y="409" type="curve" smooth="yes"/>
      <point x="74" y="-88" type="line" smooth="yes"/>
      <point x="74" y="-144"/>
      <point x="59" y="-160"/>
      <point x="18" y="-160" type="curve"/>
      <point x="18" y="-181" type="line"/>
      <point x="45" y="-180"/>
      <point x="102" y="-177"/>
      <point x="156" y="-177" type="curve" smooth="yes"/>
      <point x="230" y="-177"/>
      <point x="303" y="-180"/>
      <point x="340" y="-181" type="curve"/>
      <point x="340" y="-160" type="line"/>
      <point x="286" y="-160"/>
      <point x="254" y="-143"/>
      <point x="254" y="-78" type="curve" smooth="yes"/>
      <point x="254" y="529" type="line"/>
    </contour>
    <contour>
      <point x="338" y="533"/>
      <point x="285" y="509"/>
      <point x="254" y="458" type="curve"/>
      <point x="254" y="409" type="line" smooth="yes"/>
      <point x="254" y="451"/>
      <point x="289" y="481"/>
      <point x="326" y="481" type="curve" smooth="yes"/>
      <point x="363" y="481"/>
      <point x="393" y="436"/>
      <point x="393" y="259" type="curve" smooth="yes"/>
      <point x="393" y="97"/>
      <point x="363" y="16"/>
      <point x="289" y="16" type="curve" smooth="yes"/>
      <point x="272" y="16"/>
      <point x="253" y="20"/>
      <point x="242" y="35" type="curve"/>
      <point x="232" y="22" type="line"/>
      <point x="258" y="-6"/>
      <point x="302" y="-14"/>
      <point x="347" y="-14" type="curve" smooth="yes"/>
      <point x="472" y="-14"/>
      <point x="580" y="55"/>
      <point x="580" y="282" type="curve" smooth="yes"/>
      <point x="580" y="452"/>
      <point x="505" y="533"/>
      <point x="406" y="533" type="curve" smooth="yes"/>
    </contour>
  </outline>
</glyph>
<glyph name="q" format="1">
  <advance width="600"/>
  <unicode hex="0071"/>
  <outline>
    <contour>
      <point x="119" y="533"/>
      <point x="31" y="444"/>
      <point x="31" y="263" type="curve" smooth="yes"/>
      <point x="31" y="67"/>
      <point x="120" y="-14"/>
      <point x="235" y="-14" type="curve" smooth="yes"/>
      <point x="294" y="-14"/>
      <point x="330" y="10"/>
      <point x="357" y="61" type="curve"/>
      <point x="357" y="110" type="line" smooth="yes"/>
      <point x="357" y="68"/>
      <point x="322" y="38"/>
      <point x="285" y="38" type="curve" smooth="yes"/>
      <point x="248" y="38"/>
      <point x="218" y="83"/>
      <point x="218" y="260" type="curve" smooth="yes"/>
      <point x="218" y="429"/>
      <point x="248" y="513"/>
      <point x="310" y="513" type="curve" smooth="yes"/>
      <point x="329" y="513"/>
      <point x="352" y="508"/>
      <point x="369" y="494" type="curve"/>
      <point x="380" y="510" type="line"/>
      <point x="342" y="531"/>
      <point x="301" y="533"/>
      <point x="253" y="533" type="curve" smooth="yes"/>
    </contour>
    <contour>
      <point x="501" y="508"/>
      <point x="423" y="493"/>
      <point x="357" y="520" type="curve"/>
      <point x="357" y="-78" type="line" smooth="yes"/>
      <point x="357" y="-143"/>
      <point x="325" y="-160"/>
      <point x="271" y="-160" type="curve"/>
      <point x="271" y="-181" type="line"/>
      <point x="308" y="-180"/>
      <point x="381" y="-177"/>
      <point x="455" y="-177" type="curve" smooth="yes"/>
      <point x="509" y="-177"/>
      <point x="566" y="-180"/>
      <point x="593" y="-181" type="curve"/>
      <point x="593" y="-160" type="line"/>
      <point x="552" y="-160"/>
      <point x="537" y="-144"/>
      <point x="537" y="-88" type="curve" smooth="yes"/>
      <point x="537" y="470" type="line" smooth="yes"/>
      <point x="537" y="489"/>
      <point x="538" y="507"/>
      <point x="544" y="525" type="curve"/>
      <point x="530" y="535" type="line"/>
    </contour>
  </outline>
</glyph>
<glyph name="r" format="1">
  <advance width="481"/>
  <unicode hex="0072"/>
  <outline>
    <contour>
      <point x="328" y="533"/>
      <point x="283" y="509"/>
      <point x="257" y="458" type="curve"/>
      <point x="257" y="530" type="line"/>
      <point x="207" y="520"/>
      <point x="150" y="516"/>
      <point x="83" y="516" type="curve" smooth="yes"/>
      <point x="63" y="516"/>
      <point x="42" y="517"/>
      <point x="21" y="519" type="curve"/>
      <point x="21" y="498" type="line"/>
      <point x="63" y="498"/>
      <point x="77" y="470"/>
      <point x="77" y="410" type="curve" smooth="yes"/>
      <point x="77" y="93" type="line" smooth="yes"/>
      <point x="77" y="37"/>
      <point x="62" y="21"/>
      <point x="21" y="21" type="curve"/>
      <point x="21" y="0" type="line"/>
      <point x="52" y="1"/>
      <point x="121" y="4"/>
      <point x="181" y="4" type="curve" smooth="yes"/>
      <point x="245" y="4"/>
      <point x="312" y="1"/>
      <point x="343" y="0" type="curve"/>
      <point x="343" y="21" type="line"/>
      <point x="282" y="21"/>
      <point x="257" y="39"/>
      <point x="257" y="103" type="curve" smooth="yes"/>
      <point x="257" y="403" type="line" smooth="yes"/>
      <point x="257" y="443"/>
      <point x="283" y="478"/>
      <point x="316" y="492" type="curve" smooth="yes"/>
      <point x="326" y="497"/>
      <point x="337" y="499"/>
      <point x="348" y="499" type="curve"/>
      <point x="318" y="479"/>
      <point x="297" y="451"/>
      <point x="297" y="406" type="curve" smooth="yes"/>
      <point x="297" y="363"/>
      <point x="327" y="334"/>
      <point x="386" y="334" type="curve" smooth="yes"/>
      <point x="441" y="334"/>
      <point x="478" y="372"/>
      <point x="478" y="432" type="curve" smooth="yes"/>
      <point x="478" y="478"/>
      <point x="458" y="533"/>
      <point x="386" y="533" type="curve" smooth="yes"/>
    </contour>
    <contour>
      <point x="174" y="0" type="move" name="bottom"/>
    </contour>
    <contour>
      <point x="239" y="514" type="move" name="top"/>
    </contour>
  </outline>
</glyph>
<glyph name="s" format="1">
  <advance width="472"/>
  <unicode hex="0073"/>
  <outline>
    <contour>
      <point x="132" y="533"/>
      <point x="43" y="478"/>
      <point x="43" y="389" type="curve" smooth="yes"/>
      <point x="43" y="310"/>
      <point x="100" y="261"/>
      <point x="160" y="206" type="curve" smooth="yes"/>
      <point x="213" y="158"/>
      <point x="253" y="125"/>
      <point x="253" y="66" type="curve" smooth="yes"/>
      <point x="253" y="28"/>
      <point x="226" y="11"/>
      <point x="195" y="11" type="curve" smooth="yes"/>
      <point x="122" y="11"/>
      <point x="75" y="87"/>
      <point x="63" y="193" type="curve"/>
      <point x="43" y="193" type="line"/>
      <point x="43" y="92"/>
      <point x="42" y="36"/>
      <point x="39" y="-7" type="curve"/>
      <point x="59" y="-7" type="line"/>
      <point x="64" y="12"/>
      <point x="73" y="28"/>
      <point x="87" y="28" type="curve" smooth="yes"/>
      <point x="102" y="28"/>
      <point x="116" y="22"/>
      <point x="137" y="11" type="curve" smooth="yes"/>
      <point x="158" y="-2"/>
      <point x="193" y="-14"/>
      <point x="240" y="-14" type="curve" smooth="yes"/>
      <point x="351" y="-14"/>
      <point x="442" y="49"/>
      <point x="442" y="140" type="curve" smooth="yes"/>
      <point x="442" y="217"/>
      <point x="395" y="259"/>
      <point x="334" y="309" type="curve" smooth="yes"/>
      <point x="277" y="356"/>
      <point x="214" y="393"/>
      <point x="214" y="453" type="curve" smooth="yes"/>
      <point x="214" y="488"/>
      <point x="240" y="509"/>
      <point x="273" y="509" type="curve" smooth="yes"/>
      <point x="355" y="509"/>
      <point x="387" y="426"/>
      <point x="396" y="352" type="curve"/>
      <point x="416" y="352" type="line"/>
      <point x="416" y="443"/>
      <point x="417" y="493"/>
      <point x="420" y="532" type="curve"/>
      <point x="400" y="532" type="line"/>
      <point x="395" y="501"/>
      <point x="379" y="493"/>
      <point x="357" y="506" type="curve" smooth="yes"/>
      <point x="337" y="517"/>
      <point x="289" y="533"/>
      <point x="231" y="533" type="curve" smooth="yes"/>
    </contour>
    <contour>
      <point x="236" y="0" type="move" name="bottom"/>
    </contour>
    <contour>
      <point x="236" y="514" type="move" name="top"/>
    </contour>
  </outline>
</glyph>
<glyph name="t" format="1">
  <advance width="350"/>
  <unicode hex="0074"/>
  <outline>
    <contour>
      <point x="199" y="650"/>
      <point x="143" y="637"/>
      <point x="72" y="637" type="curve"/>
      <point x="72" y="518" type="line"/>
      <point x="-4" y="518" type="line"/>
      <point x="-4" y="498" type="line"/>
      <point x="72" y="498" type="line"/>
      <point x="72" y="159" type="line" smooth="yes"/>
      <point x="72" y="90"/>
      <point x="77" y="49"/>
      <point x="106" y="20" type="curve" smooth="yes"/>
      <point x="129" y="-3"/>
      <point x="165" y="-14"/>
      <point x="209" y="-14" type="curve" smooth="yes"/>
      <point x="278" y="-14"/>
      <point x="323" y="17"/>
      <point x="351" y="65" type="curve"/>
      <point x="336" y="77" type="line"/>
      <point x="318" y="55"/>
      <point x="296" y="48"/>
      <point x="282" y="48" type="curve" smooth="yes"/>
      <point x="260" y="48"/>
      <point x="252" y="58"/>
      <point x="252" y="84" type="curve" smooth="yes"/>
      <point x="252" y="498" type="line"/>
      <point x="350" y="498" type="line"/>
      <point x="350" y="518" type="line"/>
      <point x="252" y="518" type="line"/>
      <point x="252" y="681" type="line"/>
    </contour>
    <contour>
      <point x="216" y="0" type="move" name="bottom"/>
    </contour>
    <contour>
      <point x="175" y="257" type="move" name="center"/>
    </contour>
    <contour>
      <point x="330" y="514" type="move" name="right"/>
    </contour>
    <contour>
      <point x="169" y="514" type="move" name="top"/>
    </contour>
  </outline>
</glyph>
<glyph name="u" format="1">
  <advance width="622"/>
  <unicode hex="0075"/>
  <outline>
    <contour>
      <point x="498" y="520"/>
      <point x="441" y="516"/>
      <point x="374" y="516" type="curve" smooth="yes"/>
      <point x="354" y="516"/>
      <point x="333" y="517"/>
      <point x="312" y="519" type="curve"/>
      <point x="312" y="498" type="line"/>
      <point x="354" y="498"/>
      <point x="368" y="470"/>
      <point x="368" y="410" type="curve" smooth="yes"/>
      <point x="368" y="110" type="line" smooth="yes"/>
      <point x="368" y="68"/>
      <point x="333" y="38"/>
      <point x="296" y="38" type="curve" smooth="yes"/>
      <point x="261" y="38"/>
      <point x="247" y="59"/>
      <point x="247" y="101" type="curve" smooth="yes"/>
      <point x="247" y="530" type="line"/>
      <point x="197" y="520"/>
      <point x="140" y="516"/>
      <point x="73" y="516" type="curve" smooth="yes"/>
      <point x="53" y="516"/>
      <point x="32" y="517"/>
      <point x="11" y="519" type="curve"/>
      <point x="11" y="498" type="line"/>
      <point x="53" y="498"/>
      <point x="67" y="470"/>
      <point x="67" y="410" type="curve" smooth="yes"/>
      <point x="67" y="155" type="line" smooth="yes"/>
      <point x="67" y="87"/>
      <point x="76" y="50"/>
      <point x="96" y="26" type="curve" smooth="yes"/>
      <point x="115" y="3"/>
      <point x="148" y="-14"/>
      <point x="209" y="-14" type="curve" smooth="yes"/>
      <point x="281" y="-14"/>
      <point x="336" y="8"/>
      <point x="368" y="61" type="curve"/>
      <point x="368" y="-11" type="line"/>
      <point x="418" y="-1"/>
      <point x="475" y="3"/>
      <point x="542" y="3" type="curve" smooth="yes"/>
      <point x="562" y="3"/>
      <point x="583" y="2"/>
      <point x="604" y="0" type="curve"/>
      <point x="604" y="21" type="line"/>
      <point x="562" y="21"/>
      <point x="548" y="49"/>
      <point x="548" y="109" type="curve" smooth="yes"/>
      <point x="548" y="530" type="line"/>
    </contour>
    <contour>
      <point x="323" y="0" type="move" name="bottom"/>
    </contour>
    <contour>
      <point x="573" y="0" type="move" name="ogonek"/>
    </contour>
    <contour>
      <point x="295" y="514" type="move" name="top"/>
    </contour>
  </outline>
</glyph>
<glyph name="v" format="1">
  <advance width="520"/>
  <unicode hex="0076"/>
  <outline>
    <contour>
      <point x="506" y="516"/>
      <point x="468" y="515"/>
      <point x="444" y="515" type="curve" smooth="yes"/>
      <point x="420" y="515"/>
      <point x="367" y="516"/>
      <point x="339" y="519" type="curve"/>
      <point x="339" y="498" type="line"/>
      <point x="398" y="494"/>
      <point x="438" y="430"/>
      <point x="393" y="295" type="curve" smooth="yes"/>
      <point x="337" y="128" type="line"/>
      <point x="350" y="148" type="line"/>
      <point x="238" y="460" type="line" smooth="yes"/>
      <point x="229" y="499"/>
      <point x="258" y="498"/>
      <point x="294" y="498" type="curve"/>
      <point x="294" y="519" type="line"/>
      <point x="254" y="516"/>
      <point x="205" y="513"/>
      <point x="164" y="513" type="curve" smooth="yes"/>
      <point x="94" y="513"/>
      <point x="39" y="515"/>
      <point x="-14" y="519" type="curve"/>
      <point x="-14" y="498" type="line"/>
      <point x="0" y="498"/>
      <point x="24" y="493"/>
      <point x="44" y="442" type="curve" smooth="yes"/>
      <point x="218" y="0" type="line"/>
      <point x="250" y="3"/>
      <point x="283" y="3"/>
      <point x="315" y="0" type="curve"/>
      <point x="450" y="401" type="line" smooth="yes"/>
      <point x="472" y="466"/>
      <point x="496" y="489"/>
      <point x="521" y="498" type="curve"/>
      <point x="521" y="519" type="line"/>
    </contour>
  </outline>
</glyph>
<glyph name="w" format="1">
  <advance width="798"/>
  <unicode hex="0077"/>
  <outline>
    <contour>
      <point x="257" y="516"/>
      <point x="208" y="513"/>
      <point x="167" y="513" type="curve" smooth="yes"/>
      <point x="97" y="513"/>
      <point x="42" y="515"/>
      <point x="-11" y="519" type="curve"/>
      <point x="-11" y="498" type="line"/>
      <point x="3" y="498"/>
      <point x="28" y="495"/>
      <point x="47" y="442" type="curve" smooth="yes"/>
      <point x="201" y="0" type="line"/>
      <point x="233" y="3"/>
      <point x="266" y="3"/>
      <point x="298" y="0" type="curve"/>
      <point x="431" y="507" type="line"/>
      <point x="410" y="518" type="line"/>
      <point x="313" y="140" type="line"/>
      <point x="330" y="163" type="line"/>
      <point x="241" y="460" type="line" smooth="yes"/>
      <point x="232" y="494"/>
      <point x="254" y="498"/>
      <point x="297" y="498" type="curve"/>
      <point x="297" y="519" type="line"/>
    </contour>
    <contour>
      <point x="786" y="516"/>
      <point x="748" y="515"/>
      <point x="724" y="515" type="curve" smooth="yes"/>
      <point x="700" y="515"/>
      <point x="637" y="516"/>
      <point x="609" y="519" type="curve"/>
      <point x="609" y="498" type="line"/>
      <point x="673" y="492"/>
      <point x="715" y="432"/>
      <point x="674" y="295" type="curve" smooth="yes"/>
      <point x="628" y="142" type="line"/>
      <point x="641" y="120" type="line"/>
      <point x="517" y="518" type="line"/>
      <point x="482" y="516"/>
      <point x="446" y="515"/>
      <point x="411" y="518" type="curve"/>
      <point x="381" y="369" type="line"/>
      <point x="508" y="0" type="line"/>
      <point x="540" y="3"/>
      <point x="573" y="3"/>
      <point x="605" y="0" type="curve"/>
      <point x="730" y="401" type="line" smooth="yes"/>
      <point x="751" y="467"/>
      <point x="776" y="489"/>
      <point x="801" y="498" type="curve"/>
      <point x="801" y="519" type="line"/>
    </contour>
    <contour>
      <point x="411" y="514" type="move" name="top"/>
    </contour>
  </outline>
</glyph>
<glyph name="x" format="1">
  <advance width="547"/>
  <unicode hex="0078"/>
  <outline>
    <contour>
      <point x="245" y="518"/>
      <point x="196" y="515"/>
      <point x="150" y="515" type="curve" smooth="yes"/>
      <point x="92" y="515"/>
      <point x="28" y="518"/>
      <point x="-1" y="519" type="curve"/>
      <point x="-1" y="498" type="line"/>
      <point x="19" y="494"/>
      <point x="32" y="477"/>
      <point x="51" y="448" type="curve" smooth="yes"/>
      <point x="312" y="55" type="line" smooth="yes"/>
      <point x="325" y="34"/>
      <point x="314" y="21"/>
      <point x="287" y="21" type="curve"/>
      <point x="287" y="0" type="line"/>
      <point x="314" y="1"/>
      <point x="371" y="4"/>
      <point x="425" y="4" type="curve" smooth="yes"/>
      <point x="475" y="4"/>
      <point x="531" y="1"/>
      <point x="556" y="0" type="curve"/>
      <point x="556" y="21" type="line"/>
      <point x="534" y="25"/>
      <point x="516" y="54"/>
      <point x="504" y="71" type="curve" smooth="yes"/>
      <point x="243" y="464" type="line" smooth="yes"/>
      <point x="230" y="485"/>
      <point x="241" y="498"/>
      <point x="268" y="498" type="curve"/>
      <point x="268" y="519" type="line"/>
    </contour>
    <contour>
      <point x="103" y="102" type="line" smooth="yes"/>
      <point x="70" y="62"/>
      <point x="43" y="37"/>
      <point x="9" y="20" type="curve"/>
      <point x="9" y="0" type="line"/>
      <point x="27" y="2"/>
      <point x="47" y="3"/>
      <point x="76" y="3" type="curve" smooth="yes"/>
      <point x="111" y="3"/>
      <point x="198" y="2"/>
      <point x="239" y="0" type="curve"/>
      <point x="239" y="20" type="line"/>
      <point x="168" y="26"/>
      <point x="138" y="107"/>
      <point x="205" y="192" type="curve" smooth="yes"/>
      <point x="216" y="206" type="line"/>
      <point x="216" y="206"/>
      <point x="212" y="228"/>
      <point x="212" y="228" type="curve"/>
    </contour>
    <contour>
      <point x="503" y="517"/>
      <point x="483" y="516"/>
      <point x="454" y="516" type="curve" smooth="yes"/>
      <point x="419" y="516"/>
      <point x="362" y="517"/>
      <point x="321" y="519" type="curve"/>
      <point x="321" y="499" type="line"/>
      <point x="392" y="493"/>
      <point x="407" y="426"/>
      <point x="347" y="353" type="curve" smooth="yes"/>
      <point x="315" y="314" type="line"/>
      <point x="315" y="314"/>
      <point x="319" y="292"/>
      <point x="319" y="292" type="curve"/>
      <point x="427" y="417" type="line" smooth="yes"/>
      <point x="460" y="457"/>
      <point x="491" y="486"/>
      <point x="521" y="499" type="curve"/>
      <point x="521" y="519" type="line"/>
    </contour>
    <contour>
      <point x="284" y="0" type="move" name="bottom"/>
    </contour>
    <contour>
      <point x="290" y="514" type="move" name="top"/>
    </contour>
  </outline>
</glyph>
<glyph name="y" format="1">
  <advance width="529"/>
  <unicode hex="0079"/>
  <outline>
    <contour>
      <point x="510" y="516"/>
      <point x="472" y="515"/>
      <point x="448" y="515" type="curve" smooth="yes"/>
      <point x="424" y="515"/>
      <point x="371" y="516"/>
      <point x="343" y="519" type="curve"/>
      <point x="343" y="498" type="line"/>
      <point x="402" y="494"/>
      <point x="442" y="430"/>
      <point x="397" y="295" type="curve" smooth="yes"/>
      <point x="349" y="148" type="line"/>
      <point x="360" y="156" type="line"/>
      <point x="232" y="460" type="line" smooth="yes"/>
      <point x="216" y="497"/>
      <point x="252" y="498"/>
      <point x="288" y="498" type="curve"/>
      <point x="288" y="519" type="line"/>
      <point x="248" y="516"/>
      <point x="205" y="513"/>
      <point x="143" y="513" type="curve" smooth="yes"/>
      <point x="93" y="513"/>
      <point x="33" y="515"/>
      <point x="-20" y="519" type="curve"/>
      <point x="-20" y="498" type="line"/>
      <point x="-6" y="498"/>
      <point x="15" y="493"/>
      <point x="38" y="442" type="curve" smooth="yes"/>
      <point x="278" y="-88" type="line"/>
      <point x="329" y="29" type="line"/>
      <point x="454" y="401" type="line" smooth="yes"/>
      <point x="476" y="466"/>
      <point x="500" y="489"/>
      <point x="525" y="498" type="curve"/>
      <point x="525" y="519" type="line"/>
    </contour>
    <contour>
      <point x="301" y="19" type="line"/>
      <point x="266" y="-90" type="line" smooth="yes"/>
      <point x="248" y="-145"/>
      <point x="214" y="-170"/>
      <point x="171" y="-170" type="curve" smooth="yes"/>
      <point x="163" y="-170"/>
      <point x="147" y="-170"/>
      <point x="137" y="-168" type="curve"/>
      <point x="182" y="-154"/>
      <point x="202" y="-120"/>
      <point x="202" y="-91" type="curve" smooth="yes"/>
      <point x="202" y="-42"/>
      <point x="167" y="-17"/>
      <point x="112" y="-17" type="curve" smooth="yes"/>
      <point x="53" y="-17"/>
      <point x="14" y="-47"/>
      <point x="14" y="-94" type="curve" smooth="yes"/>
      <point x="14" y="-164"/>
      <point x="95" y="-188"/>
      <point x="150" y="-188" type="curve" smooth="yes"/>
      <point x="199" y="-188"/>
      <point x="225" y="-178"/>
      <point x="243" y="-164" type="curve" smooth="yes"/>
      <point x="262" y="-149"/>
      <point x="275" y="-126"/>
      <point x="287" y="-92" type="curve" smooth="yes"/>
      <point x="329" y="29" type="line"/>
    </contour>
    <contour>
      <point x="260" y="514" type="move" name="top"/>
    </contour>
  </outline>
</glyph>
<glyph name="z" format="1">
  <advance width="472"/>
  <unicode hex="007A"/>
  <outline>
    <contour>
      <point x="380" y="520"/>
      <point x="305" y="518"/>
      <point x="235" y="518" type="curve" smooth="yes"/>
      <point x="169" y="518"/>
      <point x="101" y="519"/>
      <point x="39" y="522" type="curve"/>
      <point x="42" y="477"/>
      <point x="43" y="418"/>
      <point x="43" y="312" type="curve"/>
      <point x="63" y="312" type="line"/>
      <point x="74" y="460"/>
      <point x="155" y="503"/>
      <point x="230" y="503" type="curve" smooth="yes"/>
      <point x="250" y="503" type="line"/>
      <point x="26" y="-5" type="line"/>
      <point x="93" y="-2"/>
      <point x="168" y="0"/>
      <point x="238" y="0" type="curve" smooth="yes"/>
      <point x="304" y="0"/>
      <point x="372" y="-1"/>
      <point x="434" y="-4" type="curve"/>
      <point x="431" y="41"/>
      <point x="430" y="100"/>
      <point x="430" y="206" type="curve"/>
      <point x="410" y="206" type="line"/>
      <point x="399" y="58"/>
      <point x="312" y="15"/>
      <point x="237" y="15" type="curve" smooth="yes"/>
      <point x="223" y="15" type="line"/>
      <point x="447" y="523" type="line"/>
    </contour>
    <contour>
      <point x="240" y="0" type="move" name="bottom"/>
    </contour>
    <contour>
      <point x="252" y="514" type="move" name="top"/>
    </contour>
  </outline>
</glyph>
<glyph name="braceleft" format="1">
  <advance width="353"/>
  <unicode hex="007B"/>
  <outline>
    <contour>
      <point x="159" y="782"/>
      <point x="92" y="727"/>
      <point x="92" y="551" type="curve" smooth="yes"/>
      <point x="92" y="363"/>
      <point x="77" y="312"/>
      <point x="16" y="308" type="curve" smooth="yes"/>
      <point x="11" y="308" type="line"/>
      <point x="11" y="290" type="line"/>
      <point x="16" y="290" type="line" smooth="yes"/>
      <point x="77" y="285"/>
      <point x="92" y="234"/>
      <point x="92" y="47" type="curve" smooth="yes"/>
      <point x="92" y="-137"/>
      <point x="159" y="-188"/>
      <point x="342" y="-188" type="curve"/>
      <point x="342" y="-169" type="line"/>
      <point x="285" y="-168"/>
      <point x="272" y="-150"/>
      <point x="272" y="47" type="curve" smooth="yes"/>
      <point x="272" y="226"/>
      <point x="159" y="277"/>
      <point x="39" y="299" type="curve"/>
      <point x="159" y="321"/>
      <point x="272" y="371"/>
      <point x="272" y="551" type="curve" smooth="yes"/>
      <point x="272" y="740"/>
      <point x="285" y="761"/>
      <point x="342" y="763" type="curve"/>
      <point x="342" y="782" type="line"/>
    </contour>
  </outline>
</glyph>
<glyph name="bar" format="1">
  <advance width="274"/>
  <unicode hex="007C"/>
  <outline>
    <contour>
      <point x="77" y="858" type="line"/>
      <point x="77" y="-195" type="line"/>
      <point x="197" y="-195" type="line"/>
      <point x="197" y="858" type="line"/>
    </contour>
  </outline>
</glyph>
<glyph name="exclamdown" format="1">
  <advance width="295"/>
  <unicode hex="00A1"/>
  <outline>
    <contour>
      <point x="138" y="318" type="line"/>
      <point x="128" y="164"/>
      <point x="41" y="16"/>
      <point x="41" y="-68" type="curve" smooth="yes"/>
      <point x="41" y="-144"/>
      <point x="85" y="-188"/>
      <point x="148" y="-188" type="curve" smooth="yes"/>
      <point x="208" y="-188"/>
      <point x="253" y="-147"/>
      <point x="253" y="-68" type="curve" smooth="yes"/>
      <point x="253" y="20"/>
      <point x="166" y="163"/>
      <point x="156" y="318" type="curve"/>
    </contour>
    <component base="period" xOffset="7" yOffset="375"/>
  </outline>
</glyph>
<glyph name="cent" format="1">
  <advance width="515"/>
  <unicode hex="00A2"/>
  <outline>
    <contour>
      <point x="259" y="708" type="line"/>
      <point x="259" y="-181" type="line"/>
      <point x="281" y="-181" type="line"/>
      <point x="281" y="708" type="line"/>
    </contour>
    <component base="c" xOffset="1"/>
  </outline>
</glyph>
<glyph name="sterling" format="1">
  <advance width="699"/>
  <unicode hex="00A3"/>
  <outline>
    <contour>
      <point x="196" y="736"/>
      <point x="134" y="603"/>
      <point x="134" y="439" type="curve" smooth="yes"/>
      <point x="134" y="258" type="line" smooth="yes"/>
      <point x="134" y="153"/>
      <point x="137" y="107"/>
      <point x="116" y="58" type="curve"/>
      <point x="58" y="47"/>
      <point x="31" y="27"/>
      <point x="31" y="6" type="curve" smooth="yes"/>
      <point x="31" y="-10"/>
      <point x="45" y="-14"/>
      <point x="58" y="-14" type="curve" smooth="yes"/>
      <point x="86" y="-14"/>
      <point x="117" y="2"/>
      <point x="143" y="40" type="curve"/>
      <point x="162" y="47"/>
      <point x="180" y="50"/>
      <point x="198" y="50" type="curve" smooth="yes"/>
      <point x="216" y="50"/>
      <point x="233" y="45"/>
      <point x="247" y="42" type="curve" smooth="yes"/>
      <point x="321" y="25"/>
      <point x="395" y="-14"/>
      <point x="489" y="-14" type="curve" smooth="yes"/>
      <point x="610" y="-14"/>
      <point x="668" y="42"/>
      <point x="668" y="137" type="curve" smooth="yes"/>
      <point x="668" y="216"/>
      <point x="604" y="261"/>
      <point x="540" y="272" type="curve"/>
      <point x="536" y="256" type="line"/>
      <point x="575" y="248"/>
      <point x="601" y="227"/>
      <point x="601" y="190" type="curve" smooth="yes"/>
      <point x="601" y="158"/>
      <point x="575" y="133"/>
      <point x="535" y="133" type="curve" smooth="yes"/>
      <point x="463" y="133"/>
      <point x="430" y="158"/>
      <point x="345" y="158" type="curve" smooth="yes"/>
      <point x="298" y="158"/>
      <point x="238" y="142"/>
      <point x="152" y="64" type="curve"/>
      <point x="237" y="167"/>
      <point x="317" y="228"/>
      <point x="317" y="351" type="curve" smooth="yes"/>
      <point x="317" y="465" type="line" smooth="yes"/>
      <point x="317" y="655"/>
      <point x="339" y="717"/>
      <point x="418" y="717" type="curve" smooth="yes"/>
      <point x="443" y="717"/>
      <point x="461" y="713"/>
      <point x="475" y="707" type="curve"/>
      <point x="434" y="692"/>
      <point x="410" y="658"/>
      <point x="410" y="615" type="curve" smooth="yes"/>
      <point x="410" y="568"/>
      <point x="445" y="535"/>
      <point x="500" y="535" type="curve" smooth="yes"/>
      <point x="553" y="535"/>
      <point x="588" y="573"/>
      <point x="588" y="622" type="curve" smooth="yes"/>
      <point x="588" y="664"/>
      <point x="562" y="695"/>
      <point x="526" y="714" type="curve" smooth="yes"/>
      <point x="502" y="726"/>
      <point x="460" y="736"/>
      <point x="406" y="736" type="curve" smooth="yes"/>
    </contour>
    <contour>
      <point x="57" y="317" type="line"/>
      <point x="57" y="297" type="line"/>
      <point x="422" y="297" type="line"/>
      <point x="422" y="317" type="line"/>
    </contour>
    <contour>
      <point x="57" y="417" type="line"/>
      <point x="57" y="397" type="line"/>
      <point x="422" y="397" type="line"/>
      <point x="422" y="417" type="line"/>
    </contour>
  </outline>
</glyph>
<glyph name="currency" format="1">
  <advance width="669"/>
  <unicode hex="00A4"/>
  <outline>
    <contour>
      <point x="429" y="517" type="line"/>
      <point x="400" y="529"/>
      <point x="368" y="537"/>
      <point x="334" y="537" type="curve" smooth="yes"/>
      <point x="300" y="537"/>
      <point x="269" y="530"/>
      <point x="240" y="517" type="curve"/>
      <point x="172" y="586" type="line"/>
      <point x="49" y="463" type="line"/>
      <point x="117" y="394" type="line"/>
      <point x="105" y="365"/>
      <point x="98" y="333"/>
      <point x="98" y="300" type="curve" smooth="yes"/>
      <point x="98" y="266"/>
      <point x="105" y="234"/>
      <point x="117" y="205" type="curve"/>
      <point x="49" y="137" type="line"/>
      <point x="172" y="14" type="line"/>
      <point x="241" y="83" type="line"/>
      <point x="269" y="71"/>
      <point x="301" y="64"/>
      <point x="334" y="64" type="curve" smooth="yes"/>
      <point x="367" y="64"/>
      <point x="399" y="71"/>
      <point x="428" y="83" type="curve"/>
      <point x="498" y="14" type="line"/>
      <point x="621" y="137" type="line"/>
      <point x="551" y="206" type="line"/>
      <point x="564" y="235"/>
      <point x="571" y="266"/>
      <point x="571" y="300" type="curve" smooth="yes"/>
      <point x="571" y="333"/>
      <point x="564" y="365"/>
      <point x="552" y="394" type="curve"/>
      <point x="621" y="463" type="line"/>
      <point x="498" y="586" type="line"/>
    </contour>
    <contour>
      <point x="387" y="407"/>
      <point x="429" y="358"/>
      <point x="429" y="300" type="curve" smooth="yes"/>
      <point x="429" y="242"/>
      <point x="387" y="194"/>
      <point x="336" y="194" type="curve" smooth="yes"/>
      <point x="284" y="194"/>
      <point x="242" y="242"/>
      <point x="242" y="300" type="curve" smooth="yes"/>
      <point x="242" y="358"/>
      <point x="284" y="407"/>
      <point x="336" y="407" type="curve" smooth="yes"/>
    </contour>
  </outline>
</glyph>
<glyph name="yen" format="1">
  <advance width="698"/>
  <unicode hex="00A5"/>
  <outline>
    <contour>
      <point x="152" y="307" type="line"/>
      <point x="152" y="287" type="line"/>
      <point x="585" y="287" type="line"/>
      <point x="585" y="307" type="line"/>
    </contour>
    <contour>
      <point x="152" y="207" type="line"/>
      <point x="152" y="187" type="line"/>
      <point x="585" y="187" type="line"/>
      <point x="585" y="207" type="line"/>
    </contour>
    <component base="Y" xOffset="33"/>
  </outline>
</glyph>
<glyph name="brokenbar" format="1">
  <advance width="278"/>
  <unicode hex="00A6"/>
  <outline>
    <contour>
      <point x="79" y="326" type="line"/>
      <point x="79" y="-195" type="line"/>
      <point x="199" y="-195" type="line"/>
      <point x="199" y="326" type="line"/>
    </contour>
    <contour>
      <point x="79" y="858" type="line"/>
      <point x="79" y="384" type="line"/>
      <point x="199" y="384" type="line"/>
      <point x="199" y="858" type="line"/>
    </contour>
  </outline>
</glyph>
<glyph name="ordfeminine" format="1">
  <advance width="495"/>
  <unicode hex="00AA"/>
  <outline>
    <contour>
      <point x="192" y="722"/>
      <point x="150" y="716"/>
      <point x="111" y="699" type="curve" smooth="yes"/>
      <point x="78" y="685"/>
      <point x="53" y="660"/>
      <point x="53" y="626" type="curve" smooth="yes"/>
      <point x="53" y="587"/>
      <point x="84" y="561"/>
      <point x="131" y="561" type="curve" smooth="yes"/>
      <point x="174" y="561"/>
      <point x="214" y="584"/>
      <point x="214" y="628" type="curve" smooth="yes"/>
      <point x="214" y="652"/>
      <point x="199" y="682"/>
      <point x="164" y="692" type="curve"/>
      <point x="176" y="700"/>
      <point x="190" y="703"/>
      <point x="205" y="703" type="curve" smooth="yes"/>
      <point x="242" y="703"/>
      <point x="263" y="681"/>
      <point x="263" y="621" type="curve" smooth="yes"/>
      <point x="263" y="603" type="line" smooth="yes"/>
      <point x="263" y="577"/>
      <point x="221" y="558"/>
      <point x="183" y="547" type="curve" smooth="yes"/>
      <point x="80" y="518"/>
      <point x="38" y="494"/>
      <point x="38" y="439" type="curve" smooth="yes"/>
      <point x="38" y="384"/>
      <point x="81" y="360"/>
      <point x="141" y="360" type="curve" smooth="yes"/>
      <point x="184" y="360"/>
      <point x="229" y="374"/>
      <point x="263" y="407" type="curve"/>
      <point x="265" y="378"/>
      <point x="283" y="360"/>
      <point x="340" y="360" type="curve" smooth="yes"/>
      <point x="396" y="360"/>
      <point x="440" y="376"/>
      <point x="470" y="397" type="curve"/>
      <point x="459" y="412" type="line"/>
      <point x="453" y="407"/>
      <point x="446" y="405"/>
      <point x="438" y="405" type="curve" smooth="yes"/>
      <point x="427" y="405"/>
      <point x="423" y="410"/>
      <point x="423" y="423" type="curve" smooth="yes"/>
      <point x="423" y="595" type="line" smooth="yes"/>
      <point x="423" y="684"/>
      <point x="372" y="722"/>
      <point x="251" y="722" type="curve" smooth="yes"/>
    </contour>
    <contour>
      <point x="263" y="425" type="line"/>
      <point x="253" y="417"/>
      <point x="245" y="415"/>
      <point x="233" y="415" type="curve" smooth="yes"/>
      <point x="218" y="415"/>
      <point x="205" y="432"/>
      <point x="205" y="459" type="curve" smooth="yes"/>
      <point x="205" y="487"/>
      <point x="213" y="512"/>
      <point x="233" y="534" type="curve" smooth="yes"/>
      <point x="249" y="552"/>
      <point x="259" y="563"/>
      <point x="263" y="574" type="curve"/>
    </contour>
  </outline>
</glyph>
<glyph name="guillemotleft" format="1">
  <advance width="614"/>
  <unicode hex="00AB"/>
  <outline>
    <contour>
      <point x="235" y="439"/>
      <point x="139" y="347"/>
      <point x="22" y="269" type="curve"/>
      <point x="22" y="249" type="line"/>
      <point x="139" y="171"/>
      <point x="235" y="80"/>
      <point x="328" y="-16" type="curve"/>
      <point x="342" y="-12" type="line"/>
      <point x="323" y="72"/>
      <point x="265" y="206"/>
      <point x="221" y="259" type="curve"/>
      <point x="265" y="312"/>
      <point x="323" y="447"/>
      <point x="342" y="531" type="curve"/>
      <point x="328" y="535" type="line"/>
    </contour>
    <contour>
      <point x="463" y="415"/>
      <point x="379" y="335"/>
      <point x="278" y="269" type="curve"/>
      <point x="278" y="249" type="line"/>
      <point x="379" y="183"/>
      <point x="463" y="104"/>
      <point x="544" y="24" type="curve"/>
      <point x="558" y="28" type="line"/>
      <point x="545" y="100"/>
      <point x="499" y="214"/>
      <point x="467" y="259" type="curve"/>
      <point x="499" y="304"/>
      <point x="545" y="419"/>
      <point x="558" y="491" type="curve"/>
      <point x="544" y="495" type="line"/>
    </contour>
  </outline>
</glyph>
<glyph name="logicalnot" format="1">
  <advance width="632"/>
  <unicode hex="00AC"/>
  <outline>
    <contour>
      <point x="569" y="370" type="line"/>
      <point x="68" y="370" type="line"/>
      <point x="68" y="340" type="line"/>
      <point x="533" y="340" type="line"/>
      <point x="533" y="165" type="line"/>
      <point x="569" y="165" type="line"/>
    </contour>
  </outline>
</glyph>
<glyph name="registered" format="1">
  <advance width="656"/>
  <unicode hex="00AE"/>
  <outline>
    <contour>
      <point x="174" y="782"/>
      <point x="49" y="657"/>
      <point x="49" y="503" type="curve" smooth="yes"/>
      <point x="49" y="349"/>
      <point x="174" y="224"/>
      <point x="328" y="224" type="curve" smooth="yes"/>
      <point x="482" y="224"/>
      <point x="607" y="349"/>
      <point x="607" y="503" type="curve" smooth="yes"/>
      <point x="607" y="657"/>
      <point x="482" y="782"/>
      <point x="328" y="782" type="curve" smooth="yes"/>
    </contour>
    <contour>
      <point x="266" y="510" type="line"/>
      <point x="341" y="510"/>
      <point x="347" y="501"/>
      <point x="354" y="464" type="curve" smooth="yes"/>
      <point x="367" y="392" type="line" smooth="yes"/>
      <point x="372" y="362"/>
      <point x="398" y="347"/>
      <point x="445" y="347" type="curve" smooth="yes"/>
      <point x="472" y="347"/>
      <point x="491" y="354"/>
      <point x="503" y="364" type="curve"/>
      <point x="497" y="375" type="line"/>
      <point x="493" y="372"/>
      <point x="490" y="371"/>
      <point x="486" y="371" type="curve" smooth="yes"/>
      <point x="479" y="371"/>
      <point x="475" y="375"/>
      <point x="473" y="388" type="curve" smooth="yes"/>
      <point x="456" y="459" type="line" smooth="yes"/>
      <point x="449" y="496"/>
      <point x="429" y="513"/>
      <point x="353" y="518" type="curve"/>
      <point x="330" y="522"/>
      <point x="331" y="525"/>
      <point x="264" y="525" type="curve"/>
    </contour>
    <contour>
      <point x="460" y="750"/>
      <point x="565" y="638"/>
      <point x="565" y="503" type="curve" smooth="yes"/>
      <point x="565" y="368"/>
      <point x="460" y="256"/>
      <point x="328" y="256" type="curve" smooth="yes"/>
      <point x="196" y="256"/>
      <point x="91" y="368"/>
      <point x="91" y="503" type="curve" smooth="yes"/>
      <point x="91" y="638"/>
      <point x="196" y="750"/>
      <point x="328" y="750" type="curve" smooth="yes"/>
    </contour>
    <contour>
      <point x="328" y="676"/>
      <point x="293" y="675"/>
      <point x="256" y="675" type="curve" smooth="yes"/>
      <point x="231" y="675"/>
      <point x="200" y="675"/>
      <point x="184" y="676" type="curve"/>
      <point x="184" y="661" type="line"/>
      <point x="203" y="659"/>
      <point x="207" y="655"/>
      <point x="207" y="623" type="curve" smooth="yes"/>
      <point x="207" y="404" type="line" smooth="yes"/>
      <point x="207" y="373"/>
      <point x="203" y="369"/>
      <point x="184" y="367" type="curve"/>
      <point x="184" y="352" type="line"/>
      <point x="200" y="352"/>
      <point x="231" y="353"/>
      <point x="260" y="353" type="curve" smooth="yes"/>
      <point x="286" y="353"/>
      <point x="312" y="352"/>
      <point x="331" y="352" type="curve"/>
      <point x="331" y="367" type="line"/>
      <point x="312" y="369"/>
      <point x="308" y="373"/>
      <point x="308" y="404" type="curve" smooth="yes"/>
      <point x="308" y="636" type="line" smooth="yes"/>
      <point x="308" y="655"/>
      <point x="312" y="661"/>
      <point x="326" y="661" type="curve" smooth="yes"/>
      <point x="354" y="661"/>
      <point x="369" y="637"/>
      <point x="369" y="594" type="curve" smooth="yes"/>
      <point x="369" y="550"/>
      <point x="348" y="526"/>
      <point x="312" y="526" type="curve" smooth="yes"/>
      <point x="259" y="526" type="line"/>
      <point x="259" y="526"/>
      <point x="259" y="510"/>
      <point x="259" y="510" type="curve"/>
      <point x="319" y="513" type="line" smooth="yes"/>
      <point x="441" y="519"/>
      <point x="468" y="567"/>
      <point x="468" y="597" type="curve" smooth="yes"/>
      <point x="468" y="647"/>
      <point x="435" y="676"/>
      <point x="342" y="676" type="curve" smooth="yes"/>
    </contour>
  </outline>
</glyph>
<glyph name="acute" format="1">
  <advance width="223"/>
  <unicode hex="00B4"/>
  <outline>
    <contour>
      <point x="172" y="847"/>
      <point x="126" y="837"/>
      <point x="105" y="812" type="curve" smooth="yes"/>
      <point x="69" y="772"/>
      <point x="77" y="721"/>
      <point x="20" y="608" type="curve"/>
      <point x="31" y="599" type="line"/>
      <point x="125" y="678"/>
      <point x="174" y="689"/>
      <point x="207" y="729" type="curve" smooth="yes"/>
      <point x="230" y="757"/>
      <point x="230" y="798"/>
      <point x="203" y="820" type="curve" smooth="yes"/>
    </contour>
    <contour>
      <point x="92" y="514" type="move" name="_top"/>
    </contour>
  </outline>
</glyph>
<glyph name="paragraph" format="1">
  <advance width="790"/>
  <unicode hex="00B6"/>
  <outline>
    <contour>
      <point x="183" y="709"/>
      <point x="31" y="564"/>
      <point x="31" y="360" type="curve" smooth="yes"/>
      <point x="31" y="147"/>
      <point x="150" y="-13"/>
      <point x="480" y="-13" type="curve"/>
      <point x="480" y="-65" type="line" smooth="yes"/>
      <point x="480" y="-136"/>
      <point x="463" y="-158"/>
      <point x="379" y="-161" type="curve"/>
      <point x="379" y="-181" type="line"/>
      <point x="415" y="-179"/>
      <point x="479" y="-178"/>
      <point x="547" y="-178" type="curve" smooth="yes"/>
      <point x="625" y="-178"/>
      <point x="707" y="-179"/>
      <point x="754" y="-181" type="curve"/>
      <point x="754" y="-161" type="line"/>
      <point x="693" y="-158"/>
      <point x="683" y="-148"/>
      <point x="683" y="-75" type="curve" smooth="yes"/>
      <point x="683" y="621" type="line" smooth="yes"/>
      <point x="683" y="665"/>
      <point x="693" y="686"/>
      <point x="750" y="689" type="curve"/>
      <point x="750" y="708" type="line"/>
      <point x="654" y="702"/>
      <point x="557" y="709"/>
      <point x="439" y="709" type="curve" smooth="yes"/>
    </contour>
    <contour>
      <point x="481" y="652"/>
      <point x="481" y="48"/>
      <point x="481" y="48" type="curve" smooth="yes"/>
      <point x="471" y="48"/>
      <point x="433" y="170"/>
      <point x="429" y="327" type="curve"/>
      <point x="257" y="327"/>
      <point x="120" y="344"/>
      <point x="120" y="351" type="curve" smooth="yes"/>
      <point x="120" y="356"/>
      <point x="257" y="376"/>
      <point x="429" y="376" type="curve"/>
      <point x="433" y="528"/>
      <point x="471" y="656"/>
      <point x="481" y="656" type="curve"/>
    </contour>
  </outline>
</glyph>
<glyph name="onesuperior" format="1">
  <advance width="297"/>
  <unicode hex="00B9"/>
  <outline>
    <contour>
      <point x="169" y="731"/>
      <point x="118" y="723"/>
      <point x="26" y="722" type="curve"/>
      <point x="26" y="701" type="line"/>
      <point x="89" y="701"/>
      <point x="107" y="694"/>
      <point x="107" y="636" type="curve" smooth="yes"/>
      <point x="107" y="507" type="line" smooth="yes"/>
      <point x="107" y="468"/>
      <point x="79" y="458"/>
      <point x="33" y="458" type="curve"/>
      <point x="33" y="437" type="line"/>
      <point x="58" y="438"/>
      <point x="109" y="439"/>
      <point x="160" y="439" type="curve" smooth="yes"/>
      <point x="210" y="439"/>
      <point x="262" y="438"/>
      <point x="287" y="437" type="curve"/>
      <point x="287" y="458" type="line"/>
      <point x="239" y="458"/>
      <point x="220" y="468"/>
      <point x="220" y="507" type="curve" smooth="yes"/>
      <point x="220" y="753" type="line"/>
    </contour>
  </outline>
</glyph>
<glyph name="ordmasculine" format="1">
  <advance width="478"/>
  <unicode hex="00BA"/>
  <outline>
    <contour>
      <point x="116" y="722"/>
      <point x="32" y="660"/>
      <point x="32" y="541" type="curve" smooth="yes"/>
      <point x="32" y="422"/>
      <point x="116" y="360"/>
      <point x="239" y="360" type="curve" smooth="yes"/>
      <point x="362" y="360"/>
      <point x="446" y="422"/>
      <point x="446" y="541" type="curve" smooth="yes"/>
      <point x="446" y="660"/>
      <point x="362" y="722"/>
      <point x="239" y="722" type="curve" smooth="yes"/>
    </contour>
    <contour>
      <point x="263" y="704"/>
      <point x="279" y="657"/>
      <point x="279" y="541" type="curve" smooth="yes"/>
      <point x="279" y="425"/>
      <point x="263" y="378"/>
      <point x="239" y="378" type="curve" smooth="yes"/>
      <point x="215" y="378"/>
      <point x="199" y="425"/>
      <point x="199" y="541" type="curve" smooth="yes"/>
      <point x="199" y="657"/>
      <point x="215" y="704"/>
      <point x="239" y="704" type="curve" smooth="yes"/>
    </contour>
  </outline>
</glyph>
<glyph name="guillemotright" format="1">
  <advance width="614"/>
  <unicode hex="00BB"/>
  <outline>
    <contour>
      <point x="272" y="531" type="line"/>
      <point x="291" y="447"/>
      <point x="349" y="312"/>
      <point x="393" y="259" type="curve"/>
      <point x="349" y="206"/>
      <point x="291" y="72"/>
      <point x="272" y="-12" type="curve"/>
      <point x="286" y="-16" type="line"/>
      <point x="379" y="80"/>
      <point x="475" y="171"/>
      <point x="592" y="249" type="curve"/>
      <point x="592" y="269" type="line"/>
      <point x="475" y="347"/>
      <point x="379" y="439"/>
      <point x="286" y="535" type="curve"/>
    </contour>
    <contour>
      <point x="56" y="491" type="line"/>
      <point x="69" y="419"/>
      <point x="115" y="304"/>
      <point x="147" y="259" type="curve"/>
      <point x="115" y="214"/>
      <point x="69" y="100"/>
      <point x="56" y="28" type="curve"/>
      <point x="70" y="24" type="line"/>
      <point x="151" y="104"/>
      <point x="235" y="183"/>
      <point x="336" y="249" type="curve"/>
      <point x="336" y="269" type="line"/>
      <point x="235" y="335"/>
      <point x="151" y="415"/>
      <point x="70" y="495" type="curve"/>
    </contour>
  </outline>
</glyph>
<glyph name="questiondown" format="1">
  <advance width="536"/>
  <unicode hex="00BF"/>
  <outline>
    <contour>
      <point x="302" y="325" type="line"/>
      <point x="302" y="194" type="line"/>
      <point x="138" y="164"/>
      <point x="27" y="95"/>
      <point x="27" y="-8" type="curve" smooth="yes"/>
      <point x="27" y="-120"/>
      <point x="132" y="-188"/>
      <point x="287" y="-188" type="curve" smooth="yes"/>
      <point x="357" y="-188"/>
      <point x="411" y="-172"/>
      <point x="445" y="-153" type="curve" smooth="yes"/>
      <point x="481" y="-133"/>
      <point x="509" y="-106"/>
      <point x="509" y="-57" type="curve" smooth="yes"/>
      <point x="509" y="-15"/>
      <point x="477" y="23"/>
      <point x="427" y="23" type="curve" smooth="yes"/>
      <point x="369" y="23"/>
      <point x="331" y="-14"/>
      <point x="331" y="-61" type="curve" smooth="yes"/>
      <point x="331" y="-106"/>
      <point x="353" y="-133"/>
      <point x="396" y="-149" type="curve"/>
      <point x="384" y="-160"/>
      <point x="356" y="-168"/>
      <point x="317" y="-168" type="curve"/>
      <point x="252" y="-168"/>
      <point x="206" y="-121"/>
      <point x="206" y="-9" type="curve" smooth="yes"/>
      <point x="206" y="69"/>
      <point x="223" y="136"/>
      <point x="322" y="185" type="curve"/>
      <point x="322" y="325" type="line"/>
    </contour>
    <component base="period" xOffset="171" yOffset="376"/>
  </outline>
</glyph>
<glyph name="AE" format="1">
  <advance width="912"/>
  <unicode hex="00C6"/>
  <outline>
    <contour>
      <point x="449" y="772" type="line"/>
      <point x="52" y="84" type="line" smooth="yes"/>
      <point x="24" y="36"/>
      <point x="4" y="21"/>
      <point x="-17" y="20" type="curve"/>
      <point x="-17" y="0" type="line"/>
      <point x="-1" y="2"/>
      <point x="26" y="3"/>
      <point x="50" y="3" type="curve" smooth="yes"/>
      <point x="86" y="3"/>
      <point x="121" y="2"/>
      <point x="141" y="0" type="curve"/>
      <point x="141" y="20" type="line"/>
      <point x="73" y="23"/>
      <point x="54" y="41"/>
      <point x="90" y="104" type="curve" smooth="yes"/>
      <point x="473" y="772" type="line"/>
    </contour>
    <contour>
      <point x="787" y="705"/>
      <point x="701" y="705"/>
      <point x="640" y="705" type="curve" smooth="yes"/>
      <point x="574" y="705"/>
      <point x="427" y="705"/>
      <point x="320" y="708" type="curve"/>
      <point x="320" y="688" type="line"/>
      <point x="380" y="685"/>
      <point x="391" y="675"/>
      <point x="391" y="602" type="curve" smooth="yes"/>
      <point x="391" y="106" type="line" smooth="yes"/>
      <point x="391" y="33"/>
      <point x="381" y="23"/>
      <point x="320" y="20" type="curve"/>
      <point x="320" y="0" type="line"/>
      <point x="427" y="3"/>
      <point x="574" y="3"/>
      <point x="640" y="3" type="curve" smooth="yes"/>
      <point x="707" y="3"/>
      <point x="801" y="3"/>
      <point x="869" y="0" type="curve"/>
      <point x="862" y="58"/>
      <point x="862" y="119"/>
      <point x="862" y="148" type="curve" smooth="yes"/>
      <point x="862" y="184"/>
      <point x="863" y="216"/>
      <point x="865" y="240" type="curve"/>
      <point x="842" y="240" type="line"/>
      <point x="824" y="75"/>
      <point x="748" y="23"/>
      <point x="698" y="23" type="curve" smooth="yes"/>
      <point x="665" y="23" type="line" smooth="yes"/>
      <point x="606" y="23"/>
      <point x="594" y="33"/>
      <point x="594" y="106" type="curve" smooth="yes"/>
      <point x="594" y="602" type="line" smooth="yes"/>
      <point x="594" y="675"/>
      <point x="606" y="685"/>
      <point x="665" y="685" type="curve" smooth="yes"/>
      <point x="678" y="685" type="line" smooth="yes"/>
      <point x="740" y="685"/>
      <point x="801" y="638"/>
      <point x="822" y="488" type="curve"/>
      <point x="845" y="488" type="line"/>
      <point x="843" y="505"/>
      <point x="842" y="532"/>
      <point x="842" y="560" type="curve" smooth="yes"/>
      <point x="842" y="589"/>
      <point x="844" y="649"/>
      <point x="849" y="708" type="curve"/>
    </contour>
    <contour>
      <point x="227" y="366" type="line"/>
      <point x="217" y="346" type="line"/>
      <point x="424" y="346" type="line"/>
      <point x="424" y="366" type="line"/>
    </contour>
    <contour>
      <point x="564" y="366" type="line"/>
      <point x="564" y="366"/>
      <point x="564" y="346"/>
      <point x="564" y="346" type="curve"/>
      <point x="724" y="346" type="line"/>
      <point x="724" y="346"/>
      <point x="724" y="366"/>
      <point x="724" y="366" type="curve"/>
    </contour>
    <contour>
      <point x="730" y="488" type="line"/>
      <point x="719" y="444"/>
      <point x="703" y="366"/>
      <point x="634" y="366" type="curve"/>
      <point x="634" y="346" type="line"/>
      <point x="703" y="346"/>
      <point x="722" y="283"/>
      <point x="733" y="224" type="curve"/>
      <point x="756" y="224" type="line"/>
      <point x="751" y="295"/>
      <point x="750" y="325"/>
      <point x="750" y="356" type="curve" smooth="yes"/>
      <point x="750" y="387"/>
      <point x="748" y="417"/>
      <point x="753" y="488" type="curve"/>
    </contour>
    <contour>
      <point x="456" y="708" type="move" name="top"/>
    </contour>
  </outline>
</glyph>
<glyph name="multiply" format="1">
  <advance width="482"/>
  <unicode hex="00D7"/>
  <outline>
    <contour>
      <point x="45" y="530" type="line"/>
      <point x="220" y="355" type="line"/>
      <point x="46" y="182" type="line"/>
      <point x="68" y="160" type="line"/>
      <point x="242" y="334" type="line"/>
      <point x="415" y="161" type="line"/>
      <point x="437" y="183" type="line"/>
      <point x="264" y="356" type="line"/>
      <point x="437" y="528" type="line"/>
      <point x="415" y="550" type="line"/>
      <point x="242" y="377" type="line"/>
      <point x="67" y="552" type="line"/>
    </contour>
  </outline>
</glyph>
<glyph name="Oslash" format="1">
  <advance width="827"/>
  <unicode hex="00D8"/>
  <outline>
    <contour>
      <point x="231" y="93" type="line"/>
      <point x="249" y="75" type="line"/>
      <point x="587" y="620" type="line"/>
      <point x="572" y="640" type="line"/>
    </contour>
    <contour>
      <point x="99" y="-69" type="line"/>
      <point x="120" y="-83" type="line"/>
      <point x="234" y="75" type="line"/>
      <point x="216" y="93" type="line"/>
    </contour>
    <contour>
      <point x="579" y="640" type="line"/>
      <point x="594" y="620" type="line"/>
      <point x="695" y="770" type="line"/>
      <point x="676" y="783" type="line"/>
    </contour>
    <component base="O"/>
    <contour>
      <point x="372" y="708" type="move" name="top"/>
    </contour>
  </outline>
</glyph>
<glyph name="Thorn" format="1">
  <advance width="648"/>
  <unicode hex="00DE"/>
  <outline>
    <contour>
      <point x="310" y="573"/>
      <point x="246" y="571"/>
      <point x="183" y="571" type="curve"/>
      <point x="185" y="552" type="line"/>
      <point x="207" y="552"/>
      <point x="267" y="554"/>
      <point x="309" y="554" type="curve" smooth="yes"/>
      <point x="395" y="554"/>
      <point x="425" y="491"/>
      <point x="425" y="372" type="curve" smooth="yes"/>
      <point x="425" y="265"/>
      <point x="404" y="172"/>
      <point x="302" y="172" type="curve" smooth="yes"/>
      <point x="216" y="172" type="line"/>
      <point x="216" y="172"/>
      <point x="216" y="152"/>
      <point x="216" y="152" type="curve"/>
      <point x="312" y="152" type="line" smooth="yes"/>
      <point x="567" y="152"/>
      <point x="635" y="262"/>
      <point x="635" y="383" type="curve" smooth="yes"/>
      <point x="635" y="513"/>
      <point x="537" y="573"/>
      <point x="334" y="573" type="curve" smooth="yes"/>
    </contour>
    <component base="I"/>
  </outline>
</glyph>
<glyph name="germandbls" format="1">
  <advance width="705"/>
  <unicode hex="00DF"/>
  <outline>
    <contour>
      <point x="170" y="782"/>
      <point x="74" y="688"/>
      <point x="74" y="512" type="curve" smooth="yes"/>
      <point x="74" y="93" type="line" smooth="yes"/>
      <point x="74" y="37"/>
      <point x="59" y="21"/>
      <point x="18" y="21" type="curve"/>
      <point x="18" y="0" type="line"/>
      <point x="66" y="3"/>
      <point x="84" y="4"/>
      <point x="115" y="3" type="curve" smooth="yes"/>
      <point x="168" y="2"/>
      <point x="213" y="-3"/>
      <point x="254" y="-11" type="curve"/>
      <point x="254" y="533" type="line" smooth="yes"/>
      <point x="254" y="702"/>
      <point x="258" y="767"/>
      <point x="335" y="767" type="curve" smooth="yes"/>
      <point x="390" y="767"/>
      <point x="418" y="719"/>
      <point x="418" y="616" type="curve" smooth="yes"/>
      <point x="418" y="531"/>
      <point x="399" y="480"/>
      <point x="331" y="436" type="curve"/>
      <point x="324" y="439"/>
      <point x="309" y="443"/>
      <point x="299" y="443" type="curve" smooth="yes"/>
      <point x="285" y="443"/>
      <point x="277" y="436"/>
      <point x="277" y="425" type="curve" smooth="yes"/>
      <point x="277" y="414"/>
      <point x="287" y="409"/>
      <point x="297" y="409" type="curve" smooth="yes"/>
      <point x="306" y="409"/>
      <point x="319" y="414"/>
      <point x="331" y="420" type="curve"/>
      <point x="392" y="397"/>
      <point x="500" y="356"/>
      <point x="500" y="171" type="curve" smooth="yes"/>
      <point x="500" y="80"/>
      <point x="474" y="4"/>
      <point x="404" y="4" type="curve" smooth="yes"/>
      <point x="392" y="4"/>
      <point x="383" y="6"/>
      <point x="375" y="10" type="curve"/>
      <point x="411" y="26"/>
      <point x="450" y="62"/>
      <point x="450" y="115" type="curve" smooth="yes"/>
      <point x="450" y="163"/>
      <point x="419" y="197"/>
      <point x="370" y="197" type="curve" smooth="yes"/>
      <point x="317" y="197"/>
      <point x="286" y="157"/>
      <point x="286" y="100" type="curve" smooth="yes"/>
      <point x="286" y="13"/>
      <point x="353" y="-14"/>
      <point x="440" y="-14" type="curve" smooth="yes"/>
      <point x="569" y="-14"/>
      <point x="689" y="53"/>
      <point x="689" y="183" type="curve" smooth="yes"/>
      <point x="689" y="306"/>
      <point x="580" y="407"/>
      <point x="348" y="433" type="curve"/>
      <point x="484" y="459"/>
      <point x="588" y="532"/>
      <point x="588" y="631" type="curve" smooth="yes"/>
      <point x="588" y="715"/>
      <point x="506" y="782"/>
      <point x="355" y="782" type="curve" smooth="yes"/>
    </contour>
  </outline>
</glyph>
<glyph name="ae" format="1">
  <advance width="738"/>
  <unicode hex="00E6"/>
  <outline>
    <contour>
      <point x="151" y="-7" type="curve" smooth="yes"/>
      <point x="220" y="-7"/>
      <point x="276" y="25"/>
      <point x="324" y="115" type="curve"/>
      <point x="468" y="343" type="line"/>
      <point x="468" y="412"/>
      <point x="463" y="454"/>
      <point x="435" y="483" type="curve" smooth="yes"/>
      <point x="395" y="524"/>
      <point x="337" y="533"/>
      <point x="272" y="533" type="curve" smooth="yes"/>
      <point x="210" y="533"/>
      <point x="152" y="524"/>
      <point x="112" y="501" type="curve" smooth="yes"/>
      <point x="70" y="477"/>
      <point x="50" y="450"/>
      <point x="50" y="409" type="curve" smooth="yes"/>
      <point x="50" y="360"/>
      <point x="80" y="322"/>
      <point x="134" y="322" type="curve" smooth="yes"/>
      <point x="184" y="322"/>
      <point x="228" y="354"/>
      <point x="228" y="408" type="curve" smooth="yes"/>
      <point x="228" y="445"/>
      <point x="208" y="479"/>
      <point x="161" y="496" type="curve"/>
      <point x="176" y="506"/>
      <point x="195" y="513"/>
      <point x="217" y="513" type="curve" smooth="yes"/>
      <point x="276" y="513"/>
      <point x="288" y="463"/>
      <point x="288" y="431" type="curve" smooth="yes"/>
      <point x="288" y="342" type="line" smooth="yes"/>
      <point x="288" y="248"/>
      <point x="22" y="285"/>
      <point x="22" y="114" type="curve" smooth="yes"/>
      <point x="22" y="50"/>
      <point x="60" y="-7"/>
    </contour>
    <contour>
      <point x="248" y="73" type="curve" smooth="yes"/>
      <point x="222" y="73"/>
      <point x="200" y="91"/>
      <point x="200" y="145" type="curve" smooth="yes"/>
      <point x="200" y="238"/>
      <point x="261" y="254"/>
      <point x="295" y="309" type="curve"/>
      <point x="316" y="138" type="line"/>
      <point x="295" y="88"/>
      <point x="274" y="73"/>
    </contour>
    <contour>
      <point x="507" y="-14" type="curve" smooth="yes"/>
      <point x="620" y="-14"/>
      <point x="682" y="75"/>
      <point x="706" y="156" type="curve"/>
      <point x="689" y="162" type="line"/>
      <point x="649" y="101"/>
      <point x="603" y="95"/>
      <point x="578" y="95" type="curve" smooth="yes"/>
      <point x="529" y="95"/>
      <point x="473" y="132"/>
      <point x="473" y="273" type="curve" smooth="yes"/>
      <point x="473" y="287"/>
      <point x="473" y="301"/>
      <point x="474" y="314" type="curve"/>
      <point x="470" y="322" type="line"/>
      <point x="475" y="459"/>
      <point x="495" y="510"/>
      <point x="526" y="510" type="curve" smooth="yes"/>
      <point x="556" y="510"/>
      <point x="567" y="426"/>
      <point x="566" y="328" type="curve"/>
      <point x="417" y="328" type="line"/>
      <point x="419" y="309" type="line"/>
      <point x="712" y="309" type="line"/>
      <point x="712" y="470"/>
      <point x="644" y="533"/>
      <point x="533" y="533" type="curve" smooth="yes"/>
      <point x="371" y="533"/>
      <point x="286" y="412"/>
      <point x="286" y="259" type="curve" smooth="yes"/>
      <point x="286" y="57"/>
      <point x="385" y="-14"/>
    </contour>
    <contour>
      <point x="378" y="0" type="move" name="bottom"/>
    </contour>
    <contour>
      <point x="578" y="0" type="move" name="ogonek"/>
    </contour>
    <contour>
      <point x="373" y="519" type="move" name="top"/>
    </contour>
  </outline>
</glyph>
<glyph name="thorn" format="1">
  <advance width="601"/>
  <unicode hex="00FE"/>
  <outline>
    <contour>
      <point x="193" y="772"/>
      <point x="136" y="768"/>
      <point x="69" y="768" type="curve" smooth="yes"/>
      <point x="49" y="768"/>
      <point x="28" y="769"/>
      <point x="7" y="771" type="curve"/>
      <point x="7" y="750" type="line"/>
      <point x="49" y="750"/>
      <point x="63" y="722"/>
      <point x="63" y="662" type="curve" smooth="yes"/>
      <point x="63" y="-88" type="line" smooth="yes"/>
      <point x="63" y="-144"/>
      <point x="48" y="-160"/>
      <point x="7" y="-160" type="curve"/>
      <point x="7" y="-181" type="line"/>
      <point x="34" y="-180"/>
      <point x="91" y="-177"/>
      <point x="145" y="-177" type="curve" smooth="yes"/>
      <point x="219" y="-177"/>
      <point x="292" y="-180"/>
      <point x="329" y="-181" type="curve"/>
      <point x="329" y="-160" type="line"/>
      <point x="275" y="-160"/>
      <point x="243" y="-143"/>
      <point x="243" y="-78" type="curve" smooth="yes"/>
      <point x="243" y="782" type="line"/>
    </contour>
    <contour>
      <point x="327" y="533"/>
      <point x="274" y="509"/>
      <point x="243" y="458" type="curve"/>
      <point x="243" y="409" type="line" smooth="yes"/>
      <point x="243" y="451"/>
      <point x="278" y="481"/>
      <point x="315" y="481" type="curve" smooth="yes"/>
      <point x="352" y="481"/>
      <point x="382" y="436"/>
      <point x="382" y="259" type="curve" smooth="yes"/>
      <point x="382" y="97"/>
      <point x="352" y="16"/>
      <point x="278" y="16" type="curve" smooth="yes"/>
      <point x="261" y="16"/>
      <point x="242" y="20"/>
      <point x="231" y="35" type="curve"/>
      <point x="221" y="22" type="line"/>
      <point x="247" y="-6"/>
      <point x="291" y="-14"/>
      <point x="336" y="-14" type="curve" smooth="yes"/>
      <point x="461" y="-14"/>
      <point x="569" y="55"/>
      <point x="569" y="282" type="curve" smooth="yes"/>
      <point x="569" y="452"/>
      <point x="494" y="533"/>
      <point x="395" y="533" type="curve" smooth="yes"/>
    </contour>
  </outline>
</glyph>
<glyph name="Dcroat" format="1">
  <advance width="811"/>
  <unicode hex="0110"/>
  <outline>
    <contour>
      <point x="28" y="366" type="line"/>
      <point x="28" y="346" type="line"/>
      <point x="416" y="346" type="line"/>
      <point x="416" y="366" type="line"/>
    </contour>
    <component base="D"/>
  </outline>
</glyph>
<glyph name="gbreve" format="1">
  <advance width="560"/>
  <unicode hex="011F"/>
  <outline>
    <contour>
      <point x="71" y="187"/>
      <point x="32" y="148"/>
      <point x="32" y="78" type="curve" smooth="yes"/>
      <point x="32" y="-10"/>
      <point x="112" y="-26"/>
      <point x="152" y="-26" type="curve" smooth="yes"/>
      <point x="366" y="-26" type="line" smooth="yes"/>
      <point x="401" y="-26"/>
      <point x="412" y="-38"/>
      <point x="412" y="-58" type="curve" smooth="yes"/>
      <point x="412" y="-125"/>
      <point x="360" y="-171"/>
      <point x="282" y="-171" type="curve" smooth="yes"/>
      <point x="222" y="-171"/>
      <point x="192" y="-141"/>
      <point x="192" y="-91" type="curve" smooth="yes"/>
      <point x="192" y="-78"/>
      <point x="195" y="-43"/>
      <point x="207" y="-21" type="curve"/>
      <point x="188" y="-21" type="line"/>
      <point x="152" y="-78"/>
      <point x="20" y="-30"/>
      <point x="20" y="-105" type="curve" smooth="yes"/>
      <point x="20" y="-144"/>
      <point x="71" y="-188"/>
      <point x="255" y="-188" type="curve" smooth="yes"/>
      <point x="457" y="-188"/>
      <point x="551" y="-78"/>
      <point x="551" y="23" type="curve" smooth="yes"/>
      <point x="551" y="112"/>
      <point x="483" y="140"/>
      <point x="404" y="140" type="curve" smooth="yes"/>
      <point x="177" y="140" type="line" smooth="yes"/>
      <point x="155" y="140"/>
      <point x="141" y="150"/>
      <point x="141" y="173" type="curve" smooth="yes"/>
      <point x="141" y="197"/>
      <point x="159" y="209"/>
      <point x="190" y="229" type="curve"/>
      <point x="181" y="237" type="line"/>
    </contour>
    <contour>
      <point x="307" y="515"/>
      <point x="326" y="480"/>
      <point x="326" y="373" type="curve" smooth="yes"/>
      <point x="326" y="266"/>
      <point x="307" y="231"/>
      <point x="275" y="231" type="curve" smooth="yes"/>
      <point x="243" y="231"/>
      <point x="224" y="266"/>
      <point x="224" y="373" type="curve" smooth="yes"/>
      <point x="224" y="480"/>
      <point x="243" y="515"/>
      <point x="275" y="515" type="curve" smooth="yes"/>
    </contour>
    <contour>
      <point x="140" y="533"/>
      <point x="40" y="483"/>
      <point x="40" y="373" type="curve" smooth="yes"/>
      <point x="40" y="263"/>
      <point x="140" y="213"/>
      <point x="275" y="213" type="curve" smooth="yes"/>
      <point x="410" y="213"/>
      <point x="510" y="263"/>
      <point x="510" y="373" type="curve" smooth="yes"/>
      <point x="510" y="483"/>
      <point x="410" y="533"/>
      <point x="275" y="533" type="curve" smooth="yes"/>
    </contour>
    <contour>
      <point x="447" y="659"/>
      <point x="404" y="605"/>
      <point x="404" y="537" type="curve" smooth="yes"/>
      <point x="404" y="510"/>
      <point x="413" y="486"/>
      <point x="423" y="463" type="curve"/>
      <point x="441" y="473" type="line"/>
      <point x="431" y="494"/>
      <point x="425" y="516"/>
      <point x="425" y="537" type="curve" smooth="yes"/>
      <point x="425" y="558"/>
      <point x="429" y="571"/>
      <point x="438" y="584" type="curve"/>
      <point x="447" y="557"/>
      <point x="469" y="527"/>
      <point x="511" y="527" type="curve" smooth="yes"/>
      <point x="551" y="527"/>
      <point x="583" y="554"/>
      <point x="583" y="592" type="curve" smooth="yes"/>
      <point x="583" y="637"/>
      <point x="548" y="659"/>
      <point x="507" y="659" type="curve" smooth="yes"/>
    </contour>
    <component base="breve" xOffset="80"/>
  </outline>
</glyph>
<glyph name="gdotaccent" format="1">
  <advance width="560"/>
  <unicode hex="0121"/>
  <outline>
    <contour>
      <point x="71" y="187"/>
      <point x="32" y="148"/>
      <point x="32" y="78" type="curve" smooth="yes"/>
      <point x="32" y="-10"/>
      <point x="112" y="-26"/>
      <point x="152" y="-26" type="curve" smooth="yes"/>
      <point x="366" y="-26" type="line" smooth="yes"/>
      <point x="401" y="-26"/>
      <point x="412" y="-38"/>
      <point x="412" y="-58" type="curve" smooth="yes"/>
      <point x="412" y="-125"/>
      <point x="360" y="-171"/>
      <point x="282" y="-171" type="curve" smooth="yes"/>
      <point x="222" y="-171"/>
      <point x="192" y="-141"/>
      <point x="192" y="-91" type="curve" smooth="yes"/>
      <point x="192" y="-78"/>
      <point x="195" y="-43"/>
      <point x="207" y="-21" type="curve"/>
      <point x="188" y="-21" type="line"/>
      <point x="152" y="-78"/>
      <point x="20" y="-30"/>
      <point x="20" y="-105" type="curve" smooth="yes"/>
      <point x="20" y="-144"/>
      <point x="71" y="-188"/>
      <point x="255" y="-188" type="curve" smooth="yes"/>
      <point x="457" y="-188"/>
      <point x="551" y="-78"/>
      <point x="551" y="23" type="curve" smooth="yes"/>
      <point x="551" y="112"/>
      <point x="483" y="140"/>
      <point x="404" y="140" type="curve" smooth="yes"/>
      <point x="177" y="140" type="line" smooth="yes"/>
      <point x="155" y="140"/>
      <point x="141" y="150"/>
      <point x="141" y="173" type="curve" smooth="yes"/>
      <point x="141" y="197"/>
      <point x="159" y="209"/>
      <point x="190" y="229" type="curve"/>
      <point x="181" y="237" type="line"/>
    </contour>
    <contour>
      <point x="307" y="515"/>
      <point x="326" y="480"/>
      <point x="326" y="373" type="curve" smooth="yes"/>
      <point x="326" y="266"/>
      <point x="307" y="231"/>
      <point x="275" y="231" type="curve" smooth="yes"/>
      <point x="243" y="231"/>
      <point x="224" y="266"/>
      <point x="224" y="373" type="curve" smooth="yes"/>
      <point x="224" y="480"/>
      <point x="243" y="515"/>
      <point x="275" y="515" type="curve" smooth="yes"/>
    </contour>
    <contour>
      <point x="140" y="533"/>
      <point x="40" y="483"/>
      <point x="40" y="373" type="curve" smooth="yes"/>
      <point x="40" y="263"/>
      <point x="140" y="213"/>
      <point x="275" y="213" type="curve" smooth="yes"/>
      <point x="410" y="213"/>
      <point x="510" y="263"/>
      <point x="510" y="373" type="curve" smooth="yes"/>
      <point x="510" y="483"/>
      <point x="410" y="533"/>
      <point x="275" y="533" type="curve" smooth="yes"/>
    </contour>
    <contour>
      <point x="412" y="682"/>
      <point x="374" y="621"/>
      <point x="374" y="550" type="curve" smooth="yes"/>
      <point x="374" y="528"/>
      <point x="378" y="508"/>
      <point x="385" y="488" type="curve"/>
      <point x="404" y="494" type="line"/>
      <point x="399" y="512"/>
      <point x="395" y="532"/>
      <point x="395" y="550" type="curve" smooth="yes"/>
      <point x="395" y="570"/>
      <point x="397" y="583"/>
      <point x="402" y="597" type="curve"/>
      <point x="411" y="548"/>
      <point x="449" y="530"/>
      <point x="491" y="530" type="curve" smooth="yes"/>
      <point x="537" y="530"/>
      <point x="573" y="561"/>
      <point x="573" y="605" type="curve" smooth="yes"/>
      <point x="573" y="654"/>
      <point x="534" y="682"/>
      <point x="487" y="682" type="curve" smooth="yes"/>
    </contour>
    <component base="dotaccent" xOffset="186"/>
  </outline>
</glyph>
<glyph name="gcommaaccent" format="1">
  <advance width="560"/>
  <unicode hex="0123"/>
  <outline>
    <contour>
      <point x="71" y="187"/>
      <point x="32" y="148"/>
      <point x="32" y="78" type="curve" smooth="yes"/>
      <point x="32" y="-10"/>
      <point x="112" y="-26"/>
      <point x="152" y="-26" type="curve" smooth="yes"/>
      <point x="366" y="-26" type="line" smooth="yes"/>
      <point x="401" y="-26"/>
      <point x="412" y="-38"/>
      <point x="412" y="-58" type="curve" smooth="yes"/>
      <point x="412" y="-125"/>
      <point x="360" y="-171"/>
      <point x="282" y="-171" type="curve" smooth="yes"/>
      <point x="222" y="-171"/>
      <point x="192" y="-141"/>
      <point x="192" y="-91" type="curve" smooth="yes"/>
      <point x="192" y="-78"/>
      <point x="195" y="-43"/>
      <point x="207" y="-21" type="curve"/>
      <point x="188" y="-21" type="line"/>
      <point x="152" y="-78"/>
      <point x="20" y="-30"/>
      <point x="20" y="-105" type="curve" smooth="yes"/>
      <point x="20" y="-144"/>
      <point x="71" y="-188"/>
      <point x="255" y="-188" type="curve" smooth="yes"/>
      <point x="457" y="-188"/>
      <point x="551" y="-78"/>
      <point x="551" y="23" type="curve" smooth="yes"/>
      <point x="551" y="112"/>
      <point x="483" y="140"/>
      <point x="404" y="140" type="curve" smooth="yes"/>
      <point x="177" y="140" type="line" smooth="yes"/>
      <point x="155" y="140"/>
      <point x="141" y="150"/>
      <point x="141" y="173" type="curve" smooth="yes"/>
      <point x="141" y="197"/>
      <point x="159" y="209"/>
      <point x="190" y="229" type="curve"/>
      <point x="181" y="237" type="line"/>
    </contour>
    <contour>
      <point x="307" y="515"/>
      <point x="326" y="480"/>
      <point x="326" y="373" type="curve" smooth="yes"/>
      <point x="326" y="266"/>
      <point x="307" y="231"/>
      <point x="275" y="231" type="curve" smooth="yes"/>
      <point x="243" y="231"/>
      <point x="224" y="266"/>
      <point x="224" y="373" type="curve" smooth="yes"/>
      <point x="224" y="480"/>
      <point x="243" y="515"/>
      <point x="275" y="515" type="curve" smooth="yes"/>
    </contour>
    <contour>
      <point x="140" y="533"/>
      <point x="40" y="483"/>
      <point x="40" y="373" type="curve" smooth="yes"/>
      <point x="40" y="263"/>
      <point x="140" y="213"/>
      <point x="275" y="213" type="curve" smooth="yes"/>
      <point x="410" y="213"/>
      <point x="510" y="263"/>
      <point x="510" y="373" type="curve" smooth="yes"/>
      <point x="510" y="483"/>
      <point x="410" y="533"/>
      <point x="275" y="533" type="curve" smooth="yes"/>
    </contour>
    <contour>
      <point x="405" y="670"/>
      <point x="372" y="612"/>
      <point x="372" y="538" type="curve" smooth="yes"/>
      <point x="372" y="496"/>
      <point x="385" y="457"/>
      <point x="412" y="424" type="curve"/>
      <point x="426" y="437" type="line"/>
      <point x="402" y="465"/>
      <point x="393" y="504"/>
      <point x="393" y="538" type="curve" smooth="yes"/>
      <point x="393" y="558"/>
      <point x="395" y="576"/>
      <point x="400" y="590" type="curve"/>
      <point x="417" y="557"/>
      <point x="442" y="538"/>
      <point x="489" y="538" type="curve" smooth="yes"/>
      <point x="535" y="538"/>
      <point x="571" y="565"/>
      <point x="571" y="603" type="curve" smooth="yes"/>
      <point x="571" y="646"/>
      <point x="532" y="670"/>
      <point x="485" y="670" type="curve" smooth="yes"/>
    </contour>
    <component base="commaaccentcomb" xOffset="388" yOffset="575" xScale="-1" yScale="-1"/>
  </outline>
</glyph>
<glyph name="Hbar" format="1">
  <advance width="829"/>
  <unicode hex="0126"/>
  <outline>
    <contour>
      <point x="28" y="533" type="line"/>
      <point x="28" y="513" type="line"/>
      <point x="801" y="513" type="line"/>
      <point x="801" y="533" type="line"/>
    </contour>
    <component base="H"/>
  </outline>
</glyph>
<glyph name="imacron" format="1">
  <advance width="330"/>
  <unicode hex="012B"/>
  <outline>
    <contour>
      <point x="323" y="712" type="line"/>
      <point x="-9" y="712" type="line"/>
      <point x="-9" y="687" type="line"/>
      <point x="323" y="687" type="line"/>
    </contour>
    <component base="dotlessi"/>
  </outline>
</glyph>
<glyph name="dotlessi" format="1">
  <advance width="330"/>
  <unicode hex="0131"/>
  <outline>
    <contour>
      <point x="207" y="520"/>
      <point x="150" y="516"/>
      <point x="83" y="516" type="curve" smooth="yes"/>
      <point x="63" y="516"/>
      <point x="42" y="517"/>
      <point x="21" y="519" type="curve"/>
      <point x="21" y="498" type="line"/>
      <point x="63" y="498"/>
      <point x="77" y="470"/>
      <point x="77" y="410" type="curve" smooth="yes"/>
      <point x="77" y="93" type="line" smooth="yes"/>
      <point x="77" y="37"/>
      <point x="62" y="21"/>
      <point x="21" y="21" type="curve"/>
      <point x="21" y="0" type="line"/>
      <point x="50" y="1"/>
      <point x="115" y="4"/>
      <point x="171" y="4" type="curve" smooth="yes"/>
      <point x="227" y="4"/>
      <point x="286" y="1"/>
      <point x="313" y="0" type="curve"/>
      <point x="313" y="21" type="line"/>
      <point x="272" y="21"/>
      <point x="257" y="37"/>
      <point x="257" y="93" type="curve" smooth="yes"/>
      <point x="257" y="530" type="line"/>
    </contour>
    <contour>
      <point x="163" y="0" type="move" name="bottom"/>
    </contour>
    <contour>
      <point x="291" y="0" type="move" name="ogonek"/>
    </contour>
    <contour>
      <point x="168" y="514" type="move" name="top"/>
    </contour>
  </outline>
</glyph>
<glyph name="ij" format="1">
  <advance width="610"/>
  <unicode hex="0133"/>
  <outline>
    <contour>
      <point x="273" y="-188" type="line"/>
      <point x="384" y="-188"/>
      <point x="443" y="-167"/>
      <point x="477" y="-138" type="curve" smooth="yes"/>
      <point x="529" y="-93"/>
      <point x="548" y="-38"/>
      <point x="548" y="80" type="curve" smooth="yes"/>
      <point x="548" y="530" type="line"/>
      <point x="498" y="520"/>
      <point x="441" y="516"/>
      <point x="374" y="516" type="curve" smooth="yes"/>
      <point x="354" y="516"/>
      <point x="333" y="517"/>
      <point x="312" y="519" type="curve"/>
      <point x="312" y="498" type="line"/>
      <point x="354" y="498"/>
      <point x="368" y="470"/>
      <point x="368" y="410" type="curve" smooth="yes"/>
      <point x="368" y="110" type="line" smooth="yes"/>
      <point x="368" y="68"/>
      <point x="333" y="38"/>
      <point x="296" y="38" type="curve" smooth="yes"/>
      <point x="261" y="38"/>
      <point x="247" y="59"/>
      <point x="247" y="101" type="curve" smooth="yes"/>
      <point x="247" y="530" type="line"/>
      <point x="197" y="520"/>
      <point x="140" y="516"/>
      <point x="73" y="516" type="curve" smooth="yes"/>
      <point x="53" y="516"/>
      <point x="32" y="517"/>
      <point x="11" y="519" type="curve"/>
      <point x="11" y="498" type="line"/>
      <point x="53" y="498"/>
      <point x="67" y="470"/>
      <point x="67" y="410" type="curve" smooth="yes"/>
      <point x="67" y="155" type="line" smooth="yes"/>
      <point x="67" y="87"/>
      <point x="76" y="50"/>
      <point x="96" y="26" type="curve" smooth="yes"/>
      <point x="115" y="3"/>
      <point x="148" y="-14"/>
      <point x="209" y="-14" type="curve" smooth="yes"/>
      <point x="281" y="-14"/>
      <point x="336" y="8"/>
      <point x="368" y="61" type="curve"/>
      <point x="368" y="-42" type="line" smooth="yes"/>
      <point x="368" y="-134"/>
      <point x="326" y="-168"/>
      <point x="273" y="-168" type="curve"/>
    </contour>
    <component base="uni0307" xOffset="52"/>
    <component base="uni0307" xOffset="354"/>
  </outline>
</glyph>
<glyph name="kgreenlandic" format="1">
  <advance width="609"/>
  <unicode hex="0138"/>
  <outline>
    <contour>
      <point x="563" y="517"/>
      <point x="523" y="516"/>
      <point x="482" y="516" type="curve" smooth="yes"/>
      <point x="453" y="516"/>
      <point x="414" y="517"/>
      <point x="379" y="519" type="curve"/>
      <point x="379" y="499" type="line"/>
      <point x="442" y="496"/>
      <point x="460" y="458"/>
      <point x="427" y="418" type="curve" smooth="yes"/>
      <point x="351" y="329" type="line" smooth="yes"/>
      <point x="324" y="296"/>
      <point x="299" y="278"/>
      <point x="252" y="277" type="curve"/>
      <point x="252" y="258" type="line"/>
      <point x="268" y="258"/>
      <point x="280" y="254"/>
      <point x="289" y="236" type="curve" smooth="yes"/>
      <point x="387" y="55" type="line" smooth="yes"/>
      <point x="397" y="34"/>
      <point x="389" y="21"/>
      <point x="362" y="21" type="curve"/>
      <point x="362" y="0" type="line"/>
      <point x="387" y="1"/>
      <point x="443" y="4"/>
      <point x="493" y="4" type="curve" smooth="yes"/>
      <point x="539" y="4"/>
      <point x="591" y="1"/>
      <point x="614" y="0" type="curve"/>
      <point x="614" y="21" type="line"/>
      <point x="592" y="25"/>
      <point x="579" y="42"/>
      <point x="564" y="73" type="curve" smooth="yes"/>
      <point x="411" y="358" type="line"/>
      <point x="486" y="450" type="line" smooth="yes"/>
      <point x="510" y="480"/>
      <point x="535" y="493"/>
      <point x="589" y="499" type="curve"/>
      <point x="589" y="519" type="line"/>
    </contour>
    <contour>
      <point x="207" y="520"/>
      <point x="150" y="516"/>
      <point x="83" y="516" type="curve" smooth="yes"/>
      <point x="63" y="516"/>
      <point x="42" y="517"/>
      <point x="21" y="519" type="curve"/>
      <point x="21" y="498" type="line"/>
      <point x="63" y="498"/>
      <point x="77" y="470"/>
      <point x="77" y="410" type="curve" smooth="yes"/>
      <point x="77" y="93" type="line" smooth="yes"/>
      <point x="77" y="37"/>
      <point x="62" y="21"/>
      <point x="21" y="21" type="curve"/>
      <point x="21" y="0" type="line"/>
      <point x="50" y="1"/>
      <point x="115" y="4"/>
      <point x="171" y="4" type="curve" smooth="yes"/>
      <point x="227" y="4"/>
      <point x="286" y="1"/>
      <point x="313" y="0" type="curve"/>
      <point x="313" y="21" type="line"/>
      <point x="272" y="21"/>
      <point x="257" y="37"/>
      <point x="257" y="93" type="curve" smooth="yes"/>
      <point x="257" y="530" type="line"/>
    </contour>
  </outline>
</glyph>
<glyph name="Lslash" format="1">
  <advance width="626"/>
  <unicode hex="0141"/>
  <outline>
    <contour>
      <point x="189" y="308" type="line"/>
      <point x="189" y="285" type="line"/>
      <point x="473" y="450" type="line"/>
      <point x="473" y="473" type="line"/>
    </contour>
    <contour>
      <point x="28" y="225" type="line"/>
      <point x="28" y="202" type="line"/>
      <point x="189" y="295" type="line"/>
      <point x="189" y="318" type="line"/>
    </contour>
    <component base="L"/>
  </outline>
</glyph>
